<svg xmlns="http://www.w3.org/2000/svg" width="20" height="20" viewBox="0 0 20 20" fill="none">
  <path d="M2.88755 16.9247L2.3798 17.4767L2.88755 16.9247ZM1.71943 14.8578L2.45371 14.705L1.71943 14.8578ZM15.5653 8.06909L14.9124 8.43809L14.9124 8.43809L15.5653 8.06909ZM18.2807 14.8578L17.5465 14.705L18.2807 14.8578ZM17.1126 16.9247L16.6049 16.3727L16.6049 16.3727L17.1126 16.9247ZM11.1682 2.27232L11.4045 1.56051L11.1682 2.27232ZM8.83196 2.27232L8.59569 1.56051L8.83196 2.27232ZM9.99341 12.5833C9.5792 12.5833 9.24341 12.9191 9.24341 13.3333C9.24341 13.7475 9.5792 14.0833 9.99341 14.0833V12.5833ZM10.0009 14.0833C10.4151 14.0833 10.7509 13.7475 10.7509 13.3333C10.7509 12.9191 10.4151 12.5833 10.0009 12.5833V14.0833ZM9.25008 10.8333C9.25008 11.2476 9.58587 11.5833 10.0001 11.5833C10.4143 11.5833 10.7501 11.2476 10.7501 10.8333H9.25008ZM10.7501 7.5C10.7501 7.08579 10.4143 6.75 10.0001 6.75C9.58587 6.75 9.25008 7.08579 9.25008 7.5H10.7501ZM10.0001 17.1666C7.97096 17.1666 6.51103 17.1656 5.42071 17.0471C4.32878 16.9283 3.7549 16.7035 3.3953 16.3727L2.3798 17.4767C3.09854 18.1378 4.06953 18.409 5.25859 18.5383C6.44924 18.6677 8.00641 18.6666 10.0001 18.6666V17.1666ZM3.78189 7.70008C2.7846 9.46476 2.00637 10.8398 1.5218 11.9556C1.03818 13.0692 0.786174 14.0542 0.985159 15.0105L2.45371 14.705C2.351 14.2114 2.45101 13.5816 2.89765 12.5531C3.34337 11.5268 4.07368 10.2325 5.08778 8.43809L3.78189 7.70008ZM3.3953 16.3727C2.91877 15.9344 2.58812 15.351 2.45371 14.705L0.985159 15.0105C1.18269 15.9599 1.66985 16.8237 2.3798 17.4767L3.3953 16.3727ZM14.9124 8.43809C15.9265 10.2325 16.6568 11.5268 17.1025 12.5531C17.5492 13.5816 17.6492 14.2114 17.5465 14.705L19.015 15.0105C19.214 14.0542 18.962 13.0692 18.4784 11.9556C17.9938 10.8398 17.2156 9.46476 16.2183 7.70008L14.9124 8.43809ZM10.0001 18.6666C11.9938 18.6666 13.5509 18.6677 14.7416 18.5383C15.9306 18.409 16.9016 18.1378 17.6204 17.4767L16.6049 16.3727C16.2453 16.7035 15.6714 16.9283 14.5795 17.0471C13.4891 17.1656 12.0292 17.1666 10.0001 17.1666V18.6666ZM17.5465 14.705C17.412 15.351 17.0814 15.9344 16.6049 16.3727L17.6204 17.4767C18.3303 16.8237 18.8175 15.9599 19.015 15.0105L17.5465 14.705ZM16.2183 7.70008C15.2211 5.93554 14.4444 4.55928 13.7406 3.57236C13.0395 2.58923 12.3265 1.86658 11.4045 1.56051L10.9319 2.98413C11.3899 3.13615 11.8697 3.53232 12.5194 4.44327C13.1663 5.35044 13.8982 6.64351 14.9124 8.43809L16.2183 7.70008ZM5.08778 8.43809C6.10197 6.64351 6.83389 5.35044 7.4808 4.44327C8.13042 3.53232 8.61026 3.13615 9.06824 2.98413L8.59569 1.56051C7.67364 1.86658 6.96062 2.58923 6.25953 3.57236C5.55574 4.55928 4.7791 5.93554 3.78189 7.70008L5.08778 8.43809ZM11.4045 1.56051C10.4919 1.25758 9.5083 1.25758 8.59569 1.56051L9.06824 2.98413C9.67405 2.78304 10.3261 2.78304 10.9319 2.98413L11.4045 1.56051ZM9.99341 14.0833H10.0009V12.5833H9.99341V14.0833ZM10.7501 10.8333V7.5H9.25008V10.8333H10.7501Z" fill="#4B5565"/>
</svg>