<svg width="20" height="20" viewBox="0 0 20 20" fill="none" xmlns="http://www.w3.org/2000/svg">
<g id="arrow-turn-backward">
<path id="Icon" d="M9.16659 4.25C8.75237 4.25 8.41659 4.58579 8.41659 5C8.41659 5.41421 8.75237 5.75 9.16659 5.75V4.25ZM6.27799 10.6039C6.61151 10.3583 6.68276 9.88876 6.43713 9.55524C6.19149 9.22172 5.72199 9.15047 5.38847 9.39611L6.27799 10.6039ZM5.38849 15.6039C5.72202 15.8495 6.19152 15.7783 6.43715 15.4448C6.68278 15.1112 6.61153 14.6417 6.27801 14.3961L5.38849 15.6039ZM9.16659 5.75H12.9166V4.25H9.16659V5.75ZM12.9166 11.75H3.33325V13.25H12.9166V11.75ZM15.9166 8.75C15.9166 10.4069 14.5734 11.75 12.9166 11.75V13.25C15.4019 13.25 17.4166 11.2353 17.4166 8.75H15.9166ZM12.9166 5.75C14.5734 5.75 15.9166 7.09315 15.9166 8.75H17.4166C17.4166 6.26472 15.4019 4.25 12.9166 4.25V5.75ZM4.08325 12.5C4.08325 12.6265 4.03478 12.6706 4.08299 12.5906C4.11878 12.5313 4.1841 12.4433 4.28591 12.328C4.48803 12.0993 4.77183 11.8325 5.07495 11.5693C5.37435 11.3093 5.67594 11.0672 5.90404 10.8892C6.01768 10.8005 6.11217 10.7285 6.17784 10.6789C6.21066 10.6541 6.23623 10.6349 6.25333 10.6222C6.26189 10.6158 6.26832 10.6111 6.27248 10.608C6.27456 10.6064 6.27607 10.6053 6.277 10.6046C6.27746 10.6043 6.27778 10.6041 6.27794 10.6039C6.27803 10.6039 6.27807 10.6038 6.27808 10.6038C6.27809 10.6038 6.27806 10.6038 6.27807 10.6038C6.27803 10.6039 6.27799 10.6039 5.83323 10C5.38847 9.39611 5.38841 9.39615 5.38834 9.3962C5.38831 9.39623 5.38823 9.39629 5.38815 9.39634C5.38801 9.39644 5.38783 9.39658 5.38761 9.39674C5.38717 9.39706 5.38658 9.3975 5.38584 9.39805C5.38436 9.39914 5.38229 9.40067 5.37964 9.40263C5.37434 9.40656 5.36674 9.4122 5.35698 9.41948C5.33746 9.43402 5.30932 9.45509 5.27378 9.48193C5.20273 9.53559 5.10191 9.61251 4.98119 9.70672C4.74053 9.89453 4.41713 10.1539 4.09153 10.4366C3.76966 10.7161 3.42846 11.0331 3.16184 11.3348C3.02928 11.4849 2.89929 11.6488 2.79836 11.8162C2.70985 11.963 2.58325 12.2088 2.58325 12.5L4.08325 12.5ZM5.83325 15C6.27801 14.3961 6.27805 14.3961 6.27808 14.3962C6.27808 14.3962 6.2781 14.3962 6.2781 14.3962C6.27809 14.3962 6.27804 14.3961 6.27796 14.3961C6.27779 14.3959 6.27748 14.3957 6.27701 14.3954C6.27609 14.3947 6.27458 14.3936 6.2725 14.392C6.26834 14.3889 6.2619 14.3842 6.25335 14.3778C6.23624 14.365 6.21068 14.3459 6.17786 14.3211C6.11219 14.2715 6.0177 14.1994 5.90405 14.1108C5.67595 13.9328 5.37436 13.6907 5.07496 13.4307C4.77183 13.1675 4.48803 12.9007 4.28591 12.672C4.18409 12.5567 4.11878 12.4687 4.08298 12.4094C4.03478 12.3294 4.08325 12.3735 4.08325 12.5L2.58325 12.5C2.58325 12.7912 2.70985 13.037 2.79836 13.1838C2.89928 13.3512 3.02928 13.5151 3.16184 13.6652C3.42847 13.9669 3.76967 14.2839 4.09154 14.5634C4.41714 14.8461 4.74055 15.1055 4.98121 15.2933C5.10193 15.3875 5.20275 15.4644 5.2738 15.5181C5.30934 15.5449 5.33749 15.566 5.357 15.5805C5.36676 15.5878 5.37436 15.5934 5.37966 15.5974C5.38231 15.5993 5.38439 15.6009 5.38587 15.602C5.3866 15.6025 5.38719 15.6029 5.38763 15.6033C5.38785 15.6034 5.38803 15.6036 5.38818 15.6037C5.38825 15.6037 5.38833 15.6038 5.38837 15.6038C5.38843 15.6039 5.38849 15.6039 5.83325 15Z" fill="#4B5565"/>
</g>
</svg>
