<svg xmlns="http://www.w3.org/2000/svg" width="20" height="20" viewBox="0 0 20 20" fill="none">
  <path d="M6.7211 9.19347L2.40322 10.6861C0.363519 11.4484 3.11274 14.9645 4.0251 15.8721C4.93745 16.7798 8.61 19.6526 9.37618 17.6234L10.8287 13.28M2.69528 13.7416L4.94669 12.5934M6.36616 17.0813L7.41124 15.0454M14.1207 7.50201L17.9394 3.5504C19.0703 2.4254 17.5157 0.966949 16.4329 2.04431L12.4381 5.828M11.3574 6.04347L10.5222 6.87437C10.276 7.11936 10 7.3436 9.65675 7.40201L7.24722 7.81201C6.57432 7.92651 6.48674 8.6959 6.96946 9.17615L10.7511 13.1656C11.2339 13.6459 12.0602 13.3843 12.1753 12.7149L12.5874 10.3177C12.6461 9.97616 12.8099 9.66118 13.0562 9.41619L13.8913 8.58529C14.2199 8.25842 14.2199 7.72846 13.8913 7.40158L12.5879 6.10477C12.2593 5.7779 11.6859 5.7166 11.3574 6.04347Z" stroke="#E21B2E" stroke-width="1.5" stroke-linecap="round" stroke-linejoin="round"/>
</svg>