<svg xmlns="http://www.w3.org/2000/svg" width="20" height="20" viewBox="0 0 20 20" fill="none">
  <path d="M10.0001 17.9167C10.3978 17.2008 11.6497 14.6397 13.844 13.4039C14.4629 13.0552 14.7723 12.8809 14.8862 12.6861C15.0001 12.4913 15.0001 12.214 15.0001 11.6595V4.29288C15.0001 3.26635 15.0001 2.75308 14.5477 2.52056C14.0953 2.28804 13.7391 2.54305 13.0265 3.05306C11.3351 4.26371 10.3455 6.04496 10.0001 6.66666V17.9167ZM10.0001 17.9167C9.79425 17.9167 9.37373 17.7023 8.53273 17.2737C7.67795 16.8381 6.49702 16.4045 4.98388 16.1324C3.28646 15.8272 2.43774 15.6746 2.05225 15.2239C1.66675 14.7733 1.66675 14.0516 1.66675 12.6081V6.93444C1.66675 5.35572 1.66675 4.56637 2.2674 4.08027C2.86805 3.59417 3.57333 3.72099 4.98388 3.97464C7.76821 4.47532 9.42768 5.90335 10.0001 6.50462M10.0001 17.9167C10.2059 17.9167 10.6264 17.7023 11.4674 17.2737C12.3222 16.8381 13.5031 16.4045 15.0163 16.1324C16.7137 15.8272 17.5624 15.6746 17.9479 15.2239C18.3334 14.7733 18.3334 14.0516 18.3334 12.6081V6.93444C18.3334 5.35572 18.3334 4.56637 17.7328 4.08027C17.1321 3.59417 15.8334 3.97464 15.0001 4.58333" stroke="#4B5565" stroke-width="1.5" stroke-linecap="round" stroke-linejoin="round"/>
</svg>