<svg xmlns="http://www.w3.org/2000/svg" width="20" height="20" viewBox="0 0 20 20" fill="none">
  <path d="M2.51 5.49785C2.41007 6.3806 3.04862 8.49586 4.89739 8.54583M15.2409 8.49585C16.1403 8.54581 17.4894 7.49651 17.4894 5.49784M16.7396 17.4899C16.7896 16.3406 16.0401 14.5618 14.5911 14.5118M3.2511 17.4899C3.20002 16.3329 3.96612 14.5422 5.44724 14.4919M2.51017 11.4938H4.34793M17.4999 11.4938H15.6901M9.99425 11.4939V9.04548M13.7418 2.49983L12.2428 3.99884M6.24674 2.49983L7.74575 3.99884M5.79671 7.17673C7.14582 8.14608 10.4936 9.54515 14.1412 7.23669M5.89698 6.51715C7.24608 4.24866 11.0436 2.24999 14.0216 6.39723C16.2701 9.99484 14.9909 13.9922 13.6918 15.5412C12.3427 17.34 9.04489 18.8889 6.24675 15.4712C3.64848 11.5738 5.01739 7.99617 5.89698 6.51715Z" stroke="#4B5565" stroke-width="1.5" stroke-linecap="round"/>
</svg>

