<svg width="24" height="24" viewBox="0 0 24 24" fill="none" xmlns="http://www.w3.org/2000/svg">
<g id="calendar-02">
<path id="Accent" opacity="0.4" d="M21.5 12.7568V12.2432C21.5 10.5138 21.5 9.12764 21.4217 8H2.57828C2.5 9.12764 2.5 10.5138 2.5 12.2432V12.7568C2.5 17.1141 2.5 19.2927 3.75212 20.6464C5.00424 22 7.01949 22 11.05 22H12.95C16.9805 22 18.9958 22 20.2479 20.6464C21.5 19.2927 21.5 17.1141 21.5 12.7568Z" fill="white"/>
<path id="Icon" d="M11 12.25C10.5858 12.25 10.25 12.5858 10.25 13C10.25 13.4142 10.5858 13.75 11 13.75V12.25ZM16 13.75C16.4142 13.75 16.75 13.4142 16.75 13C16.75 12.5858 16.4142 12.25 16 12.25V13.75ZM8 12.25C7.58579 12.25 7.25 12.5858 7.25 13C7.25 13.4142 7.58579 13.75 8 13.75V12.25ZM8.00898 13.75C8.4232 13.75 8.75898 13.4142 8.75898 13C8.75898 12.5858 8.4232 12.25 8.00898 12.25V13.75ZM13 17.75C13.4142 17.75 13.75 17.4142 13.75 17C13.75 16.5858 13.4142 16.25 13 16.25V17.75ZM8 16.25C7.58579 16.25 7.25 16.5858 7.25 17C7.25 17.4142 7.58579 17.75 8 17.75V16.25ZM16 17.75C16.4142 17.75 16.75 17.4142 16.75 17C16.75 16.5858 16.4142 16.25 16 16.25V17.75ZM15.991 16.25C15.5768 16.25 15.241 16.5858 15.241 17C15.241 17.4142 15.5768 17.75 15.991 17.75V16.25ZM18.75 2C18.75 1.58579 18.4142 1.25 18 1.25C17.5858 1.25 17.25 1.58579 17.25 2H18.75ZM17.25 4C17.25 4.41421 17.5858 4.75 18 4.75C18.4142 4.75 18.75 4.41421 18.75 4H17.25ZM6.75 2C6.75 1.58579 6.41421 1.25 6 1.25C5.58579 1.25 5.25 1.58579 5.25 2H6.75ZM5.25 4C5.25 4.41421 5.58579 4.75 6 4.75C6.41421 4.75 6.75 4.41421 6.75 4H5.25ZM3 7.25C2.58579 7.25 2.25 7.58579 2.25 8C2.25 8.41421 2.58579 8.75 3 8.75V7.25ZM21 8.75C21.4142 8.75 21.75 8.41421 21.75 8C21.75 7.58579 21.4142 7.25 21 7.25V8.75ZM11 13.75H16V12.25H11V13.75ZM8 13.75H8.00898V12.25H8V13.75ZM13 16.25H8V17.75H13V16.25ZM16 16.25H15.991V17.75H16V16.25ZM17.25 2V4H18.75V2H17.25ZM5.25 2V4H6.75V2H5.25ZM11.05 3.75H12.95V2.25H11.05V3.75ZM20.75 12.2432V12.7568H22.25V12.2432H20.75ZM12.95 21.25H11.05V22.75H12.95V21.25ZM3.25 12.7568V12.2432H1.75V12.7568H3.25ZM11.05 21.25C9.01188 21.25 7.56476 21.2481 6.46704 21.0886C5.39728 20.9331 4.76921 20.6414 4.30269 20.1371L3.20154 21.1556C3.98714 22.0049 4.99276 22.3901 6.25129 22.573C7.48185 22.7519 9.05762 22.75 11.05 22.75V21.25ZM1.75 12.7568C1.75 14.9158 1.74863 16.6049 1.91225 17.9205C2.07785 19.2521 2.42363 20.3147 3.20154 21.1556L4.30269 20.1371C3.82849 19.6244 3.54821 18.9208 3.40078 17.7354C3.25137 16.5339 3.25 14.9551 3.25 12.7568H1.75ZM20.75 12.7568C20.75 14.9551 20.7486 16.5339 20.5992 17.7354C20.4518 18.9208 20.1715 19.6244 19.6973 20.1371L20.7985 21.1556C21.5764 20.3147 21.9222 19.2521 22.0878 17.9205C22.2514 16.6049 22.25 14.9158 22.25 12.7568H20.75ZM12.95 22.75C14.9424 22.75 16.5181 22.7519 17.7487 22.573C19.0072 22.3901 20.0129 22.0049 20.7985 21.1556L19.6973 20.1371C19.2308 20.6414 18.6027 20.9331 17.533 21.0886C16.4352 21.2481 14.9881 21.25 12.95 21.25V22.75ZM12.95 3.75C14.9881 3.75 16.4352 3.75186 17.533 3.91141C18.6027 4.06689 19.2308 4.35858 19.6973 4.86292L20.7985 3.84436C20.0129 2.99506 19.0072 2.60993 17.7487 2.427C16.5181 2.24814 14.9424 2.25 12.95 2.25V3.75ZM22.25 12.2432C22.25 10.0842 22.2514 8.39513 22.0878 7.07951C21.9222 5.74792 21.5764 4.68534 20.7985 3.84436L19.6973 4.86292C20.1715 5.37558 20.4518 6.07915 20.5992 7.26463C20.7486 8.46607 20.75 10.0449 20.75 12.2432H22.25ZM11.05 2.25C9.05762 2.25 7.48185 2.24814 6.25129 2.427C4.99276 2.60993 3.98714 2.99506 3.20154 3.84436L4.30269 4.86292C4.76921 4.35858 5.39728 4.06689 6.46704 3.91141C7.56476 3.75186 9.01188 3.75 11.05 3.75V2.25ZM3.25 12.2432C3.25 10.0449 3.25137 8.46607 3.40078 7.26463C3.54821 6.07915 3.82849 5.37558 4.30269 4.86292L3.20154 3.84436C2.42363 4.68534 2.07785 5.74792 1.91225 7.07951C1.74863 8.39513 1.75 10.0842 1.75 12.2432H3.25ZM3 8.75H21V7.25H3V8.75Z" fill="white"/>
</g>
</svg>
