<svg width="20" height="20" viewBox="0 0 20 20" fill="none" xmlns="http://www.w3.org/2000/svg">
<g id="column-insert">
<path id="Icon" d="M11.6667 8.74984H10.9167H11.6667ZM11.9476 6.57389L11.3239 6.15721L11.9476 6.57389ZM12.4074 6.11405L12.8241 6.73766L12.4074 6.11405ZM12.4074 18.0523L11.9907 18.6759L12.4074 18.0523ZM11.6667 15.4165H12.4167H11.6667ZM11.9476 17.5925L12.5712 17.1758L11.9476 17.5925ZM17.5 15.4165H18.25H17.5ZM17.2191 17.5925L17.8427 18.0091L17.2191 17.5925ZM16.7593 18.0523L16.3426 17.4287L16.7593 18.0523ZM17.5 8.74984H16.75H17.5ZM17.2191 6.57389L16.5955 6.99056L17.2191 6.57389ZM16.7593 6.11405L17.176 5.49045L16.7593 6.11405ZM2.5 8.74984H1.75H2.5ZM2.78088 6.57389L2.15728 6.15721L2.78088 6.57389ZM3.24072 6.11405L3.65739 6.73766L3.24072 6.11405ZM3.24072 18.0523L2.82404 18.6759H2.82404L3.24072 18.0523ZM2.5 15.4165H3.25H2.5ZM2.78088 17.5925L3.40449 17.1758L2.78088 17.5925ZM8.33333 15.4165H7.58333H8.33333ZM8.05245 17.5925L8.67605 18.0091L8.05245 17.5925ZM7.59262 18.0523L7.17594 17.4287L7.59262 18.0523ZM8.33333 8.74984H9.08333H8.33333ZM8.05245 6.57389L7.42885 6.99056L8.05245 6.57389ZM7.59262 6.11405L8.00929 5.49045L7.59262 6.11405ZM13.0213 2.2057C13.3191 1.91779 13.3271 1.44298 13.0392 1.14519C12.7513 0.847402 12.2765 0.839393 11.9787 1.12731L13.0213 2.2057ZM11.1785 2.94415L11.6998 3.48335V3.48335L11.1785 2.94415ZM8.82149 2.94415L9.3428 2.40495L8.82149 2.94415ZM8.02131 1.1273C7.72352 0.839393 7.24871 0.847402 6.9608 1.14519C6.67289 1.44298 6.6809 1.91779 6.97869 2.2057L8.02131 1.1273ZM16.75 8.74984V15.4165H18.25V8.74984H16.75ZM12.4167 15.4165V8.74984H10.9167V15.4165H12.4167ZM12.4167 8.74984C12.4167 8.14904 12.4176 7.75489 12.4479 7.45651C12.477 7.17067 12.5268 7.05698 12.5712 6.99056L11.3239 6.15721C11.0874 6.51117 10.9968 6.90026 10.9556 7.3047C10.9158 7.69661 10.9167 8.18025 10.9167 8.74984H12.4167ZM14.5833 5.08317C14.0138 5.08317 13.5301 5.08226 13.1382 5.12213C12.7338 5.16328 12.3447 5.25394 11.9907 5.49045L12.8241 6.73766C12.8905 6.69328 13.0042 6.64351 13.29 6.61443C13.5884 6.58408 13.9825 6.58317 14.5833 6.58317V5.08317ZM12.5712 6.99056C12.638 6.89047 12.724 6.80454 12.8241 6.73766L11.9907 5.49045C11.7268 5.66677 11.5003 5.89333 11.3239 6.15721L12.5712 6.99056ZM14.5833 17.5832C13.9825 17.5832 13.5884 17.5823 13.29 17.5519C13.0042 17.5228 12.8905 17.4731 12.8241 17.4287L11.9907 18.6759C12.3447 18.9124 12.7338 19.0031 13.1382 19.0442C13.5301 19.0841 14.0138 19.0832 14.5833 19.0832V17.5832ZM10.9167 15.4165C10.9167 15.9861 10.9158 16.4697 10.9556 16.8616C10.9968 17.2661 11.0874 17.6552 11.3239 18.0091L12.5712 17.1758C12.5268 17.1094 12.477 16.9957 12.4479 16.7098C12.4176 16.4115 12.4167 16.0173 12.4167 15.4165H10.9167ZM12.8241 17.4287C12.724 17.3618 12.638 17.2759 12.5712 17.1758L11.3239 18.0091C11.5003 18.273 11.7268 18.4996 11.9907 18.6759L12.8241 17.4287ZM16.75 15.4165C16.75 16.0173 16.7491 16.4115 16.7187 16.7098C16.6897 16.9957 16.6399 17.1094 16.5955 17.1758L17.8427 18.0091C18.0792 17.6552 18.1699 17.2661 18.211 16.8616C18.2509 16.4697 18.25 15.9861 18.25 15.4165H16.75ZM14.5833 19.0832C15.1529 19.0832 15.6366 19.0841 16.0285 19.0442C16.4329 19.0031 16.822 18.9124 17.176 18.6759L16.3426 17.4287C16.2762 17.4731 16.1625 17.5228 15.8767 17.5519C15.5783 17.5823 15.1841 17.5832 14.5833 17.5832V19.0832ZM16.5955 17.1758C16.5286 17.2759 16.4427 17.3618 16.3426 17.4287L17.176 18.6759C17.4398 18.4996 17.6664 18.273 17.8427 18.0091L16.5955 17.1758ZM18.25 8.74984C18.25 8.18025 18.2509 7.69661 18.211 7.3047C18.1699 6.90026 18.0792 6.51117 17.8427 6.15721L16.5955 6.99056C16.6399 7.05698 16.6897 7.17067 16.7187 7.45651C16.7491 7.75489 16.75 8.14904 16.75 8.74984H18.25ZM14.5833 6.58317C15.1841 6.58317 15.5783 6.58408 15.8767 6.61443C16.1625 6.64351 16.2762 6.69328 16.3426 6.73766L17.176 5.49045C16.822 5.25394 16.4329 5.16328 16.0285 5.12213C15.6366 5.08226 15.1529 5.08317 14.5833 5.08317V6.58317ZM17.8427 6.15721C17.6664 5.89333 17.4398 5.66677 17.176 5.49045L16.3426 6.73766C16.4427 6.80453 16.5286 6.89047 16.5955 6.99056L17.8427 6.15721ZM7.58333 8.74984L7.58333 15.4165H9.08333L9.08333 8.74984H7.58333ZM3.25 15.4165L3.25 8.74984H1.75L1.75 15.4165H3.25ZM3.25 8.74984C3.25 8.14904 3.25091 7.75489 3.28126 7.45651C3.31034 7.17067 3.36011 7.05698 3.40449 6.99056L2.15728 6.15721C1.92077 6.51117 1.8301 6.90026 1.78896 7.3047C1.74909 7.69661 1.75 8.18025 1.75 8.74984H3.25ZM5.41667 5.08317C4.84708 5.08317 4.36344 5.08226 3.97153 5.12213C3.56709 5.16328 3.178 5.25394 2.82404 5.49045L3.65739 6.73766C3.72381 6.69328 3.8375 6.64351 4.12334 6.61443C4.42172 6.58408 4.81587 6.58317 5.41667 6.58317V5.08317ZM3.40449 6.99056C3.47137 6.89047 3.5573 6.80454 3.65739 6.73766L2.82404 5.49045C2.56016 5.66677 2.3336 5.89333 2.15728 6.15721L3.40449 6.99056ZM5.41667 17.5832C4.81586 17.5832 4.42172 17.5823 4.12334 17.5519C3.8375 17.5228 3.72381 17.4731 3.65739 17.4287L2.82404 18.6759C3.178 18.9124 3.56709 19.0031 3.97153 19.0442C4.36344 19.0841 4.84708 19.0832 5.41667 19.0832L5.41667 17.5832ZM1.75 15.4165C1.75 15.9861 1.74909 16.4697 1.78896 16.8616C1.8301 17.2661 1.92077 17.6552 2.15728 18.0091L3.40449 17.1758C3.36011 17.1094 3.31034 16.9957 3.28126 16.7098C3.25091 16.4115 3.25 16.0173 3.25 15.4165H1.75ZM3.65739 17.4287C3.5573 17.3618 3.47136 17.2759 3.40449 17.1758L2.15728 18.0091C2.3336 18.273 2.56016 18.4996 2.82404 18.6759L3.65739 17.4287ZM7.58333 15.4165C7.58333 16.0173 7.58243 16.4115 7.55207 16.7098C7.523 16.9957 7.47322 17.1094 7.42885 17.1758L8.67605 18.0091C8.91256 17.6552 9.00323 17.2661 9.04437 16.8616C9.08424 16.4697 9.08333 15.9861 9.08333 15.4165H7.58333ZM5.41667 19.0832C5.98625 19.0832 6.46989 19.0841 6.8618 19.0442C7.26624 19.0031 7.65534 18.9124 8.00929 18.6759L7.17594 17.4287C7.10953 17.4731 6.99583 17.5228 6.70999 17.5519C6.41162 17.5823 6.01747 17.5832 5.41667 17.5832L5.41667 19.0832ZM7.42885 17.1758C7.36197 17.2759 7.27603 17.3618 7.17594 17.4287L8.00929 18.6759C8.27317 18.4996 8.49973 18.273 8.67605 18.0091L7.42885 17.1758ZM9.08333 8.74984C9.08333 8.18025 9.08424 7.69661 9.04437 7.3047C9.00323 6.90026 8.91256 6.51117 8.67605 6.15721L7.42885 6.99056C7.47322 7.05698 7.523 7.17067 7.55207 7.45651C7.58243 7.75489 7.58333 8.14904 7.58333 8.74984H9.08333ZM5.41667 6.58317C6.01747 6.58317 6.41162 6.58408 6.70999 6.61443C6.99583 6.64351 7.10953 6.69328 7.17594 6.73766L8.00929 5.49045C7.65534 5.25394 7.26624 5.16328 6.8618 5.12213C6.46989 5.08226 5.98625 5.08317 5.41667 5.08317V6.58317ZM8.67605 6.15721C8.49974 5.89333 8.27317 5.66677 8.00929 5.49045L7.17594 6.73766C7.27603 6.80454 7.36197 6.89047 7.42885 6.99056L8.67605 6.15721ZM11.9787 1.12731L10.6572 2.40495L11.6998 3.48335L13.0213 2.2057L11.9787 1.12731ZM9.3428 2.40495L8.02131 1.1273L6.97869 2.2057L8.30018 3.48335L9.3428 2.40495ZM10.6572 2.40495C10.3644 2.68807 10.1974 2.84726 10.0651 2.94486C9.95112 3.02897 9.95033 2.99984 10 2.99984V4.49984C10.3948 4.49984 10.7055 4.33642 10.9556 4.15197C11.1874 3.981 11.4371 3.73735 11.6998 3.48335L10.6572 2.40495ZM8.30018 3.48335C8.5629 3.73735 8.81265 3.981 9.04442 4.15197C9.29446 4.33642 9.60516 4.49984 10 4.49984V2.99984C10.0497 2.99984 10.0489 3.02897 9.93486 2.94486C9.80255 2.84726 9.63564 2.68807 9.3428 2.40495L8.30018 3.48335Z" fill="#4B5565"/>
</g>
</svg>
