<svg width="20" height="20" viewBox="0 0 20 20" fill="none" xmlns="http://www.w3.org/2000/svg">
<path d="M15.5611 3.2445C13.9984 1.9581 12.0381 1.25325 10.014 1.25001C8.86379 1.24817 7.7245 1.47313 6.66131 1.91201C5.59812 2.35089 4.63189 2.99509 3.8179 3.80775C2.3855 5.23781 1.49318 7.12023 1.29294 9.13437C1.0927 11.1485 1.59692 13.1698 2.71973 14.8539C3.84253 16.538 5.51446 17.7807 7.45072 18.3704C9.38697 18.9601 11.4678 18.8603 13.3387 18.088C15.2096 17.3157 16.755 15.9186 17.7114 14.1348C18.6679 12.351 18.9764 10.2907 18.5843 8.30501C18.1922 6.31929 17.1238 4.5309 15.5611 3.2445Z" fill="#FF0033" stroke="white" stroke-width="1.5"/>
<path fill-rule="evenodd" clip-rule="evenodd" d="M10.7154 11.3993V9.89232L12.6269 9.90482C12.8186 9.90609 13.0079 9.94717 13.1829 10.0254C13.3579 10.1037 13.5147 10.2175 13.6434 10.3595C13.7721 10.5016 13.8699 10.6688 13.9306 10.8507C13.9913 11.0325 14.0135 11.2249 13.9959 11.4158C13.9959 13.5423 10.7209 13.9978 10.7179 11.3993M10.7179 7.40282C14.2444 5.55282 14.5554 9.61733 12.4259 9.42333H10.7089L10.7179 7.40282ZM13.7909 9.60932C16.3189 8.64132 14.2059 4.87182 10.0684 7.20382C9.64363 6.85735 9.13753 6.62488 8.59793 6.52832C7.57593 6.32082 6.20493 6.50132 5.43593 7.21932L5.80743 7.58382C6.20561 7.24072 6.69311 7.01784 7.2131 6.94118C7.7331 6.86452 8.26417 6.93723 8.74443 7.15082C8.90578 7.22697 9.04796 7.33839 9.16046 7.47686C9.27297 7.61533 9.35293 7.77731 9.39443 7.95083L9.41293 11.4138C9.26293 13.8193 6.16293 13.6333 6.16293 11.4138V9.89483H8.59943V9.43633H4.87793V10.9318C4.88743 13.7743 8.34493 14.2523 10.0574 12.8693C10.7578 13.3886 11.6148 13.6522 12.4859 13.6163C15.5554 13.5953 16.1859 10.2853 13.7819 9.61182L13.7909 9.60932Z" fill="white"/>
</svg>
