<svg xmlns="http://www.w3.org/2000/svg" width="20" height="20" viewBox="0 0 20 20" fill="none">
  <path d="M7.27547 17.9159C8.35225 16.0633 10.8183 15.8449 12.2228 17.2605C12.5368 17.577 12.6938 17.7353 12.8331 17.7542C12.9723 17.7732 13.846 17.2721 14.1562 17.0942C14.4724 16.913 15.349 16.4102 15.4041 16.2786C15.4592 16.1471 15.4015 15.9228 15.2862 15.4743C14.8667 13.8434 15.8839 12.127 17.5092 11.6843C17.9442 11.5659 18.1616 11.5066 18.2475 11.3933C18.3334 11.2801 18.3334 10.284 18.3334 9.91967C18.3334 9.55529 18.3334 8.55924 18.2475 8.44595C18.1616 8.33274 17.9442 8.27348 17.5092 8.15505C15.8837 7.71233 14.8656 5.99596 15.2849 4.36497C15.4002 3.91639 15.4578 3.6921 15.4027 3.56058C15.3477 3.42907 14.471 2.92631 14.155 2.74504C13.8447 2.56715 12.971 2.06609 12.8318 2.08503C12.6926 2.10397 12.5356 2.26222 12.2215 2.57871C11.0054 3.80406 8.99341 3.80411 7.77738 2.57879C7.46329 2.2623 7.30624 2.10405 7.16704 2.08511C7.02783 2.06617 6.15411 2.56725 5.84391 2.74514C5.52781 2.92642 4.65113 3.42916 4.59605 3.5607C4.54097 3.69223 4.59866 3.91649 4.71401 4.36503C5.13348 5.99597 4.11625 7.7123 2.49093 8.15503C2.05601 8.27348 1.83854 8.33274 1.75265 8.44603C1.66675 8.55924 1.66675 9.55529 1.66675 9.91967C1.66675 10.284 1.66675 11.2801 1.75265 11.3934C1.83856 11.5067 2.05591 11.5659 2.49063 11.6842C2.49573 11.6856 2.50082 11.6871 2.50591 11.6884M6.33417 10.8738C6.03417 11.2237 2.97417 14.2524 2.07417 15.152C0.824173 16.6514 2.69417 18.7506 4.39417 17.4011L6.44417 15.352C7.59417 14.2024 8.54417 13.2028 8.72417 13.1129C8.94417 12.953 9.64417 13.0429 10.4942 12.9929C11.3942 12.953 12.3942 12.903 12.9942 12.0033C13.2942 11.6035 13.3316 10.8141 13.3302 10.1041C13.3291 9.55616 13.3249 9.02483 13.3342 8.65472C13.3442 8.25489 13.3342 8.24331 13.2442 8.15493C13.1396 8.02885 12.9242 8.02498 12.8342 8.10495C12.7142 8.20491 11.4889 9.43969 11.2242 9.70429C10.5242 10.404 9.24417 9.75427 9.56917 8.65473C9.61417 8.40483 10.0842 8.00499 10.8842 7.20532C11.2442 6.80548 11.5442 6.65555 11.4442 6.40565C11.3042 6.05579 11.1442 6.20573 9.79417 6.17075C8.24417 6.20573 7.79417 6.20573 7.24418 6.72552C6.78254 7.14347 6.62121 7.70511 6.54717 8.4548C6.39417 10.0042 6.65132 10.504 6.33417 10.8738Z" stroke="#4B5565" stroke-width="1.5" stroke-linecap="round"/>
</svg>