<svg xmlns="http://www.w3.org/2000/svg" width="20" height="20" viewBox="0 0 20 20" fill="none">
    <path d="M14.1666 7.50001C14.1646 5.03576 14.1273 3.75935 13.41 2.88536C13.2715 2.71658 13.1168 2.56182 12.948 2.4233C12.026 1.66667 10.6562 1.66667 7.91667 1.66667C5.1771 1.66667 3.80732 1.66667 2.88536 2.4233C2.71658 2.56182 2.56181 2.71658 2.4233 2.88536C1.66667 3.80732 1.66667 5.1771 1.66667 7.91667C1.66667 10.6562 1.66667 12.026 2.4233 12.948C2.56181 13.1168 2.71658 13.2715 2.88536 13.41C3.75934 14.1273 5.03576 14.1646 7.5 14.1666M12.5 18.3333H13.3333C15.6904 18.3333 16.8689 18.3333 17.6011 17.6011C18.3333 16.8689 18.3333 15.6904 18.3333 13.3333V12.5C18.3333 10.143 18.3333 8.96447 17.6011 8.23224C16.8689 7.50001 15.6904 7.50001 13.3333 7.50001H12.5C10.143 7.50001 8.96447 7.50001 8.23224 8.23224C7.5 8.96447 7.5 10.143 7.5 12.5V13.3333C7.5 15.6904 7.5 16.8689 8.23223 17.6011C8.96447 18.3333 10.143 18.3333 12.5 18.3333Z" stroke="#4B5565" stroke-width="1.5" stroke-linecap="round" stroke-linejoin="round"/>
</svg>