<svg xmlns="http://www.w3.org/2000/svg" width="16" height="16" viewBox="0 0 16 16" fill="none">
  <!-- Group for the Blue Background -->
  <g id="blue-background">
    <path d="M16 8C16 12.4183 12.4183 16 8 16C3.58175 16 0 12.4183 0 8C0 8.00187 8 0.00090625 8 0C12.4183 0 16 3.58175 16 8Z" fill="#0052B4"/>
  </g>

  <!-- Group for the White Part of the Union Jack -->
  <g id="union-jack-white">
    <path d="M7.97852 8.00026H7.99996C7.99996 7.993 7.99996 7.98605 7.99996 7.97882C7.99283 7.98599 7.98569 7.99313 7.97852 8.00026Z" fill="#F0F0F0"/>
    <path d="M7.99981 4.17442C7.99981 2.76677 7.99981 1.84436 7.99981 0.000518799H7.99847C3.58081 0.00123755 -0.000183105 3.58264 -0.000183105 8.00049H4.17372V5.65011L6.52409 8.00049H7.97844C7.98559 7.99336 7.99272 7.98624 7.99984 7.97908C7.99984 7.44011 7.99984 6.95921 7.99984 6.52483L5.64944 4.17442H7.99981Z" fill="#F0F0F0"/>
  </g>

  <!-- Group for the Red Part of the Union Jack (placed after the white part to layer on top) -->
  <g id="union-jack-red">
    <path d="M3.04739 0.0437927C1.79617 0.756262 0.755987 1.79645 0.0435181 3.04767V7.00033H2.13049V2.13079V2.13076H7.00005C7.00005 1.47254 7.00005 0.84548 7.00005 0.0437927H3.04739V0.0437927Z" fill="#D80027"/>
    <path d="M7.00025 6.01658L4.15797 3.17433H3.17419C3.17419 3.1743 3.17419 3.17433 3.17419 3.17433L7.00022 7.00036H7.00025C7.00025 7.00036 7.00025 6.32208 7.00025 6.01658Z" fill="#D80027"/>
  </g>

  <!-- Group for the Stars on the Flag -->
  <g id="stars">
    <path d="M1.82504 6.39098L2.26411 7.30904L3.25557 7.07988L2.81157 7.99557L3.60889 8.62785L2.61617 8.8516L2.61895 9.86923L1.82504 9.23257L1.03117 9.86923L1.03395 8.8516L0.0411987 8.62785L0.838543 7.99557L0.39448 7.07988L1.38601 7.30904L1.82504 6.39098Z" fill="#F0F0F0"/>
    <path d="M8.97802 8.13025L9.19756 8.58928L9.69331 8.47469L9.47127 8.93253L9.86996 9.24869L9.37359 9.36056L9.37496 9.86937L8.97802 9.55103L8.58109 9.86937L8.58246 9.36056L8.08612 9.24869L8.48478 8.93253L8.26278 8.47469L8.75849 8.58928L8.97802 8.13025Z" fill="#F0F0F0"/>
    <path d="M6.93558 3.26094L7.15508 3.72L7.65082 3.60538L7.42883 4.06322L7.82748 4.37938L7.33114 4.49125L7.33248 5.00007L6.93558 4.68172L6.53864 5.00007L6.53998 4.49125L6.04364 4.37938L6.4423 4.06322L6.2203 3.60538L6.71604 3.72L6.93558 3.26094Z" fill="#F0F0F0"/>
    <path d="M8.97802 0.478409L9.19756 0.937472L9.69331 0.822878L9.47131 1.28072L9.86993 1.59685L9.37359 1.70875L9.37496 2.21757L8.97802 1.89922L8.58109 2.21757L8.58246 1.70875L8.08612 1.59685L8.48474 1.28072L8.26278 0.822878L8.75849 0.937472L8.97802 0.478409Z" fill="#F0F0F0"/>
    <path d="M10.7614 2.56519L10.9809 3.02425L11.4767 2.90962L11.2547 3.36747L11.6533 3.68362L11.157 3.79553L11.1583 4.30431L10.7614 3.986L10.3645 4.30431L10.3659 3.79553L9.86951 3.68362L10.2682 3.36747L10.0462 2.90962L10.5419 3.02425L10.7614 2.56519Z" fill="#F0F0F0"/>
    <path d="M9.48617 5.00023L9.65883 5.53167H10.2176L9.76554 5.86014L9.93826 6.39154L9.48617 6.0631L9.03411 6.39154L9.20676 5.86014L8.7547 5.53167H9.31348L9.48617 5.00023Z" fill="#F0F0F0"/>
  </g>
</svg>

