<svg width="24" height="24" viewBox="0 0 24 24" fill="none" xmlns="http://www.w3.org/2000/svg">
<g id="database-sync">
<path id="Accent" opacity="0.4" fill-rule="evenodd" clip-rule="evenodd" d="M3.39124 3.39124C2 4.78249 2 7.02166 2 11.5C2 15.9783 2 18.2175 3.39124 19.6088C4.78248 21 7.02165 21 11.5 21C12.8534 21 14.0024 21 14.9852 20.9616C14.772 20.7478 14.5879 20.5082 14.4371 20.2496C13.8416 19.2283 13.9996 18.0626 14.0841 17.5944C14.5892 15.7277 16.5272 14.6199 18.4125 15.1201C19.3776 15.3761 20.1419 16.0039 20.5903 16.806C20.6404 16.8902 20.6989 17.0108 20.7556 17.1618C21 15.8139 21 14.0082 21 11.5C21 7.02168 21 4.78248 19.6088 3.39124C18.2175 2 15.9783 2 11.5 2C7.02166 2 4.78249 2 3.39124 3.39124ZM9 6.5C9 7.19036 8.44036 7.75 7.75 7.75C7.05964 7.75 6.5 7.19036 6.5 6.5C6.5 5.80964 7.05964 5.25 7.75 5.25C8.44036 5.25 9 5.80964 9 6.5ZM7.75 17.75C8.44036 17.75 9 17.1904 9 16.5C9 15.8096 8.44036 15.25 7.75 15.25C7.05964 15.25 6.5 15.8096 6.5 16.5C6.5 17.1904 7.05964 17.75 7.75 17.75Z" fill="white"/>
<path id="Icon" d="M14.0226 17.5944L13.6458 18.2428C13.8469 18.3597 14.0908 18.3766 14.3062 18.2887C14.5215 18.2008 14.6839 18.0179 14.7457 17.7937L14.0226 17.5944ZM18.4317 15.1201L18.6207 14.3943L18.4317 15.1201ZM20.9773 19.4056L21.3542 18.7572C21.1531 18.6403 20.9091 18.6234 20.6938 18.7113C20.4785 18.7992 20.3161 18.9821 20.2543 19.2063L20.9773 19.4056ZM16.5682 21.8799L16.3792 22.6057L16.5682 21.8799ZM13.3767 16.3515C13.0186 16.1434 12.5595 16.265 12.3514 16.6232C12.1433 16.9813 12.2649 17.4403 12.623 17.6485L13.3767 16.3515ZM21.623 20.6484C21.9811 20.8566 22.4401 20.735 22.6483 20.3769C22.8564 20.0188 22.7349 19.5597 22.3768 19.3516L21.623 20.6484ZM19.9982 17.1771C20.2032 17.5371 20.6611 17.6627 21.0211 17.4578C21.381 17.2528 21.5067 16.7949 21.3018 16.4349L19.9982 17.1771ZM15.0271 19.8665C14.8156 19.5104 14.3554 19.3932 13.9993 19.6047C13.6431 19.8163 13.5259 20.2764 13.7374 20.6326L15.0271 19.8665ZM3.39124 19.6088L3.92157 19.0784L3.39124 19.6088ZM19.6088 3.39124L19.0784 3.92157L19.6088 3.39124ZM10 20.9977L9.99631 21.7477H10V20.9977ZM20.25 13C20.25 13.4142 20.5858 13.75 21 13.75C21.4142 13.75 21.75 13.4142 21.75 13H20.25ZM11 21.7477C11.4142 21.7477 11.75 21.4119 11.75 20.9977C11.75 20.5835 11.4142 20.2477 11 20.2477V21.7477ZM12.5 5.75C12.0858 5.75 11.75 6.08579 11.75 6.5C11.75 6.91421 12.0858 7.25 12.5 7.25V5.75ZM16.5 7.25C16.9142 7.25 17.25 6.91421 17.25 6.5C17.25 6.08579 16.9142 5.75 16.5 5.75V7.25ZM14.7457 17.7937C15.1468 16.3386 16.7025 15.4447 18.2427 15.8459L18.6207 14.3943C16.32 13.7951 13.9277 15.1167 13.2996 17.395L14.7457 17.7937ZM20.2543 19.2063C19.8532 20.6614 18.2975 21.5553 16.7572 21.1541L16.3792 22.6057C18.6799 23.2049 21.0723 21.8833 21.7003 19.605L20.2543 19.2063ZM14.3995 16.9459L13.3767 16.3515L12.623 17.6485L13.6458 18.2428L14.3995 16.9459ZM20.6004 20.0541L21.623 20.6484L22.3768 19.3516L21.3542 18.7572L20.6004 20.0541ZM18.2427 15.8459C19.0264 16.05 19.6397 16.5475 19.9982 17.1771L21.3018 16.4349C20.7468 15.4603 19.8032 14.7023 18.6207 14.3943L18.2427 15.8459ZM16.7572 21.1541C15.9917 20.9547 15.3888 20.4754 15.0271 19.8665L13.7374 20.6326C14.2971 21.5747 15.2242 22.3049 16.3792 22.6057L16.7572 21.1541ZM1.25 11.5C1.25 13.718 1.24841 15.4569 1.43059 16.812C1.61568 18.1886 2.00271 19.2809 2.86091 20.1391L3.92157 19.0784C3.38853 18.5454 3.07994 17.8224 2.91722 16.6121C2.75159 15.3802 2.75 13.7604 2.75 11.5H1.25ZM11.5 2.75C13.7604 2.75 15.3802 2.75159 16.6121 2.91722C17.8224 3.07994 18.5454 3.38853 19.0784 3.92157L20.1391 2.86091C19.2809 2.00271 18.1886 1.61568 16.812 1.43059C15.4569 1.24841 13.718 1.25 11.5 1.25V2.75ZM21.75 11.5C21.75 9.28204 21.7516 7.54311 21.5694 6.18803C21.3843 4.81137 20.9973 3.71911 20.1391 2.86091L19.0784 3.92157C19.6115 4.45462 19.9201 5.17757 20.0828 6.3879C20.2484 7.6198 20.25 9.23963 20.25 11.5H21.75ZM11.5 1.25C9.28203 1.25 7.54311 1.24841 6.18802 1.43059C4.81137 1.61568 3.71911 2.00271 2.86091 2.86091L3.92157 3.92157C4.45462 3.38853 5.17757 3.07994 6.38789 2.91722C7.61979 2.75159 9.23963 2.75 11.5 2.75V1.25ZM2.75 11.5C2.75 9.23963 2.75159 7.61979 2.91722 6.38789C3.07994 5.17757 3.38853 4.45462 3.92157 3.92157L2.86091 2.86091C2.00271 3.71911 1.61568 4.81137 1.43059 6.18802C1.24841 7.54311 1.25 9.28203 1.25 11.5H2.75ZM10.0037 20.2477C8.24828 20.239 6.96561 20.1971 5.97741 20.0186C5.01076 19.844 4.39279 19.5496 3.92157 19.0784L2.86091 20.1391C3.61608 20.8943 4.55394 21.2858 5.71079 21.4947C6.8461 21.6998 8.25461 21.7391 9.99631 21.7477L10.0037 20.2477ZM20.25 11.5V13H21.75V11.5H20.25ZM10 21.7477H11V20.2477H10V21.7477ZM2 12.25H21V10.75H2V12.25ZM12.5 7.25L16.5 7.25V5.75L12.5 5.75V7.25ZM8.25 6.5C8.25 6.77614 8.02614 7 7.75 7V8.5C8.85457 8.5 9.75 7.60457 9.75 6.5H8.25ZM7.75 7C7.47386 7 7.25 6.77614 7.25 6.5H5.75C5.75 7.60457 6.64543 8.5 7.75 8.5V7ZM7.25 6.5C7.25 6.22386 7.47386 6 7.75 6V4.5C6.64543 4.5 5.75 5.39543 5.75 6.5H7.25ZM7.75 6C8.02614 6 8.25 6.22386 8.25 6.5H9.75C9.75 5.39543 8.85457 4.5 7.75 4.5V6ZM8.25 16.5C8.25 16.7761 8.02614 17 7.75 17V18.5C8.85457 18.5 9.75 17.6046 9.75 16.5H8.25ZM7.75 17C7.47386 17 7.25 16.7761 7.25 16.5H5.75C5.75 17.6046 6.64543 18.5 7.75 18.5V17ZM7.25 16.5C7.25 16.2239 7.47386 16 7.75 16V14.5C6.64543 14.5 5.75 15.3954 5.75 16.5H7.25ZM7.75 16C8.02614 16 8.25 16.2239 8.25 16.5H9.75C9.75 15.3954 8.85457 14.5 7.75 14.5V16Z" fill="white"/>
</g>
</svg>
