<svg width="20" height="20" viewBox="0 0 20 20" fill="none" xmlns="http://www.w3.org/2000/svg">
<path d="M15.7336 12.9376L14.985 12.8913L14.985 12.8913L15.7336 12.9376ZM16.9986 4.62961C17.0241 4.21619 16.7097 3.86032 16.2963 3.83477C15.8829 3.80921 15.527 4.12364 15.5014 4.53706L16.9986 4.62961ZM4.49864 4.53814C4.47368 4.12468 4.11827 3.80974 3.70481 3.8347C3.29134 3.85966 2.9764 4.21507 3.00136 4.62853L4.49864 4.53814ZM4.25384 12.9293L5.00248 12.8841L4.25384 12.9293ZM15.0006 16.9066L15.6158 17.3355L15.6158 17.3355L15.0006 16.9066ZM14.0006 17.8467L13.6104 17.2062L13.6104 17.2062L14.0006 17.8467ZM4.98224 16.904L5.59784 16.4756L5.59784 16.4756L4.98224 16.904ZM5.98254 17.8458L6.37308 17.2055L6.37308 17.2055L5.98254 17.8458ZM2.5 3.83334C2.08579 3.83334 1.75 4.16912 1.75 4.58334C1.75 4.99755 2.08579 5.33334 2.5 5.33334V3.83334ZM17.5 5.33334C17.9142 5.33334 18.25 4.99755 18.25 4.58334C18.25 4.16912 17.9142 3.83334 17.5 3.83334V5.33334ZM12.8109 3.40978L12.136 3.73693L12.136 3.73693L12.8109 3.40978ZM7.2155 3.47605L7.89795 3.78713L7.89795 3.78713L7.2155 3.47605ZM8.09774 2.01098L8.55425 2.60604L8.55426 2.60604L8.09774 2.01098ZM8.32974 1.86177L7.97762 1.19957L7.97762 1.19957L8.32974 1.86177ZM11.9181 1.99734L12.3665 1.39615L12.3665 1.39614L11.9181 1.99734ZM11.6892 1.85392L11.3438 2.51966L11.3438 2.51966L11.6892 1.85392ZM7.16667 13.75C7.16667 14.1642 7.50245 14.5 7.91667 14.5C8.33088 14.5 8.66667 14.1642 8.66667 13.75L7.16667 13.75ZM8.66667 8.75001C8.66667 8.33579 8.33088 8.00001 7.91667 8.00001C7.50245 8.00001 7.16667 8.33579 7.16667 8.75001L8.66667 8.75001ZM11.3333 13.75C11.3333 14.1642 11.6691 14.5 12.0833 14.5C12.4975 14.5 12.8333 14.1642 12.8333 13.75H11.3333ZM12.8333 8.75001C12.8333 8.33579 12.4975 8.00001 12.0833 8.00001C11.6691 8.00001 11.3333 8.33579 11.3333 8.75001H12.8333ZM16.4821 12.9839L16.9986 4.62961L15.5014 4.53706L14.985 12.8913L16.4821 12.9839ZM3.00136 4.62853L3.5052 12.9745L5.00248 12.8841L4.49864 4.53814L3.00136 4.62853ZM14.985 12.8913C14.9181 13.9731 14.8704 14.7315 14.7775 15.3173C14.6865 15.891 14.5619 16.2245 14.3854 16.4776L15.6158 17.3355C15.9743 16.8214 16.1503 16.2376 16.259 15.5523C16.3658 14.879 16.4171 14.0365 16.4821 12.9839L14.985 12.8913ZM9.99395 19.0833C11.0486 19.0833 11.8927 19.0841 12.5712 19.0191C13.2619 18.9529 13.8555 18.8133 14.3908 18.4872L13.6104 17.2062C13.3468 17.3667 13.0064 17.4705 12.4281 17.5259C11.8377 17.5825 11.0778 17.5833 9.99395 17.5833V19.0833ZM14.3854 16.4776C14.1804 16.7716 13.9165 17.0197 13.6104 17.2062L14.3908 18.4872C14.8746 18.1924 15.2918 17.8002 15.6158 17.3355L14.3854 16.4776ZM3.5052 12.9745C3.56884 14.0287 3.61897 14.8723 3.72496 15.5465C3.83285 16.2327 4.00823 16.8174 4.36663 17.3325L5.59784 16.4756C5.42141 16.2221 5.2971 15.8882 5.20676 15.3135C5.11453 14.7269 5.06787 13.9674 5.00248 12.8841L3.5052 12.9745ZM9.99395 17.5833C8.90869 17.5833 8.14778 17.5825 7.55663 17.5258C6.97761 17.4703 6.63677 17.3663 6.37308 17.2055L5.59201 18.4861C6.12769 18.8128 6.72189 18.9526 7.41338 19.019C8.09275 19.0841 8.93787 19.0833 9.99395 19.0833V17.5833ZM4.36663 17.3324C4.69056 17.7979 5.10788 18.1908 5.59201 18.4861L6.37308 17.2055C6.06679 17.0187 5.80277 16.7701 5.59784 16.4756L4.36663 17.3324ZM2.5 5.33334H6.71077V3.83334H2.5V5.33334ZM6.71077 5.33334H13.3798V3.83334H6.71077V5.33334ZM13.3798 5.33334H17.5V3.83334H13.3798V5.33334ZM12.136 3.73693L12.7049 4.9105L14.0547 4.25618L13.4858 3.08262L12.136 3.73693ZM6.53306 3.16497L6.02833 4.27226L7.39321 4.89442L7.89795 3.78713L6.53306 3.16497ZM7.89795 3.78713C8.08771 3.37083 8.21004 3.10419 8.32254 2.90701C8.42799 2.7222 8.49708 2.6499 8.55425 2.60604L7.64123 1.41592C7.3687 1.625 7.18085 1.8812 7.01968 2.16367C6.86558 2.43376 6.71165 2.77319 6.53306 3.16497L7.89795 3.78713ZM10.0288 0.916672C9.59821 0.916672 9.2255 0.915955 8.91582 0.944148C8.59195 0.973632 8.28091 1.0383 7.97762 1.19957L8.68185 2.52398C8.74548 2.49014 8.83992 2.45726 9.05181 2.43797C9.2779 2.41739 9.57126 2.41667 10.0288 2.41667V0.916672ZM8.55426 2.60604C8.59444 2.57521 8.63712 2.54776 8.68185 2.52398L7.97762 1.19957C7.85971 1.26226 7.74719 1.33463 7.64123 1.41592L8.55426 2.60604ZM13.4858 3.08262C13.3026 2.70473 13.1445 2.37704 12.9881 2.11641C12.8244 1.84376 12.6358 1.59697 12.3665 1.39615L11.4697 2.59854C11.5264 2.64081 11.5952 2.71047 11.7019 2.88837C11.8159 3.07829 11.9413 3.33527 12.136 3.73693L13.4858 3.08262ZM10.0288 2.41667C10.4751 2.41667 10.7611 2.41736 10.9817 2.4371C11.1884 2.45558 11.281 2.4871 11.3438 2.51966L12.0346 1.18819C11.7364 1.03349 11.4321 0.971389 11.1153 0.94306C10.8126 0.915981 10.4487 0.916672 10.0288 0.916672V2.41667ZM12.3665 1.39614C12.2617 1.31796 12.1507 1.24841 12.0346 1.18819L11.3438 2.51966C11.3878 2.5425 11.4299 2.56888 11.4697 2.59854L12.3665 1.39614ZM8.66667 13.75L8.66667 8.75001L7.16667 8.75001L7.16667 13.75L8.66667 13.75ZM12.8333 13.75V8.75001H11.3333V13.75H12.8333Z" fill="#4B5565"/>
</svg>
