<svg width="20" height="20" viewBox="0 0 20 20" fill="none" xmlns="http://www.w3.org/2000/svg">
<path d="M0.5 8C0.5 6.10025 0.501062 4.72573 0.641988 3.67754C0.78098 2.64373 1.04772 2.00253 1.52513 1.52513C2.00253 1.04772 2.64373 0.78098 3.67754 0.641988C4.72573 0.501062 6.10025 0.5 8 0.5H12C13.8998 0.5 15.2743 0.501062 16.3225 0.641988C17.3563 0.78098 17.9975 1.04772 18.4749 1.52513C18.9523 2.00253 19.219 2.64373 19.358 3.67754C19.4989 4.72573 19.5 6.10025 19.5 8V12C19.5 13.8998 19.4989 15.2743 19.358 16.3225C19.219 17.3563 18.9523 17.9975 18.4749 18.4749C17.9975 18.9523 17.3563 19.219 16.3225 19.358C15.2743 19.4989 13.8998 19.5 12 19.5H8C6.10025 19.5 4.72573 19.4989 3.67754 19.358C2.64373 19.219 2.00253 18.9523 1.52513 18.4749C1.04772 17.9975 0.78098 17.3563 0.641988 16.3225C0.501062 15.2743 0.5 13.8998 0.5 12V8Z" fill="#9AA4B2"/>
<path d="M0.5 8C0.5 6.10025 0.501062 4.72573 0.641988 3.67754C0.78098 2.64373 1.04772 2.00253 1.52513 1.52513C2.00253 1.04772 2.64373 0.78098 3.67754 0.641988C4.72573 0.501062 6.10025 0.5 8 0.5H12C13.8998 0.5 15.2743 0.501062 16.3225 0.641988C17.3563 0.78098 17.9975 1.04772 18.4749 1.52513C18.9523 2.00253 19.219 2.64373 19.358 3.67754C19.4989 4.72573 19.5 6.10025 19.5 8V12C19.5 13.8998 19.4989 15.2743 19.358 16.3225C19.219 17.3563 18.9523 17.9975 18.4749 18.4749C17.9975 18.9523 17.3563 19.219 16.3225 19.358C15.2743 19.4989 13.8998 19.5 12 19.5H8C6.10025 19.5 4.72573 19.4989 3.67754 19.358C2.64373 19.219 2.00253 18.9523 1.52513 18.4749C1.04772 17.9975 0.78098 17.3563 0.641988 16.3225C0.501062 15.2743 0.5 13.8998 0.5 12V8Z" stroke="#9AA4B2"/>
<path d="M15.3335 10L4.66683 10" stroke="#E3E8EF" stroke-width="1.5" stroke-linecap="round" stroke-linejoin="round"/>
</svg>
