<svg width="40" height="40" viewBox="0 0 40 40" fill="none" xmlns="http://www.w3.org/2000/svg">
<g id="file-verified">
<path id="Accent" opacity="0.4" d="M5.00234 18.3161C5.56965 16.9226 8.1833 14.1632 14.1634 14.1632C14.6658 14.1632 15.9835 13.6578 15.9153 10.9195C15.8875 8.44449 16.7896 3.54814 20.5742 3.33697C21.3241 3.33337 22.1394 3.33337 23.0303 3.33337C26.0287 3.33337 27.528 3.33337 28.7254 3.75371C30.6503 4.42945 32.1687 5.85854 32.8867 7.67028C33.3333 8.79724 33.3333 10.2083 33.3333 13.0303V28.3334C33.3333 29.8822 33.3333 30.6567 33.2052 31.3006C32.6792 33.9452 30.6119 36.0126 27.9673 36.5386C27.3233 36.6667 26.5488 36.6667 25 36.6667H17.8788C12.4434 36.6667 9.72577 36.6667 7.83845 35.337C7.2977 34.956 6.81763 34.5042 6.41283 33.9952C5 32.2189 5 29.6611 5 24.5455V20.3031C5 19.5914 5 18.9311 5.00234 18.3161Z" fill="#042F59"/>
<path id="Icon" d="M21.6667 30C21.6667 30 23.3333 30 25 33.3334C25 33.3334 30.2941 25 35 23.3334M18.3333 36.6667H17.8788C12.4434 36.6667 9.72577 36.6667 7.83845 35.337C7.2977 34.956 6.81763 34.5042 6.41283 33.9952C5 32.2189 5 29.6611 5 24.5455V20.3031C5 15.3645 5 12.8951 5.78156 10.923C7.03802 7.75241 9.69523 5.25152 13.0639 4.06896C15.1594 3.33337 17.783 3.33337 23.0303 3.33337C26.0288 3.33337 27.528 3.33337 28.7254 3.75371C30.6503 4.42945 32.1687 5.85854 32.8867 7.67028C33.3333 8.79724 33.3333 10.2083 33.3333 13.0303V16.6667M5 20C5 16.9318 7.48731 14.4445 10.5556 14.4445C11.6652 14.4445 12.9734 14.6389 14.0523 14.3498C15.0109 14.093 15.7596 13.3442 16.0165 12.3856C16.3055 11.3068 16.1111 9.99857 16.1111 8.88893C16.1111 5.82068 18.5984 3.33337 21.6667 3.33337" stroke="#042F59" stroke-width="2.5" stroke-linecap="round" stroke-linejoin="round"/>
</g>
</svg>
