<svg width="32" height="32" viewBox="0 0 32 32" fill="none" xmlns="http://www.w3.org/2000/svg">
<g clip-path="url(#clip0_476_1757)">
<path fill-rule="evenodd" clip-rule="evenodd" d="M16.027 0C24.8783 0 32.0539 7.16361 32.0539 16C32.0539 24.8364 24.8783 32 16.027 32C7.17566 32 0 24.8364 0 16C0 7.16361 7.17566 0 16.027 0Z" fill="#ED1F30"/>
<path fill-rule="evenodd" clip-rule="evenodd" d="M17.3207 18.7377L17.3161 15.7236L21.1399 15.7489C22.9813 15.7609 23.877 17.2324 23.8764 18.7704C23.8747 23.0226 17.3276 23.9344 17.3201 18.7377M17.3167 10.7443C24.3851 7.04436 25.0073 15.1725 20.75 14.7843H17.3167V10.7443ZM23.4618 15.1559C28.518 13.2199 24.2962 5.68298 16.0178 10.3452C15.309 9.73101 14.2957 9.23726 13.0937 8.99354C11.0494 8.57893 8.30825 8.93849 6.7691 10.3744L7.51344 11.1033C8.82608 9.75624 11.702 9.32271 13.3788 10.2483C14.0468 10.617 14.5589 11.1698 14.6753 11.8453L14.7126 18.771C14.7126 18.771 14.7126 18.7721 14.7126 18.7727C14.4093 23.584 8.21134 23.2124 8.21306 18.7681V15.7253H13.0943V14.8084H5.6543V17.7995C5.67379 23.4859 12.5897 24.4338 16.0144 21.6755C16.9973 22.5747 18.935 23.1826 20.8704 23.1688C27.0098 23.1252 28.2748 16.5047 23.4618 15.157V15.1559Z" fill="white"/>
</g>
<defs>
<clipPath id="clip0_476_1757">
<rect width="32" height="32" fill="white"/>
</clipPath>
</defs>
</svg>
