<svg width="143" height="32" viewBox="0 0 143 32" fill="none" xmlns="http://www.w3.org/2000/svg">
<g clip-path="url(#clip0_476_1650)">
<path fill-rule="evenodd" clip-rule="evenodd" d="M89.6187 20.1444C90.511 21.1324 91.4618 21.6296 92.478 21.6296C92.7005 21.6296 92.9069 21.605 93.1019 21.562C93.2935 21.5155 93.4603 21.4444 93.5991 21.3486C93.7379 21.25 93.8463 21.1267 93.9294 20.9782C94.0097 20.8268 94.0498 20.6444 94.0498 20.4345C94.0498 20.2832 94.0189 20.1472 93.9512 20.0268C93.8864 19.9064 93.7969 19.8015 93.6886 19.7086C93.5808 19.6191 93.4603 19.5388 93.3273 19.4706C93.1942 19.3995 93.0618 19.341 92.9287 19.2945C92.6816 19.1924 92.435 19.1001 92.1907 19.0164C91.947 18.9361 91.7027 18.8432 91.4555 18.7417C91.3168 18.6924 91.147 18.6305 90.952 18.5565C90.7548 18.4825 90.5535 18.3867 90.3407 18.2755C90.1308 18.1642 89.921 18.0346 89.7168 17.8832C89.5132 17.7318 89.3274 17.5495 89.1611 17.3396C88.9943 17.1297 88.8618 16.8889 88.7597 16.6205C88.6548 16.3515 88.6054 16.043 88.6054 15.6944C88.6054 15.2591 88.7104 14.8795 88.9203 14.5549C89.133 14.2275 89.4112 13.9562 89.7633 13.7337C90.1125 13.5147 90.5076 13.3478 90.952 13.2365C91.3936 13.1253 91.8506 13.0697 92.3232 13.0697C93.0704 13.0697 93.7499 13.1562 94.3612 13.3323C94.9754 13.5083 95.5345 13.7985 96.0409 14.2091L94.9725 15.8549C94.7873 15.6697 94.6049 15.5028 94.426 15.3549C94.2471 15.2063 94.0584 15.0802 93.8606 14.9752C93.6599 14.8703 93.4437 14.79 93.2092 14.7344C92.9746 14.6816 92.7057 14.6541 92.4034 14.6541C92.15 14.6541 91.9338 14.6851 91.752 14.7436C91.5731 14.8055 91.4217 14.8852 91.3041 14.9873C91.1866 15.0894 91.1006 15.2092 91.0478 15.3394C90.9922 15.4719 90.9646 15.6112 90.9646 15.7563C90.9646 15.9197 91.0048 16.0591 91.0822 16.1761C91.1625 16.2965 91.2646 16.3986 91.3879 16.4846C91.5112 16.5712 91.6505 16.648 91.8076 16.71C91.9653 16.7748 92.1225 16.8332 92.2865 16.886C92.5394 16.9783 92.7957 17.0684 93.0526 17.1544C93.3089 17.241 93.5618 17.3304 93.8153 17.4199C93.942 17.4692 94.0963 17.5248 94.2787 17.5931C94.4576 17.6579 94.6462 17.7445 94.8378 17.8465C95.0322 17.9486 95.2237 18.0748 95.4124 18.2233C95.6039 18.3684 95.7737 18.5473 95.925 18.7543C96.0764 18.9642 96.1969 19.2051 96.2892 19.4797C96.385 19.7544 96.4314 20.0727 96.4314 20.434C96.4314 20.8847 96.3202 21.2861 96.0948 21.6319C95.8723 21.9777 95.5792 22.2679 95.2145 22.4996C94.8504 22.7341 94.4335 22.9102 93.9701 23.0306C93.5068 23.151 93.0285 23.2095 92.5405 23.2095C92.1081 23.2095 91.6975 23.1848 91.3116 23.1384C90.9257 23.0891 90.5581 23.0088 90.2123 22.8947C89.8636 22.7806 89.5333 22.6229 89.2213 22.4285C88.9065 22.2306 88.6129 21.9869 88.3354 21.6904L89.6199 20.1438L89.6187 20.1444ZM80.6086 13.2245V19.919C80.6086 20.1782 80.6459 20.4007 80.7227 20.5894C80.7967 20.7746 80.8988 20.9289 81.0255 21.0464C81.1522 21.164 81.3002 21.2506 81.4734 21.3028C81.6466 21.3584 81.8318 21.383 82.0291 21.383C82.4769 21.383 82.9368 21.3274 83.4122 21.2162C83.8911 21.1049 84.32 20.9323 84.7059 20.6978V13.2251H87.0588V21.2936C87.0588 21.4513 87.0772 21.6767 87.1145 21.9668C87.1483 22.2604 87.2039 22.6028 87.275 22.995H85.0517C85.0391 22.9578 85.0179 22.8901 84.9932 22.7915C84.9657 22.6928 84.9376 22.5844 84.9095 22.4703C84.882 22.3562 84.8573 22.2478 84.8321 22.1463C84.8103 22.0414 84.7954 21.9674 84.7891 21.9181C84.5821 22.1004 84.3538 22.2667 84.0975 22.4216C83.8412 22.5758 83.5728 22.7089 83.2918 22.8201C83.0108 22.9314 82.7298 23.018 82.446 23.0765C82.1621 23.1384 81.8903 23.1694 81.6311 23.1694C80.9796 23.1694 80.4394 23.0799 80.007 22.9004C79.5781 22.7244 79.2317 22.4806 78.9725 22.1715C78.7133 21.8659 78.5281 21.5046 78.4197 21.0877C78.3119 20.6708 78.2591 20.2264 78.2591 19.7475V13.2262H80.6092L80.6086 13.2245ZM69.8821 21.4473C70.1384 21.5367 70.4315 21.6113 70.7652 21.6698C71.1018 21.7254 71.4476 21.7564 71.8089 21.7564C72.1702 21.7564 72.516 21.6698 72.8245 21.5029C73.1302 21.3332 73.3957 21.086 73.6182 20.7649C73.8435 20.4409 74.0167 20.0486 74.14 19.5887C74.2633 19.1282 74.3252 18.6035 74.3252 18.0197C74.3252 17.5409 74.2788 17.1091 74.1893 16.7197C74.0999 16.3309 73.9577 15.9971 73.7633 15.719C73.5717 15.4443 73.3246 15.2281 73.0287 15.0767C72.7293 14.9282 72.3709 14.8514 71.954 14.8514C71.7625 14.8514 71.5681 14.8669 71.3702 14.8915C71.1758 14.919 70.9872 14.9563 70.8054 15.0028C70.6264 15.0464 70.4561 15.0985 70.2956 15.1605C70.135 15.219 69.9991 15.2872 69.8821 15.3583V21.4473ZM67.5327 8.81805H69.8827V13.9562C70.2159 13.697 70.6207 13.4837 71.1024 13.3203C71.5813 13.1534 72.1031 13.0702 72.6708 13.0702C73.4117 13.0702 74.0448 13.209 74.5667 13.4808C75.0885 13.7555 75.5146 14.1202 75.8449 14.5767C76.1781 15.0309 76.4195 15.5585 76.5738 16.1606C76.728 16.7598 76.8054 17.3866 76.8054 18.0381C76.8054 18.9183 76.6632 19.681 76.3822 20.3262C76.1041 20.9713 75.7371 21.5058 75.2858 21.9318C74.8322 22.3551 74.3224 22.6699 73.7512 22.8763C73.18 23.0799 72.6026 23.182 72.0188 23.1854C71.5652 23.1826 71.1512 23.1791 70.7715 23.1699C70.3919 23.1608 70.0243 23.1481 69.6722 23.1298C69.3172 23.1114 68.968 23.0868 68.6222 23.0524C68.2764 23.0185 67.9123 22.975 67.5321 22.9228V8.81747L67.5327 8.81805ZM61.1937 21.6113C61.5922 21.6113 61.9346 21.5029 62.2247 21.2838C62.5149 21.0676 62.7529 20.7803 62.9381 20.4254C63.1268 20.0704 63.2656 19.669 63.355 19.2211C63.4479 18.7767 63.4909 18.3196 63.4909 17.8563C63.4909 17.4273 63.4508 17.0225 63.3705 16.6394C63.2874 16.2563 63.1543 15.9197 62.9662 15.6359C62.781 15.3486 62.5401 15.1203 62.2437 14.9535C61.9472 14.7837 61.5888 14.6971 61.1661 14.6971C60.7865 14.6971 60.4499 14.7866 60.1597 14.9598C59.8667 15.1358 59.6224 15.3767 59.4309 15.6795C59.2365 15.9851 59.0914 16.3464 58.9922 16.7661C58.8901 17.1859 58.8408 17.6401 58.8408 18.1275C58.8408 18.5261 58.8872 18.9304 58.9738 19.3381C59.0604 19.7487 59.1992 20.1226 59.3907 20.4621C59.5788 20.7987 59.8231 21.0734 60.1225 21.2896C60.4218 21.5023 60.7773 21.6107 61.1942 21.6107L61.1937 21.6113ZM61.274 23.2382C60.4803 23.2382 59.7761 23.1149 59.1619 22.8677C58.5506 22.6206 58.0379 22.2685 57.621 21.8149C57.2041 21.3578 56.8893 20.8084 56.676 20.1662C56.4598 19.5239 56.3548 18.8077 56.3548 18.0203C56.3548 17.3505 56.4535 16.7174 56.6513 16.1181C56.852 15.5223 57.1514 14.997 57.5562 14.5463C57.9611 14.0927 58.4703 13.7343 59.0816 13.4688C59.6929 13.2033 60.4126 13.0702 61.2401 13.0702C62.0676 13.0702 62.7776 13.2027 63.3739 13.4688C63.9698 13.7343 64.4641 14.0984 64.85 14.5589C65.236 15.0188 65.5198 15.5625 65.7056 16.1858C65.888 16.8126 65.9803 17.4795 65.9803 18.19C65.9803 18.9006 65.8725 19.5365 65.6592 20.1507C65.443 20.762 65.1345 21.2965 64.7267 21.7564C64.319 22.2134 63.8253 22.5747 63.2443 22.8402C62.6606 23.1057 62.0063 23.2387 61.2745 23.2387L61.274 23.2382ZM51.8968 8.81805H54.2462V20.6318C54.2462 20.9403 54.2956 21.1565 54.3976 21.2833C54.4963 21.41 54.6328 21.4748 54.8082 21.4748C55.0061 21.4748 55.1758 21.4473 55.3146 21.3916C55.4534 21.3389 55.6139 21.2741 55.7934 21.203L56.192 22.4135C56.0406 22.5185 55.8772 22.6143 55.6982 22.7037C55.5222 22.7966 55.3341 22.8735 55.1391 22.9446C54.9413 23.0128 54.7406 23.0679 54.5307 23.1114C54.3237 23.155 54.1172 23.1762 53.9131 23.1762C53.6539 23.1762 53.4038 23.1487 53.163 23.0931C52.9221 23.0403 52.7059 22.9354 52.5207 22.7811C52.332 22.6269 52.1812 22.4164 52.0671 22.1452C51.953 21.8734 51.8974 21.5212 51.8974 21.0952V8.81805H51.8968ZM50.3594 22.0431C50.0319 22.2191 49.6953 22.3797 49.3495 22.5277C49.0037 22.6762 48.6206 22.8023 48.2037 22.9136C47.7903 23.0214 47.3235 23.1051 46.8114 23.1671C46.2987 23.2256 45.7184 23.2565 45.0664 23.2565C44.353 23.2565 43.7078 23.1608 43.1304 22.9664C42.55 22.7748 42.0339 22.5064 41.5832 22.1664C41.129 21.8269 40.7373 21.422 40.4065 20.953C40.0733 20.4867 39.8015 19.9804 39.5881 19.4339C39.3719 18.8874 39.2142 18.3128 39.1064 17.7106C39.0015 17.1085 38.9487 16.4972 38.9487 15.8825C38.9487 15.231 39.0135 14.595 39.1403 13.974C39.267 13.3535 39.4522 12.7669 39.6994 12.2141C39.9465 11.6647 40.2551 11.1549 40.6226 10.695C40.9902 10.2351 41.4163 9.83651 41.8951 9.5062C42.374 9.17244 42.9079 8.91324 43.5008 8.72801C44.0909 8.53935 44.7326 8.44702 45.4276 8.44702C45.7706 8.44702 46.0854 8.4562 46.3693 8.47512C46.6502 8.49347 46.9158 8.52444 47.1629 8.57089C47.4101 8.6139 47.6446 8.67583 47.8637 8.75611C48.0862 8.83353 48.3081 8.93217 48.5341 9.04915C48.7623 9.16671 48.994 9.30835 49.2348 9.47523C49.4757 9.63866 49.7412 9.83364 50.0313 10.0556L48.7193 11.8648C48.4073 11.5775 48.1143 11.3367 47.8488 11.1486C47.5798 10.957 47.3149 10.8056 47.0522 10.695C46.7896 10.5837 46.5178 10.5063 46.2374 10.4604C45.9564 10.414 45.6444 10.3922 45.3015 10.3922C44.7057 10.3922 44.1746 10.5252 43.7084 10.7936C43.2451 11.062 42.8534 11.4296 42.538 11.8987C42.2197 12.3649 41.9823 12.9148 41.8189 13.5445C41.6549 14.1747 41.5746 14.8508 41.5746 15.5762C41.5746 16.3016 41.6457 17.0615 41.7879 17.7502C41.9301 18.4418 42.1521 19.0502 42.4611 19.5784C42.7702 20.1065 43.1654 20.5263 43.6499 20.8411C44.1345 21.1531 44.7183 21.3108 45.4007 21.3108C45.5888 21.3108 45.7895 21.3016 46.0028 21.2833C46.2156 21.2649 46.4318 21.2403 46.648 21.2058C46.867 21.1749 47.0803 21.1347 47.2874 21.0883C47.4944 21.0453 47.6888 20.996 47.8711 20.9495V16.1634H50.3599V22.0425L50.3594 22.0431Z" fill="white"/>
<path fill-rule="evenodd" clip-rule="evenodd" d="M136.164 16.9049L139.357 13.295H142.297L137.853 17.655L142.587 23.065H139.765L136.164 18.8409V23.065H133.811V8.88912H136.164V16.9049ZM123.366 14.9689C123.366 14.7745 123.359 14.5273 123.35 14.2217C123.344 13.9189 123.307 13.6069 123.248 13.2956H125.465C125.481 13.3386 125.499 13.3976 125.518 13.4716C125.536 13.5456 125.555 13.6293 125.576 13.7153C125.598 13.8019 125.616 13.8942 125.632 13.9871C125.647 14.0795 125.66 14.1661 125.672 14.2464C125.817 14.1133 125.99 13.9808 126.197 13.8478C126.4 13.7153 126.626 13.5949 126.87 13.4894C127.114 13.3844 127.38 13.2979 127.66 13.2365C127.945 13.1717 128.241 13.1407 128.55 13.1407C129.056 13.1407 129.525 13.221 129.964 13.3753C130.402 13.533 130.782 13.7583 131.103 14.0548C131.427 14.3513 131.681 14.7126 131.869 15.1415C132.054 15.5676 132.15 16.0522 132.15 16.5958V23.0644H129.797V17.0402C129.797 16.648 129.757 16.3148 129.679 16.0459C129.599 15.774 129.485 15.555 129.331 15.3881C129.176 15.2212 128.988 15.1008 128.765 15.0268C128.543 14.9528 128.287 14.9127 127.996 14.9127C127.827 14.9127 127.648 14.9282 127.453 14.9557C127.262 14.9804 127.064 15.0205 126.86 15.0761C126.66 15.1318 126.459 15.1937 126.264 15.2677C126.067 15.3388 125.884 15.4191 125.718 15.5114V23.0644H123.365V14.9683L123.366 14.9689ZM118.524 17.9641C117.826 17.9916 117.252 18.069 116.801 18.1894C116.353 18.3099 115.998 18.4676 115.736 18.6648C115.473 18.8592 115.291 19.088 115.186 19.3501C115.084 19.6128 115.034 19.9029 115.034 20.2149C115.034 20.4804 115.063 20.6995 115.124 20.8755C115.182 21.0516 115.269 21.1938 115.38 21.3016C115.494 21.4094 115.627 21.4868 115.785 21.5298C115.942 21.5763 116.112 21.5975 116.3 21.5975C116.47 21.5975 116.643 21.5883 116.819 21.5728C116.998 21.5545 117.18 21.5201 117.368 21.4679C117.554 21.4151 117.745 21.3446 117.937 21.2546C118.131 21.1651 118.326 21.051 118.523 20.9122V17.9635L118.524 17.9641ZM112.8 14.6266C113.312 14.1603 113.921 13.7962 114.628 13.5364C115.332 13.2738 116.076 13.1413 116.854 13.1413C117.376 13.1413 117.882 13.2032 118.364 13.3237C118.846 13.4441 119.275 13.6264 119.649 13.8736C120.022 14.1208 120.322 14.4419 120.544 14.8278C120.766 15.2172 120.877 15.6771 120.877 16.2081V20.5681C120.877 20.7809 120.89 20.9575 120.915 21.0992C120.939 21.2414 120.98 21.352 121.035 21.4323C121.094 21.5155 121.168 21.5711 121.258 21.6055C121.351 21.6393 121.461 21.6548 121.594 21.6548C121.641 21.6548 121.733 21.6457 121.866 21.6273C121.999 21.609 122.125 21.5872 122.246 21.5654L122.499 22.6056C122.354 22.6951 122.206 22.7788 122.055 22.8591C121.903 22.9365 121.743 23.0042 121.57 23.0598C121.4 23.1183 121.212 23.1647 121.012 23.2014C120.808 23.2387 120.588 23.2542 120.345 23.2571C119.894 23.2542 119.514 23.1521 119.212 22.9422C118.906 22.7352 118.711 22.4387 118.628 22.0528C118.374 22.2874 118.112 22.4852 117.84 22.6395C117.569 22.7972 117.297 22.9204 117.022 23.0099C116.747 23.1028 116.473 23.1642 116.197 23.2014C115.923 23.2387 115.657 23.2542 115.397 23.2571C114.956 23.2542 114.561 23.1986 114.212 23.0839C113.862 22.9698 113.563 22.8 113.316 22.5712C113.069 22.3458 112.877 22.0649 112.745 21.7317C112.612 21.3951 112.547 21.0063 112.547 20.5584C112.547 20.0583 112.624 19.6196 112.779 19.2429C112.933 18.8661 113.143 18.5421 113.414 18.2703C113.686 17.9985 114.01 17.776 114.384 17.5971C114.758 17.4181 115.165 17.2788 115.61 17.1773C116.052 17.0752 116.521 17.0012 117.015 16.9582C117.51 16.9181 118.012 16.8963 118.525 16.8963V16.5442C118.525 16.2231 118.482 15.9484 118.393 15.7196C118.3 15.4913 118.176 15.3027 118.016 15.1576C117.855 15.0154 117.664 14.9075 117.441 14.8364C117.219 14.7682 116.972 14.7344 116.7 14.7344C116.469 14.7344 116.253 14.7527 116.049 14.7929C115.842 14.8301 115.635 14.9007 115.428 14.9999C115.221 15.0985 115.005 15.2315 114.783 15.3984C114.558 15.5653 114.311 15.7781 114.039 16.0378L112.801 14.6266H112.8ZM104.398 10.7173L104.389 14.923H105.71C106.155 14.923 106.562 14.8829 106.926 14.7963C107.291 14.7131 107.602 14.5801 107.859 14.4041C108.115 14.2251 108.313 14.0026 108.452 13.7337C108.588 13.4647 108.659 13.147 108.659 12.7794C108.659 12.4119 108.606 12.1246 108.505 11.8654C108.402 11.6062 108.23 11.3928 107.986 11.2231C107.742 11.0533 107.421 10.9266 107.022 10.8435C106.624 10.7603 106.13 10.7167 105.537 10.7167H104.397L104.398 10.7173ZM104.389 16.7506V21.2374H106.297C106.792 21.2374 107.223 21.1754 107.588 21.0487C107.952 20.922 108.255 20.7522 108.493 20.5452C108.731 20.3382 108.907 20.1065 109.021 19.8473C109.135 19.591 109.194 19.3318 109.194 19.0662C109.194 18.7514 109.136 18.4549 109.021 18.1705C108.907 17.8866 108.728 17.6429 108.487 17.4325C108.246 17.2255 107.938 17.0586 107.561 16.9353C107.184 16.8114 106.731 16.7501 106.199 16.7501H104.39L104.389 16.7506ZM106.433 8.88912C107.146 8.88912 107.788 8.96941 108.365 9.12998C108.94 9.29054 109.428 9.51935 109.829 9.82156C110.23 10.1243 110.539 10.4948 110.758 10.9329C110.974 11.3745 111.082 11.878 111.082 12.4428C111.082 12.8012 111.011 13.147 110.869 13.4831C110.727 13.8226 110.536 14.1317 110.295 14.4127C110.054 14.6936 109.77 14.9374 109.446 15.1444C109.118 15.3514 108.772 15.5057 108.405 15.6014C108.772 15.6662 109.152 15.7901 109.541 15.9627C109.93 16.1388 110.285 16.3767 110.606 16.679C110.93 16.9783 111.196 17.3459 111.403 17.7783C111.613 18.2072 111.715 18.7107 111.715 19.2819C111.715 19.7664 111.61 20.2332 111.4 20.6897C111.187 21.1439 110.875 21.5482 110.458 21.9003C110.041 22.2552 109.526 22.5362 108.911 22.7461C108.297 22.9594 107.586 23.0644 106.787 23.0644H101.902L101.909 8.88855H106.432L106.433 8.88912Z" fill="white"/>
<path fill-rule="evenodd" clip-rule="evenodd" d="M16.027 0C24.8783 0 32.0539 7.16361 32.0539 16C32.0539 24.8364 24.8783 32 16.027 32C7.17566 32 0 24.8364 0 16C0 7.16361 7.17566 0 16.027 0Z" fill="#ED1F30"/>
<path fill-rule="evenodd" clip-rule="evenodd" d="M17.3207 18.7377L17.3161 15.7236L21.1399 15.7489C22.9813 15.7609 23.877 17.2324 23.8764 18.7704C23.8747 23.0226 17.3276 23.9344 17.3201 18.7377M17.3167 10.7443C24.3851 7.04436 25.0073 15.1725 20.75 14.7843H17.3167V10.7443ZM23.4618 15.1559C28.518 13.2199 24.2962 5.68298 16.0178 10.3452C15.309 9.73101 14.2957 9.23726 13.0937 8.99354C11.0494 8.57893 8.30825 8.93849 6.7691 10.3744L7.51344 11.1033C8.82608 9.75624 11.702 9.32271 13.3788 10.2483C14.0468 10.617 14.5589 11.1698 14.6753 11.8453L14.7126 18.771C14.7126 18.771 14.7126 18.7721 14.7126 18.7727C14.4093 23.584 8.21134 23.2124 8.21306 18.7681V15.7253H13.0943V14.8084H5.6543V17.7995C5.67379 23.4859 12.5897 24.4338 16.0144 21.6755C16.9973 22.5747 18.935 23.1826 20.8704 23.1688C27.0098 23.1252 28.2748 16.5047 23.4618 15.157V15.1559Z" fill="white"/>
</g>
<defs>
<clipPath id="clip0_476_1650">
<rect width="142.587" height="32" fill="white"/>
</clipPath>
</defs>
</svg>
