<svg width="95" height="95" viewBox="0 0 95 95" fill="none" xmlns="http://www.w3.org/2000/svg">
<g id="Bell" clip-path="url(#clip0_1764_2962)">
<g id="Group">
<g id="Group_2">
<path id="Vector" d="M55.9573 17.0154C55.8126 16.9763 55.6674 16.9473 55.5231 16.9283C54.7183 16.8208 53.9265 17.0114 53.2281 17.3859C52.4089 17.8347 51.7192 18.5392 51.4007 19.4875C51.0749 20.4771 50.7491 21.467 50.423 22.4566C50.4116 22.4919 50.4 22.5271 50.3883 22.5624C50.3852 22.5725 50.3818 22.5827 50.3784 22.5927C50.3765 22.5982 50.3748 22.6036 50.3729 22.6092C50.3316 22.7344 50.2906 22.8594 50.2493 22.9847C50.2297 23.0442 50.2102 23.1034 50.1905 23.1629C50.0079 23.7176 49.8253 24.2724 49.6425 24.8273C49.4203 25.5139 49.454 26.1948 49.6857 26.8278C49.7745 27.0714 49.893 27.3079 50.0373 27.5349C50.17 27.741 50.3242 27.939 50.499 28.125C51.0125 28.6711 51.7024 29.1127 52.5367 29.3409C53.0219 29.4732 53.5045 29.5172 53.9659 29.4878C54.567 29.4493 55.1319 29.2866 55.6192 29.0329C56.4833 28.579 57.1053 27.8411 57.3211 26.8741C57.4733 26.1781 57.6265 25.4874 57.7811 24.7985C57.79 24.7579 57.7993 24.7175 57.8084 24.6769C57.8332 24.5667 57.8577 24.4568 57.8827 24.347C57.885 24.3364 57.8873 24.3259 57.8898 24.3153V24.3151C57.8909 24.3104 57.8918 24.306 57.8928 24.3013C57.8932 24.2996 57.8936 24.2977 57.8941 24.296C57.8974 24.2814 57.9006 24.2666 57.904 24.252C58.1137 23.3242 58.3265 22.3977 58.5451 21.4642C58.9533 19.5607 57.8257 17.5577 55.9573 17.0154ZM57.0371 20.5559C57.0374 20.5879 57.0371 20.6198 57.0359 20.6521C57.035 20.6871 57.0327 20.7223 57.0297 20.7576C57.0288 20.7712 57.0273 20.7848 57.0258 20.7981C57.0205 20.8467 57.0134 20.8959 57.0045 20.9445C57.0018 20.9607 56.9986 20.9773 56.9951 20.9936C56.9882 21.0259 56.9808 21.0585 56.9725 21.0908C56.9639 21.1228 56.9551 21.1542 56.945 21.1853C56.9405 21.1998 56.9355 21.2143 56.9305 21.2288C56.9183 21.2653 56.9047 21.3014 56.8902 21.3369C56.8864 21.3464 56.8822 21.3562 56.8777 21.3657C56.8425 21.4483 56.8019 21.5271 56.756 21.6023C56.7507 21.6109 56.7453 21.6198 56.7397 21.6287C56.7276 21.648 56.7154 21.6666 56.7027 21.6853C56.6985 21.6918 56.6941 21.698 56.6897 21.7039C56.6754 21.7247 56.6606 21.7451 56.6455 21.765C56.6402 21.7718 56.6349 21.7792 56.6292 21.786C56.6201 21.7976 56.6109 21.8094 56.6014 21.8209C56.589 21.836 56.5765 21.8512 56.5635 21.8657C56.5279 21.9065 56.4906 21.9459 56.4518 21.9833C56.4441 21.991 56.4364 21.9983 56.4284 22.0058C56.4207 22.0132 56.413 22.0206 56.4047 22.0274C56.3887 22.0422 56.3724 22.0564 56.3558 22.0704C56.3478 22.0775 56.3396 22.0843 56.3309 22.0911C56.3144 22.1047 56.2978 22.1181 56.2806 22.1311C56.2723 22.1379 56.2634 22.1441 56.2548 22.1503C56.2208 22.1761 56.1855 22.2001 56.1497 22.2232C56.1491 22.2235 56.1485 22.2235 56.1482 22.2241C55.9817 22.3313 55.7984 22.414 55.6043 22.4685C55.5768 22.4762 55.5489 22.4833 55.5211 22.4898C55.4017 22.5182 55.2788 22.536 55.1538 22.5428C54.932 22.5547 54.7036 22.5313 54.4758 22.4688C53.3751 22.1684 52.7116 21.0635 53.0217 19.9978C53.2252 19.3029 53.7791 18.796 54.4382 18.6118C54.7148 18.5345 55.0099 18.5138 55.3055 18.5597C55.3825 18.5718 55.4592 18.5881 55.5359 18.6094C55.5644 18.6174 55.5928 18.626 55.6207 18.6352H55.6209L55.6212 18.6355C55.6372 18.6402 55.6529 18.6456 55.6686 18.6515C55.676 18.6542 55.6837 18.6568 55.6911 18.6595C55.6994 18.6624 55.7074 18.6654 55.7154 18.6687C55.7311 18.6743 55.7468 18.6805 55.7619 18.6871C55.7927 18.6995 55.8227 18.7125 55.8523 18.7264C55.8526 18.7264 55.8526 18.7264 55.8529 18.7268C55.8828 18.7404 55.9118 18.7549 55.9406 18.7703C55.9551 18.7777 55.9693 18.7854 55.9835 18.7937C55.9977 18.8014 56.0119 18.8094 56.0259 18.818C56.0815 18.8506 56.1355 18.8861 56.1876 18.9243C56.2006 18.9335 56.2134 18.943 56.2261 18.953C56.2391 18.9625 56.2518 18.9723 56.2643 18.9827C56.2767 18.9924 56.2892 19.0025 56.301 19.0129C56.3135 19.0232 56.3256 19.0336 56.3374 19.0443C56.3505 19.0558 56.3632 19.0674 56.3763 19.0789C56.3869 19.089 56.3973 19.0991 56.4077 19.1092C56.4201 19.1213 56.4322 19.1334 56.4444 19.1459C56.4547 19.156 56.4648 19.1663 56.4746 19.177C56.4858 19.1885 56.4965 19.2001 56.5072 19.2122C56.5175 19.2238 56.5279 19.2359 56.5386 19.2481C56.6624 19.3923 56.7655 19.5532 56.8454 19.7247C56.8523 19.7392 56.8588 19.7534 56.865 19.7679C56.8715 19.7824 56.8777 19.797 56.8834 19.8115C56.8893 19.8254 56.8949 19.839 56.8999 19.8529C56.9002 19.8541 56.9008 19.8553 56.9017 19.8571C56.907 19.8713 56.9124 19.8858 56.9174 19.9003C56.9227 19.9148 56.9281 19.9299 56.9328 19.9448C56.9379 19.959 56.9423 19.9729 56.9464 19.9871C56.9518 20.0046 56.9568 20.0224 56.9621 20.0401C56.966 20.0537 56.9698 20.0677 56.9731 20.0816C56.9773 20.097 56.9811 20.1124 56.9847 20.1281C56.9882 20.1435 56.9915 20.1589 56.9947 20.1746C56.9953 20.1769 56.9956 20.179 56.9962 20.1814C56.9989 20.1944 57.0013 20.2081 57.0039 20.2214C57.0069 20.2359 57.0092 20.2507 57.0113 20.2655C57.0116 20.2673 57.0119 20.2691 57.0125 20.2714C57.0149 20.2863 57.0172 20.3008 57.019 20.3156C57.0211 20.3316 57.0232 20.3473 57.0247 20.3633C57.0267 20.379 57.0282 20.395 57.0294 20.411C57.0309 20.427 57.0323 20.4427 57.0332 20.4587C57.0353 20.4907 57.0365 20.5227 57.0371 20.5549C57.0368 20.5553 57.0368 20.5556 57.0371 20.5559Z" fill="#CDD5DF"/>
<path id="Vector_2" d="M58.9135 18.7332C58.4302 17.9326 57.7062 17.2828 56.7547 17.022C56.3415 16.9092 55.9266 16.8834 55.5231 16.9283C54.9984 16.9867 54.4928 17.1644 54.0353 17.4255C53.2281 17.8935 52.5708 18.6226 52.2722 19.566C51.9672 20.5513 51.6608 21.5252 51.3502 22.4994C51.3396 22.5324 51.329 22.5656 51.3185 22.5986C51.314 22.6128 51.3096 22.6272 51.3047 22.6415C51.3032 22.6462 51.3017 22.6509 51.3002 22.6557C51.2736 22.7389 51.2469 22.8222 51.2203 22.9054C51.2063 22.9494 51.1921 22.9932 51.178 23.0372C50.9846 23.6404 50.7893 24.2445 50.5915 24.8519C49.9885 26.7015 51.2406 28.7414 53.462 29.3814C53.4622 29.3814 53.4622 29.3814 53.4622 29.3814C53.631 29.4271 53.799 29.4624 53.9659 29.4878C54.8994 29.63 55.7912 29.4652 56.5207 29.0992C57.3808 28.6614 58.0155 27.9444 58.2313 26.9681C58.346 26.4371 58.4607 25.906 58.5756 25.3747C58.5875 25.3195 58.5995 25.2641 58.6116 25.2084C58.6315 25.1166 58.6511 25.0248 58.6712 24.933C58.6861 24.8638 58.7011 24.7948 58.7161 24.7256V24.7254C58.7172 24.7205 58.7182 24.7157 58.7193 24.7108C58.7193 24.7104 58.7195 24.71 58.7195 24.7095C58.722 24.6977 58.7246 24.6858 58.7273 24.674C58.9575 23.607 59.1883 22.54 59.4189 21.4732C59.6237 20.4944 59.3891 19.5385 58.9135 18.7332ZM57.787 21.1025C57.5133 22.1813 56.3821 22.8013 55.2828 22.5042C55.2538 22.4962 55.2248 22.4879 55.1964 22.4787C55.1798 22.4737 55.1638 22.4686 55.1478 22.4627C55.1318 22.4577 55.1158 22.4521 55.0998 22.4459C55.0838 22.4402 55.0684 22.4343 55.0527 22.4281C55.037 22.4222 55.0216 22.4157 55.0062 22.4091C54.9751 22.3964 54.9446 22.3828 54.9149 22.3683C54.9001 22.3612 54.8853 22.354 54.8711 22.3466C54.8702 22.346 54.8696 22.3457 54.8687 22.3454C54.8575 22.3398 54.8465 22.3342 54.8356 22.3283C54.8287 22.3244 54.8219 22.3212 54.8154 22.3173C54.8051 22.312 54.7947 22.3063 54.7846 22.3001C54.784 22.2998 54.7832 22.2995 54.7829 22.2992C54.7695 22.2918 54.7562 22.2844 54.7435 22.2764C54.7423 22.2755 54.7408 22.2746 54.7396 22.2737C54.712 22.2577 54.6851 22.2409 54.659 22.2231C54.6454 22.2142 54.6321 22.2053 54.619 22.1958C54.5924 22.1775 54.5663 22.1585 54.5411 22.1387C54.5275 22.128 54.5139 22.1173 54.5002 22.1067C54.4766 22.0874 54.4532 22.0676 54.4307 22.0471C54.3833 22.0054 54.3385 21.9618 54.2959 21.9162C54.2953 21.9153 54.2947 21.9148 54.2944 21.9144C54.2511 21.8682 54.2103 21.8202 54.1718 21.7705C54.1614 21.7572 54.1513 21.7435 54.1412 21.7302C54.1235 21.7059 54.1063 21.6813 54.0897 21.6561C54.0808 21.6434 54.0722 21.6304 54.0639 21.6167C54.0556 21.6037 54.0473 21.5907 54.0396 21.5771C54.0314 21.5637 54.0234 21.5501 54.016 21.5365C54.008 21.5234 54.0009 21.5104 53.9937 21.4971C53.9934 21.4965 53.9931 21.4959 53.9928 21.4956C53.9854 21.482 53.978 21.4681 53.9715 21.4544C53.9641 21.4402 53.9573 21.426 53.9502 21.4121C53.9446 21.3999 53.9389 21.3881 53.9336 21.3759C53.9063 21.3167 53.8824 21.2559 53.8616 21.1944C53.8574 21.1828 53.8536 21.1712 53.8501 21.1597C53.8441 21.1422 53.8391 21.1247 53.8344 21.1073C53.8305 21.0954 53.827 21.0833 53.8243 21.0711C53.8187 21.0513 53.8136 21.0317 53.8095 21.0122C53.8062 20.9991 53.8033 20.9867 53.8009 20.974C53.8003 20.9719 53.7997 20.9695 53.7994 20.9675C53.7968 20.9559 53.7944 20.9443 53.7923 20.9328C53.7888 20.9147 53.7855 20.8966 53.7829 20.8786C53.7805 20.8638 53.7781 20.849 53.7763 20.8341C53.7716 20.7995 53.7677 20.7642 53.7648 20.7287C53.7639 20.718 53.7633 20.7077 53.7624 20.697C53.7615 20.684 53.7606 20.6706 53.7606 20.6576C53.7601 20.6469 53.7595 20.6357 53.7595 20.625C53.7589 20.615 53.7589 20.6052 53.7589 20.5954C53.7583 20.5809 53.7586 20.5661 53.7586 20.5516C53.7598 20.4373 53.7713 20.3214 53.7941 20.2056C53.7971 20.1908 53.8 20.176 53.8033 20.1615C53.8116 20.1235 53.8208 20.0859 53.8314 20.048C53.8356 20.0335 53.84 20.0187 53.8445 20.0042C53.8536 19.9737 53.864 19.9431 53.8747 19.9135C53.8782 19.9035 53.8821 19.8931 53.8859 19.883C53.8921 19.867 53.8981 19.8507 53.9049 19.8347C53.9087 19.8253 53.9126 19.8158 53.9167 19.8063C53.9209 19.7965 53.9253 19.7868 53.9292 19.7773C53.9324 19.7702 53.9354 19.7634 53.9386 19.7565C53.9437 19.7462 53.9484 19.7358 53.9531 19.7254C53.9582 19.7151 53.9629 19.7047 53.9683 19.6949C53.9783 19.6745 53.989 19.6546 53.9994 19.6348C54.0047 19.6247 54.01 19.6149 54.016 19.6051C54.0174 19.6022 54.0192 19.5992 54.021 19.5963C54.0246 19.5894 54.0287 19.5826 54.0328 19.5758C54.0725 19.5077 54.1161 19.4428 54.1629 19.3806C54.1688 19.3726 54.1747 19.3646 54.181 19.3569C54.1824 19.3554 54.1839 19.3534 54.1854 19.3516C54.1913 19.3436 54.1975 19.3356 54.2038 19.3279C54.2109 19.3196 54.218 19.3107 54.2248 19.3024C54.2387 19.2852 54.2532 19.2687 54.2683 19.2521C54.3051 19.2106 54.3433 19.1709 54.3836 19.133C54.4153 19.1025 54.4478 19.0729 54.4819 19.0447C54.5488 18.9879 54.6199 18.9357 54.694 18.8883C54.7864 18.8285 54.8836 18.7764 54.9843 18.7325C55.0447 18.7053 55.1066 18.6816 55.1694 18.6614C55.2112 18.6472 55.2532 18.6348 55.2959 18.6241H55.2962C55.6244 18.5385 55.9772 18.5338 56.3261 18.6265C56.6626 18.7162 56.9582 18.8871 57.1973 19.1128C57.7215 19.607 57.973 20.3632 57.787 21.1025Z" fill="#CDD5DF"/>
<g id="Group_3">
<path id="Vector_3" d="M54.8542 17.0929C54.7097 17.1615 54.5665 17.2265 54.4328 17.3091C54.3644 17.3466 54.2989 17.3894 54.2335 17.431C54.2004 17.4509 54.1695 17.4748 54.1377 17.4968C54.1063 17.5195 54.0742 17.5407 54.0437 17.5644C53.7985 17.7518 53.571 17.9564 53.3775 18.1897C53.3537 18.2191 53.3294 18.248 53.3051 18.2767C53.2802 18.3049 53.2584 18.336 53.2352 18.3655C53.2125 18.3955 53.1888 18.4246 53.1671 18.4553L53.1026 18.5476C53.0919 18.5631 53.0808 18.5781 53.0706 18.5938L53.0403 18.6412L52.9792 18.7352L52.9224 18.8318C52.9035 18.8639 52.884 18.8959 52.8678 18.9282L52.8169 19.0245C52.8128 19.0325 52.8082 19.0405 52.8044 19.0484L52.7941 19.0721L52.773 19.1188C52.7446 19.1852 52.7169 19.2524 52.6923 19.3216C52.6417 19.4592 52.6004 19.6031 52.5583 19.7506C52.5169 19.8981 52.4781 20.0512 52.4362 20.2075C52.4259 20.2463 52.4148 20.2867 52.4039 20.3247C52.3939 20.3611 52.3822 20.3958 52.3737 20.4338L52.3181 20.6602C52.2415 20.9718 52.1562 21.2807 52.0703 21.5891C52.0279 21.7435 51.9823 21.8967 51.9369 22.05L51.7992 22.509C51.7051 22.8141 51.6075 23.1177 51.5109 23.4211L51.4359 23.6483C51.4098 23.7251 51.3841 23.8035 51.3575 23.8789L51.2007 24.3287C51.1739 24.4029 51.1497 24.4752 51.124 24.5486C51.0998 24.6213 51.0755 24.6939 51.0528 24.7661C51.0314 24.838 51.0074 24.9104 50.989 24.9818L50.9594 25.0891L50.9328 25.1957C50.9136 25.267 50.9011 25.3375 50.8862 25.4083C50.878 25.4438 50.8741 25.4788 50.8683 25.514C50.8631 25.5492 50.8568 25.5845 50.8523 25.6196L50.8419 25.7246L50.8365 25.7772C50.8351 25.7946 50.8347 25.812 50.8337 25.8294L50.8283 25.9339C50.8264 25.9688 50.8289 26.0031 50.8288 26.0378L50.8295 26.0899C50.8297 26.1072 50.8294 26.1247 50.8315 26.1417L50.8403 26.245L50.8445 26.2967L50.8527 26.3472C50.8581 26.381 50.8636 26.4147 50.8682 26.4488C50.879 26.516 50.8962 26.5869 50.9138 26.6562C50.9317 26.7256 50.9525 26.7941 50.9754 26.8621C51.0219 26.9977 51.0754 27.1325 51.1393 27.2657C51.1548 27.2988 51.1722 27.3331 51.1881 27.3647C51.1962 27.3804 51.2038 27.3962 51.2124 27.4118L51.2399 27.4584C51.2582 27.4894 51.2766 27.5206 51.2945 27.5521C51.3124 27.5836 51.334 27.6142 51.3536 27.6454C51.5146 27.8933 51.7034 28.1267 51.9209 28.3365C52.1355 28.5498 52.378 28.7396 52.6385 28.9086C52.7041 28.9501 52.769 28.9938 52.8372 29.0319L52.9388 29.0911L53.0427 29.1466C53.1111 29.1861 53.1823 29.2201 53.2531 29.2562C53.2883 29.2748 53.3246 29.2904 53.3606 29.3073L53.4688 29.3589L53.4554 29.4039C53.1491 29.3135 52.8498 29.1976 52.564 29.0537C52.5277 29.0367 52.4931 29.0166 52.4578 28.9978L52.3524 28.9403L52.2494 28.8785C52.215 28.858 52.1806 28.8376 52.1476 28.8149L52.0474 28.7486C52.0135 28.7271 51.9822 28.702 51.9495 28.6789C51.9173 28.655 51.8843 28.6322 51.8528 28.6075L51.759 28.5322C51.5101 28.3298 51.2877 28.095 51.0952 27.8382C50.9004 27.5821 50.7447 27.2981 50.6256 26.9995C50.5666 26.8497 50.5173 26.6966 50.4807 26.5394L50.4568 26.4207L50.4448 26.3613L50.4372 26.3013L50.422 26.1813C50.4189 26.1613 50.4183 26.1411 50.4171 26.121L50.4137 26.0606C50.412 26.0204 50.4078 25.9801 50.4082 25.9398L50.4093 25.819C50.4097 25.7988 50.4094 25.7787 50.4102 25.7585L50.4144 25.6983L50.4228 25.5778C50.4267 25.5378 50.4324 25.498 50.4372 25.4581C50.4425 25.4183 50.4461 25.3781 50.4538 25.3387C50.4679 25.2597 50.48 25.1802 50.4984 25.1021C50.5656 24.7883 50.6612 24.4825 50.7631 24.1808L50.9167 23.7291C50.9677 23.5788 51.0163 23.4278 51.0653 23.2764C51.263 22.6718 51.4592 22.067 51.6463 21.4595C51.7399 21.1557 51.8312 20.8513 51.9194 20.546L51.9852 20.3161C51.9954 20.2775 52.0094 20.2399 52.0216 20.2018L52.0579 20.0885C52.1059 19.9372 52.1521 19.7848 52.2026 19.6333C52.2529 19.4817 52.3073 19.3309 52.3713 19.1836C52.4027 19.1097 52.4377 19.0373 52.4739 18.9655L52.5024 18.9119L52.5167 18.8851C52.5217 18.8764 52.5272 18.868 52.5325 18.8594L52.5962 18.757C52.6169 18.7224 52.64 18.6897 52.6626 18.6566L52.7307 18.5574L52.803 18.4613L52.8391 18.4132C52.8514 18.3973 52.8644 18.3821 52.8771 18.3665L52.9535 18.2737C52.9792 18.2429 53.0069 18.2138 53.0335 18.1838C53.0861 18.1233 53.1432 18.0669 53.1997 18.01C53.2274 17.981 53.2579 17.9549 53.2872 17.9275C53.3169 17.9006 53.3458 17.8728 53.3763 17.8467L53.4685 17.7696C53.484 17.7569 53.4991 17.7437 53.5149 17.7313L53.5628 17.695L53.6586 17.6223L53.7577 17.5542L53.8072 17.5202C53.8238 17.509 53.8412 17.499 53.8581 17.4883L53.9604 17.4252C54.2366 17.2626 54.5337 17.1362 54.8414 17.048L54.8542 17.0929Z" fill="#9AA4B2"/>
</g>
</g>
<path id="Vector_4" d="M58.2123 20.1447L58.1986 20.08L58.184 20.0199L58.1745 19.9821L58.1694 19.9627L58.1651 19.9481C58.1599 19.93 58.153 19.9088 58.1465 19.8885C58.133 19.8479 58.1204 19.8069 58.1049 19.7666C58.0975 19.7465 58.0884 19.7242 58.08 19.7033L58.0737 19.6882L58.0683 19.6767L58.0631 19.6653L58.0603 19.6595C58.0588 19.6555 58.0571 19.6515 58.0551 19.6472L58.0348 19.6043L58.0165 19.5685L57.9979 19.5322L57.9738 19.4869L57.9532 19.4511L57.9429 19.4334L57.9309 19.4134L57.9189 19.3936L57.9103 19.3801L57.8871 19.3441C57.8562 19.2966 57.823 19.2493 57.7883 19.2058L57.76 19.1706L57.7528 19.1614L57.7468 19.1546L57.7348 19.1408L57.7062 19.1076L57.6881 19.0867L57.679 19.0761L57.6744 19.071C57.6747 19.0715 57.6753 19.0721 57.6758 19.073C57.6773 19.0747 57.6787 19.0764 57.6798 19.0782C57.6423 19.0375 57.6106 19.0049 57.5722 18.9677C57.5536 18.9496 57.5324 18.9299 57.5132 18.9124C57.4938 18.8956 57.4737 18.8789 57.4543 18.8623C57.4348 18.8454 57.4145 18.8306 57.3945 18.8151L57.3352 18.771C57.2934 18.741 57.251 18.7126 57.2078 18.6857C57.2293 18.7021 57.2496 18.7204 57.2671 18.7401L57.2058 18.6846C57.172 18.6651 57.138 18.6459 57.1039 18.6276C57.0893 18.6196 57.0747 18.6116 57.0601 18.6039C57.0132 18.5775 56.9582 18.5535 56.9081 18.5306C56.862 18.5117 56.8068 18.4911 56.7556 18.4719C56.7043 18.4544 56.6491 18.4396 56.5955 18.4244L56.6093 18.4301C56.5944 18.4238 56.5789 18.4186 56.5635 18.4144L56.6024 18.4278L56.5394 18.4106L56.5446 18.4129L56.5143 18.4055L56.4977 18.4015L56.4882 18.4C56.4848 18.3994 56.4828 18.3992 56.4779 18.398L56.4616 18.3946L56.429 18.3877L56.4344 18.3897L56.4645 18.4L56.4622 18.3998L56.4344 18.3897C56.4121 18.3857 56.3892 18.3812 56.3677 18.3783L56.3045 18.3697C56.2627 18.364 56.22 18.36 56.1776 18.3568C56.1353 18.3537 56.0952 18.3525 56.0462 18.3508C56.0062 18.3508 55.9678 18.3511 55.9266 18.3525C55.7594 18.3582 55.5954 18.382 55.4371 18.4224C55.2788 18.4627 55.1271 18.5197 54.9837 18.589C54.9694 18.5961 54.9551 18.6036 54.941 18.611C54.8143 18.6774 54.6943 18.7533 54.5841 18.8394C54.5225 18.8875 54.4644 18.9387 54.4078 18.9908C54.3803 19.0178 54.3531 19.0449 54.3265 19.0727C54.301 19.1016 54.2744 19.1288 54.2503 19.1589C54.1544 19.2717 54.0691 19.3924 53.9999 19.5215C53.9979 19.5253 53.9956 19.5293 53.9936 19.5333C53.9203 19.6647 53.8636 19.8046 53.8232 19.9483C53.7797 20.0912 53.7534 20.2386 53.7443 20.3872C53.7265 20.615 53.7491 20.8449 53.8015 21.0687C53.8158 21.1242 53.8313 21.1798 53.8502 21.2341C53.859 21.2616 53.8685 21.2891 53.8785 21.316L53.8931 21.357L53.9097 21.3973C53.9312 21.4511 53.9561 21.5035 53.9824 21.5556C54.009 21.6074 54.0379 21.6581 54.0671 21.7093C54.127 21.8104 54.1968 21.9057 54.2729 21.9973C54.3485 22.0894 54.4327 22.1756 54.524 22.2555C54.6073 22.3305 54.6983 22.3986 54.7945 22.4601C54.8025 22.465 54.8102 22.4701 54.8182 22.475C54.9227 22.5411 55.0338 22.5998 55.1506 22.6485C55.2673 22.6977 55.3896 22.7355 55.5155 22.7635C55.6418 22.7925 55.7711 22.8093 55.9025 22.815C56.0342 22.8214 56.1673 22.8148 56.3004 22.7976C56.4329 22.7795 56.566 22.7481 56.694 22.7063C56.7564 22.6871 56.8231 22.6579 56.8849 22.6333C56.8903 22.6313 56.8992 22.6273 56.9069 22.6238L56.931 22.613L56.9782 22.5904C57.0097 22.5746 57.0409 22.5583 57.0718 22.5414L57.1136 22.5185L57.1585 22.4922C57.1886 22.4745 57.2175 22.455 57.2461 22.4355C57.3034 22.3969 57.3603 22.3542 57.4127 22.3113C57.4654 22.2689 57.5195 22.222 57.5693 22.1725C57.5939 22.1482 57.62 22.1207 57.6417 22.0969L57.7107 22.0176L57.7451 21.9773C57.7559 21.9638 57.7662 21.9498 57.7765 21.9358L57.8395 21.8516C57.8498 21.8373 57.8604 21.8241 57.8704 21.8087L57.9005 21.7612L57.9242 21.7225L57.9311 21.711L57.9345 21.705C57.9325 21.7082 57.9308 21.7111 57.9288 21.7139L57.9385 21.6976L57.9345 21.705C57.9385 21.6985 57.9425 21.6919 57.9462 21.6848L57.9405 21.6942L57.95 21.6776L57.9523 21.6733L57.9528 21.6724C57.9528 21.6727 57.9525 21.6733 57.9523 21.6739L57.9849 21.6143L58.0144 21.5565C58.0339 21.5179 58.0522 21.4781 58.0693 21.4377L58.0934 21.3808C58.102 21.359 58.1106 21.337 58.118 21.315L58.128 21.2852L58.1369 21.2577L58.1461 21.2291L58.1578 21.1896L58.1656 21.1627L58.1753 21.1269L58.1839 21.0923L58.191 21.0625C58.1959 21.041 58.1999 21.0213 58.2042 21.001C58.2085 20.9821 58.2131 20.9566 58.2168 20.9348C58.2237 20.8919 58.2311 20.8475 58.2362 20.8055C58.2394 20.7849 58.2408 20.7634 58.2423 20.7402L58.246 20.6723C58.2552 20.4999 58.2458 20.3173 58.2123 20.1447ZM57.663 20.6393C57.6553 20.7724 57.6341 20.9061 57.5986 21.0352C57.5634 21.164 57.5139 21.2911 57.4532 21.4082L57.4334 21.4448C57.4265 21.4574 57.4197 21.47 57.4128 21.4812C57.3994 21.5047 57.3856 21.5281 57.3699 21.5508L57.3246 21.6192L57.3017 21.6532L57.2765 21.6856C57.2119 21.774 57.138 21.855 57.0582 21.93C56.978 22.0056 56.8927 22.0732 56.8005 22.1341C56.7553 22.1648 56.7086 22.1931 56.6603 22.2191L56.587 22.2566C56.5626 22.2689 56.5383 22.2815 56.5128 22.2921C56.3125 22.3817 56.0969 22.4364 55.8777 22.4521C55.7683 22.4602 55.6578 22.4593 55.5488 22.4476C55.4411 22.4367 55.3341 22.4178 55.2299 22.3883C55.2282 22.3878 55.2268 22.3875 55.225 22.3869C55.0132 22.3271 54.8111 22.2323 54.6311 22.1049C54.451 21.9776 54.2922 21.8204 54.1631 21.6412C54.0348 21.4612 53.9367 21.2599 53.8745 21.0478C53.813 20.8354 53.7898 20.6122 53.803 20.3912C53.8227 20.1347 53.8969 19.8828 54.0196 19.6573C54.0343 19.6301 54.0497 19.6035 54.0657 19.5771C54.2169 19.3324 54.4241 19.1226 54.6674 18.97C54.7888 18.8933 54.9185 18.8297 55.0536 18.7808C55.1386 18.7504 55.2256 18.7261 55.3138 18.7075C55.3661 18.6966 55.4185 18.6877 55.4715 18.6811C55.7548 18.6445 56.0474 18.6697 56.3202 18.7521C56.3207 18.7524 56.321 18.7524 56.3216 18.7527L56.325 18.7539L56.3671 18.7673L56.4089 18.7816L56.402 18.7785L56.404 18.7791L56.4121 18.7828L56.4507 18.7971L56.4527 18.7977L56.453 18.798H56.4535L56.4547 18.7986L56.4564 18.7994C56.4979 18.8166 56.5394 18.8329 56.5803 18.8521C56.6204 18.8721 56.6605 18.8913 56.7005 18.9134C56.7392 18.9363 56.7784 18.9574 56.8148 18.9838L56.9255 19.0593C56.9264 19.0599 56.9272 19.0608 56.9281 19.0613C56.9604 19.0857 56.9919 19.1109 57.0226 19.1372C57.0409 19.1532 57.0595 19.1698 57.0775 19.187C57.0893 19.1976 57.1007 19.2088 57.1119 19.2196C57.1405 19.2485 57.1691 19.2769 57.1957 19.3069C57.2221 19.3359 57.2476 19.3668 57.2724 19.3971C57.2705 19.3943 57.2684 19.3908 57.267 19.3877L57.2739 19.3988L57.2742 19.3994L57.2756 19.4014L57.2765 19.4023L57.2776 19.404L57.2799 19.4071L57.2848 19.4134L57.2942 19.4257L57.3137 19.4521C57.3274 19.4701 57.3394 19.4879 57.3517 19.5056C57.3764 19.542 57.3998 19.5789 57.4216 19.617C57.4436 19.6547 57.4642 19.6937 57.4837 19.7332C57.5017 19.7704 57.5209 19.8133 57.5367 19.8522L57.5387 19.8563L57.5461 19.8757L57.555 19.8995C57.5604 19.9152 57.5664 19.9307 57.5716 19.9467C57.5827 19.9785 57.5913 20.0108 57.6008 20.0432C57.6108 20.0752 57.6188 20.1087 57.6254 20.1402C57.6325 20.1731 57.6388 20.2063 57.6443 20.2392C57.6656 20.3714 57.6724 20.5054 57.663 20.6393ZM56.601 18.4387L56.599 18.4381L56.581 18.4296L56.601 18.4387ZM57.6804 19.0787C57.6879 19.0879 57.695 19.0976 57.7016 19.1076C57.7179 19.1317 57.732 19.1577 57.7429 19.1838L57.6804 19.0787ZM58.0551 19.6472C58.0502 19.6347 58.0442 19.6212 58.038 19.6092L58.0551 19.6472ZM57.1675 18.6591L57.1377 18.6422L57.2059 18.6846L57.2067 18.6848C57.1938 18.6754 57.1809 18.6668 57.1675 18.6591Z" fill="#9AA4B2"/>
</g>
<path id="Vector_5" d="M59.0112 54.3589C58.7535 55.3066 58.3539 56.2192 57.8224 57.0522C57.2278 57.9842 56.3425 58.704 55.6893 59.59C55.074 60.4245 55.059 61.5759 54.9827 62.5956C54.8013 65.0178 55.0616 67.4845 55.7585 69.8525C55.9249 70.4179 56.1175 71.0073 55.9912 71.5721C55.7868 72.4867 54.8772 72.5503 54.0506 72.6116C52.8059 72.7038 51.5236 72.749 50.2708 72.7154C45.0983 72.5766 39.7183 71.0414 34.9935 68.9591C32.3659 67.801 29.8635 66.3596 27.6061 64.6238C25.6854 63.1468 23.2853 61.2761 23.0419 58.7906C22.8588 56.9204 25.7721 56.9386 27.0949 56.6195C29.0892 56.1385 29.2793 54.6603 30.3552 53.2996C31.5029 51.8482 31.2785 49.4987 32.8119 48.3588C33.7818 47.6378 34.742 47.3946 35.869 47.0174C37.1167 46.5998 38.1629 45.7744 39.1023 44.9295C41.2298 43.0157 43.2466 41.3955 46.3079 41.0032C54.1401 39.9994 60.9591 47.1936 59.0112 54.3589Z" fill="#CDD5DF"/>
<g id="Group_4">
<path id="Vector_6" d="M34.7912 48.1148C34.7679 48.0405 34.7251 47.9715 34.6562 47.911C34.6488 47.904 34.6407 47.8979 34.6329 47.892C34.4717 47.7754 34.2032 47.8465 34.0329 47.9743C33.8276 48.1391 33.6338 48.3103 33.429 48.4567C33.4288 48.4567 33.4286 48.4569 33.4284 48.4571C33.3016 48.5474 33.1709 48.6283 33.0306 48.6924C33.0306 48.6924 33.0304 48.6926 33.0302 48.6926C32.8677 48.7669 32.6927 48.8187 32.4966 48.8367C32.7095 48.5788 32.9925 48.3896 33.2469 48.1763C33.1161 48.2637 32.9697 48.32 32.8156 48.3564H32.8154C32.5321 48.4232 32.2228 48.4226 31.9391 48.4239C31.6716 48.4186 31.3996 48.4061 31.1524 48.4074C30.9055 48.4086 30.6831 48.4237 30.5156 48.4725C29.9784 48.6295 29.5427 48.9568 29.123 49.2988C29.0056 49.3942 28.8896 49.4909 28.773 49.5852C28.7728 49.5854 28.7726 49.5857 28.7724 49.5859C28.7716 49.5865 28.7707 49.5871 28.7699 49.588C28.7697 49.588 28.7697 49.588 28.7694 49.5882C28.769 49.5886 28.7684 49.589 28.768 49.5892C28.6884 49.6535 28.6084 49.717 28.5276 49.7782C27.9987 50.1785 27.4549 50.5506 26.9471 50.971C26.7779 51.1113 26.6128 51.2567 26.4535 51.4103C26.0661 51.8681 25.6119 52.279 25.1616 52.6931C25.0116 52.8313 24.8618 52.9698 24.7156 53.1118C23.8949 53.9122 23.235 54.8965 23.0359 56.0225C22.9254 56.6634 23.0283 57.3057 23.2282 57.9337C23.4188 58.532 23.6971 59.1173 23.9626 59.6752C23.9372 59.6126 23.9539 59.5377 24.0017 59.4552C24.2671 58.995 25.493 58.2963 25.7481 58.1861C26.5492 57.84 27.4397 57.7386 28.3247 57.8613C30.1024 58.1076 30.7691 57.5924 31.4476 56.0849C32.31 54.1682 33.1802 52.2553 34.0464 50.3406C34.1615 50.086 34.2766 49.8315 34.3917 49.5767C34.4635 49.4195 34.5441 49.2319 34.6167 49.0349V49.0347C34.6169 49.034 34.6171 49.0338 34.6173 49.0332C34.63 48.9987 34.6425 48.964 34.6545 48.9293C34.6685 48.8836 34.6844 48.8358 34.7007 48.7867C34.7034 48.7791 34.7059 48.7711 34.7087 48.7633C34.7802 48.5487 34.8538 48.3128 34.7912 48.1148ZM25.4656 56.9632C25.4637 56.9585 25.4618 56.9541 25.4601 56.9495C25.4675 56.967 25.4751 56.9848 25.4828 57.0024C25.477 56.9892 25.4713 56.9763 25.4656 56.9632Z" fill="#CDD5DF"/>
<path id="Vector_7" d="M26.8936 51.2172C26.896 51.2152 26.8985 51.2133 26.9009 51.2114C26.9048 51.2082 26.9086 51.2051 26.9125 51.202C26.9061 51.207 26.8999 51.2121 26.8936 51.2172Z" fill="#130E28"/>
<path id="Vector_8" d="M26.9136 51.2036L26.914 51.2032L26.917 51.2005L26.9136 51.2036Z" fill="#130E28"/>
<path id="Vector_9" d="M26.9144 51.2013C26.9137 51.2019 26.9129 51.2025 26.9121 51.2032C26.9136 51.202 26.9151 51.2008 26.9165 51.1996C26.9159 51.2001 26.9151 51.2007 26.9144 51.2013Z" fill="#130E28"/>
</g>
<path id="Vector_10" d="M65.0818 60.5247C64.3993 59.4689 63.3892 58.4773 62.4876 57.4395C62.4872 57.4393 62.487 57.4388 62.4868 57.4386C62.2923 57.2152 62.1032 56.9894 61.9231 56.7603C61.5169 56.2432 61.1589 55.7094 60.8989 55.1468L60.8987 55.1466C60.7709 54.8686 60.6666 54.5836 60.5921 54.2901C60.4677 53.7971 60.6092 53.5587 60.7417 53.2026V53.2024C60.7766 53.1087 60.8107 53.0067 60.8394 52.8897C60.8458 52.863 60.8515 52.8368 60.8559 52.811C60.9677 52.1883 60.5591 51.7653 60.4226 51.1674C60.3355 50.7855 60.3922 50.319 60.4711 49.8717C60.5225 49.5797 60.5836 49.2964 60.6198 49.0495C60.7429 48.2148 60.905 47.3878 61.0895 46.5658C61.1272 46.3978 61.1659 46.23 61.2052 46.0624C61.3227 45.5627 61.4469 45.0644 61.5747 44.5674C61.6343 44.3349 61.6946 44.1026 61.7551 43.8703C62.0101 42.8938 62.2701 41.9189 62.5052 40.9374C62.0964 42.5503 60.4213 43.3951 58.789 43.8172C58.467 43.9008 58.1467 43.9676 57.8382 44.0205C57.7218 44.0406 57.6052 44.059 57.4882 44.0757C57.3501 44.0958 57.2115 44.1136 57.0727 44.1295C57.0117 44.1362 56.9504 44.143 56.889 44.1489C56.8664 44.1512 56.8437 44.1536 56.8209 44.1557C56.7636 44.1616 56.7058 44.1667 56.6482 44.1716C56.5668 44.1785 56.3148 44.1551 56.2674 44.202C56.2217 44.2471 56.1961 44.3567 56.1775 44.4629V44.4631C56.1627 44.5459 56.1525 44.6267 56.1402 44.6726C56 45.1939 55.8595 45.7153 55.7213 46.237C55.6665 46.4439 55.6126 46.6509 55.5595 46.8575C55.3284 47.7584 55.1154 48.66 54.9321 49.57C54.8921 49.768 54.8536 49.9663 54.8168 50.1652V50.1654C54.7565 50.4904 54.7002 50.8166 54.6488 51.1444C54.6099 51.3917 54.5682 51.6405 54.525 51.8902V51.8904C54.4749 52.1805 54.4231 52.4716 54.3714 52.764C54.3638 52.8082 54.3558 52.8526 54.3482 52.8971C54.2733 53.3226 54.2001 53.75 54.1351 54.178C53.9887 55.1409 53.8846 56.1055 53.9007 57.0559C53.9011 57.0842 53.9015 57.1126 53.9017 57.1407C53.9026 57.1858 53.9028 57.2309 53.903 57.2757C53.9043 57.5999 53.8962 57.9238 53.8789 58.2469C53.8516 58.7604 53.8006 59.2722 53.7265 59.7802C53.7128 59.8748 53.698 59.9693 53.6825 60.0637C53.6402 60.3237 53.5916 60.5827 53.537 60.8402C53.3436 61.7521 52.9376 62.6299 52.7821 63.5458C52.7383 63.8023 52.7144 64.0619 52.7201 64.3259C52.7362 65.0553 52.7679 65.8134 53.149 66.4824C53.245 66.6508 53.3413 66.8207 53.4363 66.992C54.2441 68.446 54.9742 70.0062 54.7902 71.6493C54.7627 71.8945 54.6911 72.0714 54.674 72.2155C54.6594 72.3365 54.6831 72.4347 54.8035 72.5316C54.8492 72.5684 54.9091 72.6052 54.9861 72.6429C55.4336 72.8621 56.1618 72.8411 56.6449 72.8377C57.7658 72.8297 58.859 72.576 59.9239 72.2988C60.178 72.2303 60.4309 72.1674 60.6818 72.1184C60.949 72.053 61.2131 71.9777 61.472 71.892C63.6777 71.1614 65.6818 69.7053 66.4607 67.5701C66.4814 67.5129 66.5013 67.4558 66.5201 67.3987C67.2795 65.0849 66.411 62.5806 65.0818 60.5247Z" fill="#CDD5DF"/>
<path id="Vector_11" d="M68.8205 66.8142C68.8067 66.9352 68.7918 67.0544 68.7754 67.1575C68.7945 67.0437 68.8094 66.9292 68.8205 66.8142Z" fill="#694066"/>
<g id="Group_5">
<g id="Group_6">
<path id="Vector_12" d="M48.728 42.9322L51.6105 57.3204L51.7248 57.8911C51.4265 58.041 50.9114 58.4045 51.0134 58.9781C51.0144 58.9845 51.0156 58.9909 51.0168 58.9973C51.0157 58.9911 51.0143 58.9849 51.0131 58.9785C50.9481 58.6541 50.8583 58.2055 50.7506 57.6658C50.0409 54.1174 48.5435 46.6256 48.1231 44.5247C48.0934 44.3758 48.0547 44.2239 48.0328 44.074C47.943 43.4581 48.3853 43.1064 48.728 42.9322Z" fill="#CDD5DF"/>
<path id="Vector_13" d="M49.2896 42.7515L52.1845 57.1834L52.2806 57.6624L52.2901 57.7106C52.2406 57.7185 52.1915 57.7283 52.1425 57.7399C51.9991 57.7739 51.859 57.824 51.7249 57.8911L51.6106 57.3204L48.728 42.9322C48.9062 42.8413 49.0957 42.7825 49.2896 42.7515Z" fill="#9AA4B2"/>
<path id="Vector_14" d="M49.971 42.7699L52.8503 57.1046L52.9123 57.4119L52.9753 57.7265C52.7448 57.675 52.5134 57.6749 52.2901 57.7106L52.2806 57.6624L52.1844 57.1834L49.2896 42.7515C49.5115 42.7159 49.7418 42.7172 49.971 42.7699Z" fill="#CDD5DF"/>
<path id="Vector_15" d="M50.6186 43.1363L53.427 57.1007L53.4674 57.3022L53.6251 58.0862C53.4412 57.8726 53.1963 57.7756 52.9755 57.7265L52.9125 57.4119L52.8505 57.1046L49.9712 42.7699C50.1917 42.8208 50.4357 42.9204 50.6186 43.1363Z" fill="#CDD5DF"/>
</g>
<path id="Vector_16" d="M56.9979 65.4089C54.9983 67.4339 51.7368 67.4393 49.6674 65.9432C48.8259 65.3348 48.1816 64.4783 47.8991 63.4085C48.0133 63.9231 47.9747 63.882 47.8425 63.3458C47.3635 61.1853 48.6627 58.734 50.7504 57.6658C50.9548 57.5611 51.1668 57.4698 51.3856 57.3933C51.46 57.3673 51.535 57.3429 51.6104 57.3204C51.799 57.2639 51.9907 57.2184 52.1842 57.1834C52.4043 57.1435 52.6268 57.1174 52.8501 57.1046C53.042 57.0936 53.2346 57.0924 53.4266 57.1008C55.0215 57.1694 56.5772 57.8943 57.5005 59.0979C57.5385 59.1474 57.5757 59.1979 57.6115 59.2491C58.8936 61.0803 58.6268 63.7591 56.9979 65.4089Z" fill="#9AA4B2"/>
<path id="Vector_17" d="M57.9701 61.4844C57.7607 62.7794 56.768 63.787 55.3776 64.006C53.9846 64.2254 52.5609 63.6693 51.683 62.6803C50.697 61.5695 50.3504 59.9126 51.2262 58.6052C52.1026 57.297 53.8571 56.9991 55.2932 57.5154C56.948 58.1105 58.2493 59.7576 57.9701 61.4844Z" fill="#E3E8EF"/>
<path id="Vector_18" opacity="0.4" d="M56.6089 59.4651C57.1186 60.845 55.7852 61.6215 54.5015 60.8737C52.9643 59.9782 53.1663 57.9359 54.7053 58.0237C55.4436 58.0658 56.3297 58.7093 56.6089 59.4651Z" fill="#CDD5DF"/>
<path id="Vector_19" d="M55.8081 59.397C56.2704 60.3557 54.9399 60.0303 54.5841 59.1952C54.409 58.7841 54.4528 58.6017 54.7997 58.5987C55.0979 58.5961 55.6245 59.0163 55.8081 59.397Z" fill="#EEF2F6"/>
</g>
<g id="Group_7" opacity="0.9">
<path id="Vector_20" d="M49.6387 65.9825C48.8644 65.4228 48.2906 64.6757 47.9773 63.8203C47.9754 63.8204 47.964 63.8207 47.9638 63.8207C47.9219 63.8207 47.9092 63.8207 47.7951 63.3574C47.5622 62.3073 47.7382 61.1414 48.2905 60.0739C48.8308 59.0295 49.6843 58.1656 50.6953 57.6394C50.3667 55.9965 49.873 53.5272 49.3953 51.1377C48.8371 48.3456 48.3007 45.6625 48.0749 44.5343C48.065 44.4847 48.0542 44.4348 48.0432 44.3847C48.0213 44.2843 47.9989 44.182 47.9842 44.081C47.8868 43.4124 48.3943 43.0471 48.7054 42.8889C48.8824 42.7987 49.0761 42.7363 49.2813 42.7035C49.3845 42.687 49.4879 42.6786 49.5886 42.6786C49.7224 42.6786 49.8546 42.6934 49.9813 42.7226C50.2739 42.7901 50.4942 42.9152 50.6549 43.1049L50.663 43.1145L53.4664 57.054C54.2528 57.093 55.0373 57.292 55.7362 57.63C56.4632 57.9815 57.0865 58.4789 57.5387 59.0684L57.5676 59.106L57.5305 59.1358C57.5121 59.1506 57.4923 59.1634 57.4716 59.1736C57.454 59.1824 57.4364 59.1893 57.4192 59.1941C57.4123 59.1964 57.4024 59.199 57.3904 59.2015C57.3699 59.2057 57.3486 59.2077 57.3268 59.2077C57.3182 59.2077 57.3096 59.2074 57.301 59.2068C57.172 59.1966 57.0318 59.1934 56.8963 59.1902L56.852 59.1892C56.7979 59.1879 56.7469 59.1867 56.698 59.1847C56.6391 59.1827 56.5753 59.1796 56.5089 59.1764L56.4358 59.1727C56.3179 59.167 56.1931 59.1618 56.0797 59.1618C56.0675 59.1618 56.0554 59.1618 56.0435 59.1619C55.9903 59.1628 55.9366 59.1667 55.8838 59.1736C55.8136 59.1828 55.7408 59.1935 55.6612 59.2064C55.5807 59.2197 55.501 59.2341 55.4244 59.2493C55.1818 59.2979 54.9393 59.3606 54.7038 59.4357C54.3761 59.5403 54.0542 59.671 53.7472 59.8241C53.699 59.8482 53.6505 59.8732 53.603 59.8985C52.6803 60.3867 51.8527 61.1066 51.2096 61.9804C50.6415 62.752 50.2214 63.6243 49.9609 64.5732C49.8854 64.8478 49.8325 65.1438 49.8039 65.4531L49.7992 65.502C49.7897 65.6027 49.7803 65.7039 49.7712 65.8056C49.7655 65.8673 49.7427 65.9252 49.7053 65.9731L49.6764 66.0099L49.6387 65.9825Z" fill="#9AA4B2"/>
</g>
<path id="Vector_21" d="M58.7953 55.1469C56.7806 53.9396 54.6243 52.877 52.3568 52.1931C51.6872 51.9911 51.021 51.8075 50.3533 51.5943C48.8242 51.1061 47.2735 50.6833 45.7084 50.3266C42.6696 49.6341 39.5683 49.186 36.4635 49.0658C33.5559 48.9532 30.6012 49.1111 27.8067 49.8051C25.0167 50.498 21.8676 51.8821 20.8911 54.637C21.4005 53.3642 22.1123 52.2161 23.0942 51.2225C24.0559 50.2492 25.1583 49.4264 26.3515 48.7145C27.6232 47.9559 29.0104 47.325 30.4391 46.8562C33.0081 46.0132 35.8175 45.8018 38.5542 45.8706C44.3971 46.0176 50.3537 47.4689 55.675 49.9013C58.2488 51.0778 60.7409 52.5239 62.8541 54.368C64.1443 55.494 65.2373 56.801 66.1797 58.1931C67.7347 60.4903 68.969 63.2406 68.8803 65.9644C68.8673 66.3654 68.8386 66.7614 68.7755 67.1575C69.114 65.1449 68.1501 63.1368 66.8854 61.5105C65.5741 59.8242 63.8879 58.404 62.106 57.1713C61.0442 56.4368 59.9349 55.7653 58.7953 55.1469Z" fill="#CDD5DF"/>
<path id="Vector_22" d="M65.6667 60.1233C63.7942 57.2288 61.0607 54.9196 57.9073 53.3166C55.3483 52.0158 52.5569 51.161 49.7271 50.6662C48.236 50.4055 46.7614 50.306 45.2602 50.2104C45.0504 50.197 44.8442 50.1365 44.6373 50.0936C44.0426 49.9703 43.4459 49.8568 42.8477 49.7534C41.692 49.5538 40.5303 49.3921 39.3652 49.2726C37.1123 49.0414 34.8421 48.9636 32.5935 49.1037C30.4836 49.2351 28.3693 49.5532 26.389 50.2151C24.5053 50.8448 22.6203 51.83 21.5113 53.4333C21.2527 53.8071 21.042 54.2114 20.8911 54.637C21.4005 53.3642 22.1123 52.2161 23.0942 51.2225C24.0559 50.2492 25.1583 49.4264 26.3515 48.7145C27.6232 47.9559 29.0104 47.325 30.4391 46.8562C33.0081 46.0132 35.8175 45.8018 38.5542 45.8706C44.3971 46.0176 50.3537 47.4689 55.675 49.9013C58.2488 51.0778 60.7409 52.5239 62.8541 54.368C64.1443 55.494 65.2373 56.801 66.1797 58.1931C67.7347 60.4903 68.969 63.2406 68.8803 65.9644C68.8673 66.3654 68.8386 66.7614 68.7755 67.1575C69.216 64.5385 67.512 62.0061 65.6667 60.1233Z" fill="#CDD5DF"/>
<path id="Vector_23" d="M53.1923 47.8623C52.8424 48.0001 52.4684 48.0732 52.1094 48.0145C51.2956 47.8783 50.4883 47.7437 49.6836 47.616C49.6768 47.6149 49.6702 47.6139 49.6636 47.6129C49.5099 47.5884 49.356 47.5642 49.2026 47.5404C49.1232 47.5281 49.0441 47.5157 48.9649 47.5037C48.8623 47.4879 48.7599 47.4723 48.6574 47.4568C48.497 47.4326 48.3364 47.4088 48.1759 47.3854C47.9275 47.3489 47.6793 47.3134 47.431 47.2791C47.4243 47.2783 47.4177 47.2773 47.4109 47.2764C46.2181 47.1117 45.0224 46.9719 43.8105 46.8731C43.5056 46.8481 43.2059 46.8274 42.906 46.8117C42.0101 46.7652 41.1132 46.7626 40.2094 46.8287C39.9307 46.8555 39.6526 46.8914 39.3746 46.9377C39.0969 46.984 38.8192 47.0409 38.5419 47.1098C38.3336 47.1499 38.1258 47.1922 37.9186 47.2372C36.8829 47.4625 35.8635 47.753 34.8836 48.1278C34.8529 48.1395 34.822 48.1512 34.7913 48.1633C34.2931 48.3551 33.7773 48.5653 33.3172 48.8393C33.3002 48.8492 33.2833 48.8594 33.2665 48.8698C33.1339 48.9506 33.0064 49.0371 32.8856 49.1301C32.8832 49.132 32.8808 49.1337 32.8785 49.1355C32.8577 49.1367 32.837 49.1379 32.8163 49.139C32.7985 49.14 32.7807 49.141 32.7632 49.1421C32.7067 49.1454 32.6501 49.1487 32.5935 49.1523C32.5349 49.1559 32.4762 49.1596 32.4174 49.1636C32.3688 49.1669 32.3203 49.1704 32.2717 49.1739C32.2435 49.1757 32.2152 49.1779 32.1871 49.18C32.1576 49.1823 32.1282 49.1844 32.0989 49.1867C32.0899 49.1874 32.081 49.1881 32.0721 49.1888C32.0011 49.1943 31.9302 49.2003 31.8593 49.2062C30.972 49.2817 30.0896 49.3938 29.2177 49.552C29.0691 49.579 28.9191 49.6076 28.768 49.6377C28.6964 49.6521 28.6247 49.6668 28.5525 49.6819C28.5423 49.684 28.5319 49.6862 28.5215 49.6884C28.5026 49.6924 28.4835 49.6963 28.4645 49.7005C28.3193 49.7313 28.1732 49.7638 28.0266 49.7981C28.0154 49.8007 28.0041 49.8033 27.993 49.8061C25.4997 50.3917 22.8665 51.4631 21.4984 53.4919C21.4905 53.5037 21.4824 53.5155 21.4746 53.5273C21.3652 53.6922 21.2641 53.8633 21.1721 54.041C21.1553 54.0738 21.1386 54.1067 21.1225 54.1398C21.1098 54.1651 21.0975 54.1905 21.0855 54.2162C21.074 54.24 21.0629 54.264 21.052 54.2882C21.0508 54.291 21.0495 54.2937 21.0482 54.2967C21.0458 54.3019 21.0433 54.3072 21.041 54.3124C21.0436 54.3061 21.0461 54.2998 21.0488 54.2936C21.1251 54.1075 21.2088 53.925 21.2996 53.7458C21.4073 53.532 21.5248 53.3227 21.65 53.1167C22.8196 51.1907 24.655 49.707 26.6796 48.5719C26.6847 48.569 26.6898 48.5663 26.6948 48.5634C27.2635 48.2454 27.8468 47.9546 28.4345 47.6893C29.0554 47.4088 29.7306 47.2034 30.3602 46.9308C30.5622 46.8436 30.7593 46.7494 30.9486 46.6436C31.6597 46.2464 32.1694 45.6525 32.5979 45.0004C32.8979 44.5437 33.1577 44.0583 33.419 43.5921C33.8706 42.7862 34.2648 41.9528 34.6068 41.0987C34.8089 40.5938 34.9926 40.0818 35.159 39.564C35.5401 38.3786 35.8213 37.1649 36.1018 35.952C36.1579 35.7095 36.214 35.4669 36.2708 35.2247C36.7983 32.1492 37.6474 29.0257 39.9103 26.7384C40.0992 26.5246 40.296 26.3165 40.5006 26.1152C41.3193 25.3101 42.2721 24.6172 43.3083 24.095C45.5563 22.9622 48.1446 22.4199 50.7349 22.5134C51.0422 22.5245 51.3496 22.5446 51.6565 22.5737C51.8971 22.5964 52.1373 22.6248 52.377 22.6587C54.4039 22.9454 56.3748 23.531 58.1864 24.439C58.4637 24.5779 58.7374 24.7246 59.0069 24.8788C59.5206 25.1727 60.0195 25.4945 60.5009 25.8446C59.9931 25.4928 59.4921 25.1826 59.0001 24.91C58.7226 24.7559 58.4479 24.614 58.1765 24.4831C57.3446 24.0814 56.5433 23.784 55.7847 23.567C54.104 23.0868 52.6325 23.0031 51.4994 23.0642C51.1379 23.0836 50.8109 23.1178 50.5225 23.1588C49.7695 23.2654 49.2795 23.4168 49.1274 23.4681C48.7957 23.5797 48.4706 23.7082 48.1563 23.8558C47.0204 24.3892 46.0732 25.184 45.377 26.1794C44.6434 27.2282 44.1822 28.4311 43.8015 29.636C43.2843 31.2734 42.8972 32.9502 42.4789 34.6146C42.2074 35.6944 41.9404 36.7755 41.6737 37.8565C41.6071 38.127 41.5465 38.3965 41.5198 38.6648C41.5043 39.141 41.5161 39.6155 41.5577 40.0884C41.5642 40.162 41.5714 40.2356 41.5796 40.3091C41.5972 40.472 41.6188 40.6346 41.6448 40.7974C41.6865 41.0421 41.7542 41.2722 41.8438 41.4896C41.934 41.7071 42.0463 41.9118 42.1777 42.1056C42.2483 42.2145 42.325 42.3171 42.4068 42.4137C42.8116 42.8923 43.3455 43.2303 43.9229 43.5182C43.9686 43.5409 44.0148 43.5634 44.061 43.5856C44.1904 43.6476 44.322 43.7077 44.4551 43.7667C44.9157 43.9809 45.3859 44.167 45.8658 44.3169C46.5768 44.5368 47.3162 44.7149 48.0572 44.8985C48.0636 44.9 48.07 44.9018 48.0767 44.9034C48.3179 44.9632 48.5591 45.0237 48.7997 45.0864C48.9555 45.127 49.1111 45.1685 49.266 45.2116C49.4423 45.2605 49.6177 45.3111 49.7919 45.3643C49.94 45.4094 50.0874 45.4565 50.2336 45.5056C50.2401 45.5077 50.2464 45.5098 50.2527 45.5121C51.437 45.9116 52.5519 46.4553 53.4756 47.3567C53.6739 47.5466 53.4013 47.7832 53.1923 47.8623Z" fill="#CDD5DF"/>
<g id="Group_8">
<path id="Vector_24" d="M68.876 65.9548C68.8544 65.3804 68.7438 64.8075 68.5638 64.2578C68.4481 63.9044 68.3055 63.5601 68.1426 63.2259C67.4008 61.7045 66.2892 60.3567 64.9969 59.1617C64.0446 58.2809 62.9949 57.4835 61.9228 56.7603C61.4601 56.448 60.9934 56.1497 60.5287 55.8645C59.978 55.5266 59.4179 55.2022 58.8499 54.8914C57.4029 54.0986 55.9041 53.3924 54.3712 52.764C53.7204 52.497 53.0632 52.2441 52.4014 52.0046C52.1951 51.9299 51.9882 51.8565 51.781 51.7846C51.5384 51.6999 51.295 51.6172 51.0511 51.5364C50.8374 51.4653 50.6235 51.3957 50.4091 51.3274C50.0808 51.2226 49.7515 51.1211 49.4217 51.0225C49.4158 51.0208 49.4098 51.0189 49.4039 51.0172C49.2023 50.9569 49.0002 50.8978 48.798 50.8396C48.7914 50.838 48.7851 50.8361 48.7785 50.8343C48.6298 50.7916 48.4806 50.7495 48.3314 50.708C48.1552 50.659 47.9787 50.6107 47.8019 50.5637C47.6459 50.5219 47.49 50.4808 47.3336 50.4404C47.1783 50.4002 47.0228 50.3608 46.8673 50.3221C46.8671 50.3221 46.8669 50.3219 46.8667 50.3219C46.7806 50.3003 46.6945 50.2792 46.6081 50.258C46.6016 50.2563 46.595 50.2549 46.5884 50.2531C44.1115 49.6486 41.5908 49.2132 39.0579 48.9811C38.8844 48.9653 38.7105 48.9502 38.536 48.9363C38.0836 48.8999 37.6308 48.87 37.1781 48.8468C36.359 48.8051 35.5307 48.7827 34.7003 48.7867C34.2225 48.789 33.7441 48.8 33.2662 48.8211C32.9372 48.8357 32.6086 48.8552 32.2804 48.8797C31.216 48.9593 30.1585 49.0941 29.1226 49.2987C28.0507 49.51 27.0024 49.7963 25.9929 50.1738C24.3824 50.7763 22.8169 51.6555 21.7766 52.978C21.663 53.1226 21.558 53.2711 21.4613 53.4232C21.4044 53.5133 21.3503 53.6047 21.2993 53.6972C21.1512 53.9648 21.0287 54.2424 20.9311 54.5272C20.9305 54.5291 20.9298 54.5308 20.9292 54.5327C20.9288 54.5336 20.9286 54.5342 20.9284 54.535C20.9282 54.5359 20.9279 54.5367 20.9275 54.5374C20.922 54.5541 20.9163 54.5704 20.9108 54.5873C20.9106 54.5879 20.9104 54.5888 20.9102 54.5894C20.5911 55.5614 20.563 56.6159 20.827 57.6552C21.2457 59.3029 22.266 60.7903 23.4392 62.0729C24.6833 63.433 26.1455 64.6117 27.6883 65.6584C31.0127 67.9136 34.7559 69.5988 38.5899 70.8668C42.5475 72.176 46.6699 73.0613 50.8166 73.4134C54.6934 73.7424 58.743 73.6582 62.4315 72.5584C63.3191 72.2937 64.1867 71.9529 65.0057 71.5191C65.811 71.0926 66.5756 70.5728 67.2228 69.9283C67.8382 69.3154 68.3411 68.5839 68.6226 67.7582C68.8222 67.1728 68.8989 66.563 68.876 65.9548ZM66.0926 66.0378C66.063 66.4092 65.9868 66.7758 65.8663 67.1275C64.8814 69.9977 61.3926 71.2433 58.505 71.7886C57.5721 71.9646 56.626 72.085 55.6726 72.1571C55.3404 72.1823 55.0074 72.2016 54.6737 72.2155C52.5389 72.3042 50.3791 72.1681 48.2617 71.8958C44.6187 71.4274 41.0113 70.5248 37.5687 69.2378C34.337 68.0295 31.1855 66.4676 28.4577 64.3939C26.7631 63.1058 24.9372 61.4144 24.0014 59.4552C23.7295 58.8863 23.5327 58.2949 23.4359 57.6843V57.6841C23.3988 57.4505 23.3766 57.2144 23.37 56.9755C23.3607 56.631 23.3887 56.2872 23.4559 55.951C23.4767 55.8469 23.5008 55.7447 23.5279 55.6447C24.3215 52.7253 27.8001 51.3737 30.6665 50.7881C30.9304 50.7341 31.195 50.6851 31.461 50.6402H31.4612C32.3139 50.4967 33.1769 50.3988 34.0461 50.3406C36.3726 50.1847 38.7397 50.3118 41.0531 50.6011C42.7934 50.8183 44.5262 51.1353 46.2373 51.546C46.2436 51.5474 46.2502 51.5489 46.2567 51.5506C46.4994 51.609 46.7417 51.6693 46.9833 51.7313C47.1399 51.7715 47.296 51.8123 47.4522 51.8542C47.629 51.9016 47.8055 51.9499 47.9817 51.9991C48.1311 52.0408 48.2803 52.0834 48.429 52.1267C48.4356 52.1286 48.4421 52.1305 48.4485 52.1322C48.8748 52.256 49.2992 52.3857 49.7216 52.5213C50.054 52.6277 50.3851 52.738 50.7147 52.8516C50.9308 52.9261 51.1459 53.0018 51.3607 53.0792C51.5816 53.159 51.8021 53.2403 52.0217 53.323C52.0464 53.3323 52.0712 53.3416 52.0959 53.3511C52.3046 53.43 52.513 53.5104 52.7207 53.5925C53.1947 53.7796 53.6665 53.9746 54.1349 54.178C55.554 54.7947 56.9426 55.4893 58.2677 56.2766C59.3097 56.8953 60.3126 57.5712 61.2607 58.3116C63.6455 60.1731 66.3406 62.9433 66.0926 66.0378ZM52.4014 52.0046C52.1951 51.9299 51.9882 51.8565 51.781 51.7846C51.5384 51.6999 51.295 51.6172 51.0511 51.5364C50.8374 51.4653 50.6235 51.3957 50.4091 51.3274C50.0808 51.2226 49.7515 51.1211 49.4217 51.0225C49.4158 51.0208 49.4098 51.0189 49.4039 51.0172C49.2023 50.9569 49.0002 50.8978 48.798 50.8396C48.7914 50.838 48.7851 50.8361 48.7785 50.8343C48.6298 50.7916 48.4806 50.7495 48.3314 50.708C48.1552 50.659 47.9787 50.6107 47.8019 50.5637L47.7306 50.8265V50.8268L47.4521 51.8542C47.629 51.9016 47.8055 51.9498 47.9817 51.9991C48.1311 52.0408 48.2802 52.0833 48.429 52.1267C48.4355 52.1286 48.4421 52.1305 48.4484 52.1322C48.8748 52.256 49.2992 52.3857 49.7215 52.5213C50.0539 52.6277 50.385 52.7379 50.7147 52.8516C50.9307 52.9261 51.1459 53.0018 51.3606 53.0792C51.5815 53.159 51.802 53.2402 52.0216 53.3229C52.0464 53.3322 52.0711 53.3416 52.0959 53.3511C52.3045 53.43 52.5129 53.5104 52.7207 53.5925C53.1946 53.7795 53.6664 53.9746 54.1349 54.1779C54.1998 53.7499 54.273 53.3225 54.3479 52.897C54.3555 52.8526 54.3636 52.8082 54.3712 52.764C53.7204 52.497 53.0632 52.2441 52.4014 52.0046Z" fill="#9AA4B2"/>
</g>
<g id="Group_9">
<path id="Vector_25" d="M54.2947 52.7327C53.6691 52.4772 53.0377 52.2348 52.4018 52.0047C52.1954 51.93 51.9885 51.8566 51.7814 51.7846C51.5387 51.7 51.2954 51.6174 51.0514 51.5365C50.8378 51.4654 50.6239 51.3958 50.4096 51.3274C50.0812 51.2227 49.7518 51.1212 49.4221 51.0224C49.4162 51.0208 49.4101 51.019 49.4043 51.0172C49.2026 50.9569 49.0007 50.8979 48.7983 50.8396C48.7918 50.838 48.7855 50.836 48.779 50.8344C48.6302 50.7917 48.4809 50.7496 48.3319 50.7081C48.1557 50.6591 47.9792 50.6107 47.8022 50.5639L47.7642 50.7043L47.7309 50.8265V50.8268L47.4524 51.8542C47.6293 51.9017 47.8058 51.9498 47.9821 51.9991C48.1315 52.0408 48.2806 52.0833 48.4294 52.1268C48.4359 52.1286 48.4424 52.1306 48.4487 52.1322C48.8751 52.256 49.2996 52.3856 49.7219 52.5214C50.0542 52.6278 50.3853 52.7379 50.7151 52.8516C50.931 52.9261 51.1462 53.0017 51.3609 53.0792C51.582 53.1591 51.8023 53.2404 52.022 53.323C52.0468 53.3322 52.0715 53.3416 52.0963 53.3511C52.3048 53.4301 52.5132 53.5105 52.721 53.5926C53.1948 53.7795 53.6667 53.9747 54.1351 54.1779C54.1945 53.7872 54.2607 53.3968 54.3289 53.008C54.3352 52.9711 54.3418 52.934 54.3483 52.8971C54.3559 52.8527 54.3638 52.8081 54.3715 52.764C54.3458 52.7534 54.3204 52.7431 54.2947 52.7327ZM61.3826 57.1101C60.4345 56.3698 59.4316 55.6938 58.3896 55.0752C57.0869 54.3013 55.723 53.6169 54.3289 53.008C54.3352 52.9711 54.3418 52.934 54.3483 52.8971C54.3559 52.8527 54.3638 52.8081 54.3715 52.764C54.3458 52.7535 54.3204 52.7431 54.2947 52.7327C53.6691 52.4772 53.0377 52.2348 52.4018 52.0047C52.1954 51.93 51.9885 51.8566 51.7814 51.7846C51.5387 51.7 51.2954 51.6174 51.0514 51.5365C50.8378 51.4654 50.6239 51.3958 50.4096 51.3274C50.0812 51.2227 49.7518 51.1212 49.4221 51.0224C49.4162 51.0208 49.4101 51.019 49.4043 51.0172C49.2026 50.9569 49.0007 50.8979 48.7983 50.8396C48.7918 50.838 48.7855 50.836 48.779 50.8344C48.6302 50.7917 48.4809 50.7496 48.3319 50.7081C48.1557 50.6591 47.9792 50.6107 47.8023 50.5639C47.7388 50.5467 47.6755 50.5299 47.612 50.5132L47.5742 50.6528C47.418 50.6109 47.2618 50.57 47.1053 50.5299C46.8636 50.468 46.6213 50.4076 46.3787 50.3491C46.3722 50.3476 46.3656 50.346 46.3593 50.3446C44.6483 49.9338 42.9155 49.6169 41.1751 49.3996C38.8617 49.1104 36.4945 48.9832 34.1681 49.1392C33.2989 49.1973 32.4359 49.2954 31.5832 49.4388H31.5829C31.3171 49.4836 31.0523 49.5327 30.7885 49.5867C27.922 50.1722 24.4435 51.524 23.6498 54.4431C23.6227 54.5433 23.5987 54.6455 23.5779 54.7495C23.5106 55.0858 23.4827 55.4296 23.492 55.774C23.492 55.778 23.4922 55.7821 23.4924 55.7861C23.5036 55.7386 23.5156 55.6914 23.5282 55.6448C24.3219 52.7254 27.8005 51.3738 30.667 50.7881C30.9308 50.7341 31.1955 50.685 31.4614 50.6402H31.4616C32.3143 50.4968 33.1774 50.3989 34.0465 50.3406C36.373 50.1846 38.7402 50.3118 41.0536 50.6011C42.7939 50.8183 44.5265 51.1352 46.2375 51.5461C46.244 51.5474 46.2506 51.549 46.2571 51.5508C46.4998 51.6091 46.742 51.6694 46.9837 51.7313C47.1402 51.7716 47.2964 51.8124 47.4524 51.8542C47.6293 51.9017 47.8058 51.9499 47.9821 51.9992C48.1315 52.0408 48.2806 52.0834 48.4294 52.1268C48.4359 52.1286 48.4424 52.1307 48.4487 52.1322C48.8751 52.256 49.2996 52.3857 49.7219 52.5214C50.0542 52.6279 50.3853 52.738 50.7151 52.8517C50.931 52.9262 51.1462 53.0018 51.3609 53.0792C51.582 53.1592 51.8023 53.2404 52.022 53.323C52.0468 53.3323 52.0715 53.3417 52.0963 53.3512C52.3048 53.4302 52.5132 53.5105 52.721 53.5927C53.1948 53.7796 53.6667 53.9747 54.1351 54.178C55.5542 54.7948 56.9428 55.4895 58.268 56.2767C59.3101 56.8955 60.3129 57.5715 61.2611 58.3116C63.5105 60.0674 66.036 62.6319 66.1074 65.5141C66.1605 65.2915 66.1963 65.065 66.2145 64.8365C66.4626 61.7419 63.7674 58.9715 61.3826 57.1101Z" fill="#9AA4B2"/>
</g>
<path id="Vector_26" d="M65.9883 65.926C65.0032 68.7963 61.5146 70.0418 58.6269 70.587C57.6941 70.763 56.7479 70.8835 55.7946 70.9557C55.4624 70.9809 55.1294 71.0001 54.7958 71.014C52.6609 71.1027 50.501 70.9668 48.3837 70.6944C44.7406 70.226 41.1332 69.3233 37.6907 68.0364C34.4589 66.828 31.3074 65.2662 28.5795 63.1925C26.8849 61.9042 25.0591 60.213 24.1233 58.2537C23.8514 57.6849 23.6547 57.0935 23.5577 56.4828V56.4826C23.5214 56.2532 23.4991 56.0211 23.4924 55.7861C23.4793 55.8406 23.4674 55.8955 23.4564 55.9511C23.389 56.2872 23.3611 56.6311 23.3704 56.9755C23.3769 57.2144 23.3992 57.4505 23.4361 57.6842C23.5331 58.2949 23.7299 58.8862 24.0018 59.4553C24.9376 61.4144 26.7634 63.1058 28.458 64.3939C31.1858 66.4676 34.3373 68.0293 37.5689 69.2377C38.3942 69.5463 39.2289 69.8327 40.0714 70.0963C42.2327 70.752 44.4376 71.2797 46.6636 71.6621C46.6679 71.663 46.6722 71.6637 46.6767 71.6644C47.2041 71.7506 47.7327 71.8278 48.2621 71.8958C50.3795 72.1681 52.5393 72.3041 54.674 72.2154C55.0079 72.2015 55.3408 72.1823 55.6731 72.1571C56.6264 72.0851 57.5725 71.9646 58.5053 71.7886C61.393 71.2434 64.8817 69.9976 65.8667 67.1276C65.9872 66.7757 66.0635 66.4093 66.093 66.0378C66.1072 65.8622 66.1117 65.6875 66.1074 65.514C66.0743 65.6531 66.0345 65.7907 65.9883 65.926Z" fill="#E3E8EF"/>
<path id="Vector_27" d="M53.3315 72.3549C51.7598 72.3549 50.0659 72.2396 48.297 72.012C47.7771 71.9452 47.2488 71.8681 46.7268 71.7828L46.7173 71.7812C44.5466 71.4082 42.3477 70.886 40.1817 70.2289C39.3509 69.9689 38.5173 69.6829 37.7041 69.3788C36.0187 68.7486 34.4396 68.0506 33.0104 67.304C31.434 66.4805 29.9864 65.5702 28.7079 64.5982C27.5313 63.7039 26.4889 62.8255 25.731 61.9452C26.4294 62.6719 27.3295 63.3876 28.2845 64.1137C30.7883 66.017 33.8923 67.668 37.5105 69.0208C41.0145 70.3307 44.6459 71.2333 48.3037 71.7037C50.1107 71.9361 51.8432 72.054 53.4532 72.054C53.9044 72.054 54.3548 72.0448 54.792 72.0266C55.1383 72.0121 55.4795 71.9922 55.8061 71.9674C56.7967 71.8923 57.7663 71.7661 58.6879 71.5921C60.8288 71.1879 62.5868 70.5599 63.8914 69.7011C62.4067 70.9273 60.2307 71.5632 58.3993 71.9089C57.5097 72.0768 56.5735 72.1986 55.6166 72.2709C55.2996 72.295 54.9686 72.3143 54.6327 72.3283C54.2081 72.346 53.7702 72.3549 53.3315 72.3549Z" fill="#E3E8EF"/>
<path id="Vector_28" d="M68.7296 64.85C68.7525 64.9827 68.7732 65.1154 68.7918 65.248C68.8105 65.3802 68.8242 65.5128 68.8332 65.6455C68.8425 65.6891 68.8491 65.7332 68.8538 65.7776C68.8606 65.7997 68.8666 65.8221 68.8721 65.8447C68.8725 65.835 68.8731 65.8254 68.8735 65.8157C68.8735 65.8155 68.8735 65.8155 68.8735 65.8153C68.8775 65.7287 68.8809 65.642 68.8837 65.5548C68.8853 65.5093 68.8868 65.4636 68.8881 65.4179C68.8648 63.5791 68.2902 61.7777 67.4528 60.0961C66.836 58.8575 66.0587 57.6883 65.1836 56.5887C64.6997 55.9806 64.1382 55.4007 63.8149 54.7006C63.4717 53.9575 63.4175 53.0012 63.411 52.2126C63.4076 51.7749 63.4082 51.3371 63.4163 50.8998C63.4503 49.0298 63.6791 47.1709 64.0929 45.3552C64.0988 45.3285 64.105 45.3016 64.1111 45.275C64.5406 43.4165 65.1502 41.6153 65.5204 39.7396C65.7492 38.581 65.9091 37.4021 65.9271 36.2162C65.9364 35.6018 65.9076 34.9857 65.8308 34.3698C65.7781 33.9485 65.7037 33.5292 65.6059 33.1134C64.7808 29.6073 62.1519 26.598 58.8434 24.7941C58.81 24.7759 58.7766 24.7579 58.7431 24.74C58.7343 24.7351 58.7252 24.7302 58.7161 24.7256C58.7002 24.7169 58.6841 24.7084 58.6683 24.7C58.653 24.6919 58.6378 24.6839 58.6226 24.6761C58.5953 24.6617 58.568 24.6475 58.5407 24.6333C58.4817 24.6028 58.4224 24.5726 58.3628 24.5427C58.2855 24.5038 58.2075 24.4655 58.1292 24.4279C58.0945 24.4114 58.0598 24.3946 58.0251 24.3784C57.9902 24.3619 57.9553 24.3456 57.9203 24.3293C57.9102 24.3246 57.9 24.32 57.8899 24.3153C57.8658 24.3041 57.8412 24.2929 57.8169 24.2819C57.746 24.2495 57.6749 24.2178 57.6034 24.1867C57.5697 24.1719 57.5359 24.1573 57.5021 24.1427C57.4695 24.1287 57.4367 24.1147 57.4039 24.101C57.4013 24.0999 57.3988 24.0989 57.3963 24.0978C56.8696 23.8761 56.3274 23.681 55.7747 23.5158C54.2928 23.0723 52.7379 22.8451 51.2203 22.9054C50.8944 22.9183 50.5705 22.9445 50.2493 22.9847C50.108 23.0023 49.9671 23.0226 49.827 23.0457C47.1493 23.4872 45.5944 24.9896 44.3556 27.1111C44.089 27.5679 43.8391 28.0334 43.6066 28.5069C43.3738 28.9804 43.1582 29.4618 42.9606 29.9499C42.5525 30.9263 42.2531 31.9491 41.9895 32.952C41.8646 33.4634 41.7366 33.9737 41.6082 34.484C41.2229 36.0148 40.8328 37.5445 40.497 39.0956C40.4519 39.3042 40.4151 39.5135 40.3853 39.7248C40.2236 40.7193 40.4367 41.574 40.8905 42.3093C41.0416 42.5545 41.2195 42.7862 41.4192 43.0056C41.4209 43.0073 41.4226 43.0092 41.4243 43.0109C41.615 43.214 41.8166 43.3995 42.0275 43.5701C42.2415 43.7414 42.4653 43.8978 42.7042 44.0413C43.2879 44.4026 43.9231 44.5947 44.5729 44.8101C45.815 45.2115 47.097 45.4214 48.3608 45.714C48.687 45.7895 49.012 45.8705 49.3347 45.9617C49.5484 46.022 49.761 46.087 49.9723 46.1577C50.2186 46.24 50.4634 46.3301 50.7059 46.4306C50.9185 46.5186 51.1297 46.6142 51.3387 46.7192C51.377 46.7384 51.4153 46.7579 51.4534 46.7778C51.5793 46.851 51.5787 47.0061 51.5201 47.1455C51.5015 47.1853 51.4767 47.2234 51.4464 47.2555C51.398 47.307 51.3349 47.3431 51.2573 47.3459C51.1337 47.3425 51.0104 47.338 50.887 47.3323C50.6583 47.3213 50.4296 47.3059 50.1987 47.2854C50.0752 47.2744 49.951 47.2619 49.8257 47.2479C49.7458 47.2384 49.666 47.2288 49.5864 47.2191C49.2691 47.1808 48.9532 47.1423 48.6386 47.1038C47.9492 47.0198 47.2654 46.9369 46.5837 46.8628C44.9108 46.6804 43.252 46.5499 41.5617 46.5782C41.2775 46.5814 40.9966 46.589 40.7162 46.6015C39.876 46.6388 39.0395 46.7177 38.2054 46.8713C37.9261 46.9229 37.6528 46.979 37.3809 47.0401C36.4381 47.2564 35.5103 47.5331 34.6329 47.8919C34.2495 48.0485 33.8761 48.221 33.5151 48.4107C33.4863 48.4257 33.4576 48.4412 33.429 48.4566C33.4288 48.4566 33.4286 48.4569 33.4284 48.4571C33.2926 48.5301 33.1584 48.6073 33.0306 48.6923C33.0306 48.6923 33.0304 48.6926 33.0302 48.6926C32.9735 48.7304 32.918 48.7696 32.8643 48.8108C32.8586 48.811 32.8531 48.8115 32.8472 48.8119C33.0037 48.8036 33.1605 48.7966 33.3173 48.7907C33.7805 48.7727 34.2444 48.7636 34.7086 48.7632C35.1181 48.7624 35.5277 48.7681 35.9373 48.7799C36.4707 48.7952 37.0041 48.8206 37.537 48.8553C37.8095 48.8731 38.0821 48.8934 38.3546 48.916C38.4132 48.9209 38.4741 48.9282 38.5363 48.9363H38.537C38.7094 48.9585 38.8914 48.9862 39.0583 48.9811C39.0585 48.9811 39.0587 48.9811 39.0587 48.9811C39.1028 48.9797 39.1457 48.9761 39.187 48.9695C39.4921 48.9209 39.7944 48.8085 40.0957 48.7412C40.4046 48.6722 40.7161 48.6113 41.0292 48.5578C41.3533 48.5026 41.6794 48.4556 42.0067 48.4162C42.1704 48.3965 42.3346 48.3788 42.4988 48.3629C44.6322 48.211 46.8021 48.288 48.9395 48.6088C49.2594 48.6568 49.5787 48.7103 49.8971 48.7694C50.1055 48.8079 50.3135 48.8489 50.5211 48.8925C50.7589 48.942 50.996 48.9949 51.2324 49.051C51.4349 49.0988 51.6369 49.1492 51.8381 49.2018C52.7329 49.4354 53.6158 49.7147 54.4818 50.0412C54.5933 50.0818 54.705 50.1231 54.817 50.1652V50.1654C54.9788 50.2263 55.1409 50.2889 55.3025 50.3528C56.6678 50.8938 57.9913 51.5349 59.251 52.274C59.2794 52.2907 59.3078 52.3074 59.3361 52.3241C59.4886 52.414 59.6408 52.5052 59.7925 52.5977C59.8921 52.6584 59.9916 52.72 60.0906 52.782C60.123 52.8021 60.1553 52.8226 60.1875 52.8431C60.2011 52.8514 60.2144 52.8598 60.2277 52.8685C60.2571 52.8869 60.2867 52.9058 60.3161 52.9248C60.3574 52.9508 60.3984 52.9773 60.4395 53.0039C60.4479 53.0094 60.4566 53.0149 60.4651 53.0204C60.5203 53.0564 60.5755 53.0923 60.6303 53.1285C60.66 53.148 60.6894 53.1675 60.719 53.1874C60.7266 53.1924 60.7342 53.1975 60.7418 53.2026C60.7611 53.2153 60.7801 53.2282 60.7994 53.2411C60.8275 53.2597 60.8554 53.2788 60.8834 53.2978C60.9064 53.3135 60.9297 53.3291 60.9528 53.3452C60.9777 53.3621 61.0029 53.3792 61.0279 53.3966C61.0632 53.4209 61.0985 53.4455 61.1337 53.47C61.1462 53.4787 61.1584 53.4874 61.1709 53.496C61.2124 53.5252 61.2537 53.5544 61.2947 53.5838C61.2962 53.5849 61.2974 53.5857 61.2989 53.5868C61.3857 53.6488 61.472 53.7114 61.5574 53.7749C61.5953 53.8028 61.633 53.8309 61.6707 53.8593C61.6821 53.8678 61.6935 53.8764 61.7049 53.8851C61.7422 53.913 61.7792 53.9414 61.816 53.9697C61.8587 54.0025 61.901 54.0353 61.9434 54.0685C63.2016 55.0551 64.4466 56.2728 65.415 57.5107C66.1991 58.5127 66.8738 59.6045 67.4163 60.7477C68.0422 62.0669 68.492 63.4542 68.7296 64.85Z" fill="#E3E8EF"/>
<path id="Vector_29" opacity="0.22" d="M68.7295 64.85C68.7524 64.9827 68.7731 65.1154 68.7917 65.248C68.8097 65.3752 68.8203 65.5165 68.8332 65.6455C68.8379 65.6934 68.8516 65.7301 68.8538 65.7776C68.8652 65.7988 68.8621 65.8227 68.872 65.8447C68.8723 65.8373 68.8731 65.823 68.8734 65.8157C68.8734 65.8155 68.8734 65.8155 68.8734 65.8153C68.8775 65.7287 68.8808 65.642 68.8836 65.5548C68.8853 65.5093 68.8867 65.4636 68.888 65.4179C68.8647 63.5791 68.2901 61.7777 67.4527 60.0961C66.8359 58.8575 66.0586 57.6883 65.1835 56.5887C64.6996 55.9806 64.1381 55.4007 63.8148 54.7006C63.4716 53.9575 63.4174 53.0012 63.4109 52.2126C63.4075 51.7749 63.4081 51.3371 63.4162 50.8998C63.4502 49.0298 63.679 47.1709 64.0928 45.3552C64.0988 45.3285 64.1049 45.3016 64.111 45.275C64.5405 43.4165 65.1501 41.6153 65.5203 39.7396C65.7491 38.581 65.909 37.4021 65.927 36.2162C65.9363 35.6018 65.9075 34.9857 65.8307 34.3698C65.7781 33.9485 65.7036 33.5292 65.6058 33.1134C64.7807 29.6073 62.1518 26.598 58.8433 24.7941C58.8099 24.7759 58.7765 24.7579 58.7431 24.74C58.7342 24.7351 58.7251 24.7302 58.716 24.7256V24.7254C58.7001 24.7169 58.6843 24.7084 58.6682 24.7C58.6529 24.6919 58.6377 24.6839 58.6225 24.6761C58.5952 24.6617 58.5679 24.6475 58.5406 24.6333C58.4816 24.6028 58.4223 24.5726 58.3627 24.5427C58.2854 24.5038 58.2074 24.4655 58.1291 24.4279C58.0944 24.4114 58.0597 24.3946 58.025 24.3784C57.9901 24.3619 57.9552 24.3456 57.9203 24.3293C57.9101 24.3246 57.8999 24.32 57.8898 24.3153V24.3151C57.8655 24.3041 57.8411 24.2929 57.8168 24.2819C57.7459 24.2495 57.6748 24.2178 57.6033 24.1867C57.5697 24.1719 57.5358 24.1573 57.502 24.1427C57.4694 24.1287 57.4366 24.1147 57.4038 24.101C57.565 24.1693 57.725 24.2523 57.8826 24.3471C58.1543 24.5108 58.4187 24.7103 58.6711 24.9329C59.3607 25.5408 59.9592 26.3213 60.3613 27.0166C60.6693 27.5491 61.1251 28.3554 60.953 29.0048C60.6048 30.3197 59.4773 29.44 58.5394 29.3765C56.7712 29.2567 55.0244 30.1945 54.0143 31.6224C52.6543 33.5452 52.3771 36.1074 52.8128 38.4164C53.0777 39.8213 53.7088 41.1589 54.7932 42.3031C55.1914 42.7233 55.66 43.0418 56.1502 43.3282C56.5907 43.5861 57.0486 43.8182 57.4883 44.0757C57.911 44.3235 58.3166 44.5947 58.6737 44.9348C58.9545 45.2022 59.1637 45.4698 59.318 45.7398C60.0538 47.0277 59.5359 48.3691 59.5107 49.9786C59.534 50.6711 59.5947 51.3621 59.699 52.0465C59.7267 52.2308 59.7581 52.4145 59.7923 52.5977C59.892 52.6584 59.9914 52.72 60.0905 52.782C60.1228 52.8023 60.1552 52.8226 60.1874 52.8431C60.2009 52.8514 60.2142 52.8598 60.2276 52.8685C60.2572 52.8871 60.2866 52.9058 60.316 52.9248C60.3572 52.9508 60.3983 52.9773 60.4393 53.0039C60.4478 53.0094 60.4565 53.0149 60.4649 53.0204C60.5202 53.0562 60.5752 53.0921 60.6302 53.1285C60.6598 53.148 60.6892 53.1675 60.7188 53.1874C60.7265 53.1922 60.7341 53.1973 60.7417 53.2024V53.2026C60.7609 53.2153 60.78 53.228 60.7992 53.2411C60.8274 53.2597 60.8553 53.2788 60.8832 53.2978C60.9063 53.3135 60.9296 53.3291 60.9526 53.3452C60.9776 53.3621 61.0028 53.3792 61.0277 53.3966C61.0631 53.4209 61.0984 53.4455 61.1335 53.47C61.146 53.4787 61.1583 53.4874 61.1708 53.496C61.2122 53.5252 61.2535 53.5544 61.2946 53.5838C61.296 53.5849 61.2973 53.5857 61.2988 53.5868C61.3855 53.6488 61.4719 53.7116 61.5573 53.7749C61.5952 53.8028 61.6328 53.8309 61.6705 53.8593C61.682 53.8678 61.6934 53.8764 61.7048 53.8851C61.742 53.913 61.7791 53.9414 61.8159 53.9697C61.8584 54.0025 61.9009 54.0353 61.9432 54.0685C63.2015 55.0551 64.4464 56.2728 65.4148 57.5107C66.1989 58.5127 66.8737 59.6045 67.4162 60.7477C68.0421 62.0669 68.4919 63.4542 68.7295 64.85Z" fill="#EEF2F6"/>
<g id="Group_10" opacity="0.2">
<path id="Vector_30" d="M61.5334 34.9258C61.4971 34.0269 61.3338 33.0988 60.8974 32.4557C60.4831 31.845 59.8422 31.6307 59.1662 31.8855C57.6568 32.4544 56.588 34.5258 56.3414 36.4083C56.2128 37.3904 56.2872 38.3476 56.5192 39.2183C56.7233 39.9844 57.0205 40.7447 57.4778 41.2731C57.9088 41.7711 58.4587 41.8942 59.0726 41.5806C59.5891 41.3167 60.0264 40.8 60.3633 40.2132C61.2444 38.6791 61.603 36.6463 61.5334 34.9258Z" fill="#EEF2F6"/>
</g>
<g id="Group_11" opacity="0.8">
<path id="Vector_31" d="M59.9943 35.9629C59.979 35.5861 59.9106 35.197 59.7277 34.9274C59.554 34.6714 59.2853 34.5816 59.0019 34.6884C58.3692 34.9269 57.9211 35.7953 57.8178 36.5844C57.7639 36.9961 57.795 37.3974 57.8923 37.7624C57.9778 38.0836 58.1024 38.4023 58.2941 38.6238C58.4748 38.8325 58.7053 38.8841 58.9627 38.7527C59.1792 38.6421 59.3625 38.4254 59.5038 38.1795C59.8731 37.5364 60.0234 36.6842 59.9943 35.9629Z" fill="#CDD5DF"/>
</g>
<g id="Group_12" opacity="0.5">
<path id="Vector_32" d="M64.6428 31.8958C64.6108 31.7938 64.4913 31.8253 64.4892 31.9366C64.4716 32.8677 64.3901 33.797 64.2647 34.7188C64.1739 35.3866 64.0599 36.0503 63.9304 36.7081C63.3492 39.6567 62.4345 42.4747 62.0182 45.4753C61.9928 45.6579 61.9682 45.8411 61.9443 46.0254C61.7704 47.3696 61.642 48.7527 61.6441 50.1008C61.6451 50.6615 61.6929 51.212 61.8749 51.72C62.009 52.0952 62.1813 52.4453 62.3527 52.7951C62.3984 52.8879 62.513 52.8293 62.4991 52.7199C62.3465 51.5249 62.5001 50.2146 62.6148 49.0347C62.7212 47.9391 62.8827 46.8512 63.0959 45.778C63.2055 45.2267 63.3289 44.6791 63.4656 44.1364C63.7903 42.8466 64.1805 41.5831 64.4974 40.2903C64.8907 38.6849 65.1597 37.0202 65.152 35.3821C65.1468 34.195 64.9963 33.022 64.6428 31.8958Z" fill="#CDD5DF"/>
</g>
<g id="Group_13" opacity="0.18">
<path id="Vector_33" d="M41.06 26.375C39.0435 28.3311 37.9111 31.0672 37.1885 33.8249C36.8511 35.1124 36.5923 36.4094 36.2633 37.6979C35.8556 39.2955 35.3262 40.8752 34.6777 42.41C34.2163 43.5019 33.7271 44.7272 33.0236 45.7053C32.9593 45.7948 33.0321 45.901 33.1165 45.8412C33.4339 45.6152 33.7521 45.3892 34.0489 45.1235C34.4507 44.7634 34.7552 44.3023 35.023 43.8098C35.7555 42.4631 36.3611 40.9966 36.898 39.5647C37.9614 36.7282 38.4999 33.8148 39.3936 30.9454C39.8684 29.4216 40.4373 27.9103 41.1755 26.484C41.2268 26.3852 41.1368 26.3006 41.06 26.375Z" fill="white"/>
</g>
<g id="Group_14" opacity="0.7">
<path id="Vector_34" d="M65.9269 36.2162C65.909 37.4021 65.749 38.581 65.5203 39.7396C65.15 41.6153 64.5405 43.4165 64.111 45.275C64.1048 45.3016 64.0987 45.3285 64.0928 45.3551C64.0456 45.3805 63.998 45.4053 63.9497 45.4294C63.6705 45.5695 63.385 45.6856 63.0958 45.7781C62.7166 45.9002 62.3309 45.9818 61.9442 46.0254C61.6979 46.0531 61.451 46.0652 61.2051 46.0625C60.5621 46.055 59.9251 45.9446 59.3178 45.7398C58.386 45.425 57.5247 44.8871 56.8208 44.1557C56.577 43.9026 56.3521 43.6265 56.1501 43.3282C56.0022 43.1105 55.8663 42.8809 55.7438 42.6402C54.6 40.3915 54.9428 37.7933 56.4093 35.9875C56.6826 35.6506 56.9951 35.3413 57.3444 35.0671C57.6527 34.8248 57.9895 34.6099 58.3537 34.4275C59.3318 33.9371 60.3836 33.7411 61.4103 33.8061C62.417 33.87 63.3994 34.1846 64.2645 34.7188C64.577 34.9116 64.8743 35.1331 65.1519 35.3821C65.4318 35.6329 65.6919 35.9115 65.9269 36.2162Z" fill="#CDD5DF"/>
</g>
<g id="Group_15">
<path id="Vector_35" opacity="0.3" d="M69.2236 80.4115L64.0567 76.2714C63.8401 76.0978 63.7433 75.8693 63.8334 75.7442C63.9221 75.6211 64.1632 75.6377 64.3941 75.7826L70.0053 79.3061C70.2768 79.4766 70.4235 79.7531 70.3192 79.8978L69.875 80.5145C69.7722 80.6571 69.4705 80.6094 69.2236 80.4115Z" fill="#9AA4B2"/>
<path id="Vector_36" opacity="0.3" d="M17.3039 42.1038L22.3598 46.3847C22.5718 46.5642 22.6493 46.8149 22.5386 46.9632C22.4298 47.109 22.1736 47.1088 21.9432 46.9628L16.3419 43.4127C16.0708 43.2409 15.9453 42.9398 16.0733 42.7683L16.6188 42.0375C16.7449 41.8685 17.0623 41.8993 17.3039 42.1038Z" fill="#9AA4B2"/>
<path id="Vector_37" opacity="0.3" d="M14.8526 65.0178L21.4761 64.5424C21.7539 64.5224 22.0011 64.7173 22.0465 64.9921C22.0912 65.2623 21.9262 65.5231 21.6629 65.5983L15.2634 67.4278C14.9537 67.5164 14.6359 67.3153 14.5834 66.9975L14.3594 65.6434C14.3076 65.3303 14.5361 65.0405 14.8526 65.0178Z" fill="#BCBCBC"/>
<path id="Vector_38" opacity="0.3" d="M11.0307 51.376L17.2156 53.7932C17.475 53.8946 17.6144 54.1768 17.5374 54.4444C17.4617 54.7076 17.2006 54.8721 16.9305 54.827L10.3658 53.7287C10.0481 53.6755 9.84766 53.3574 9.93677 53.0479L10.3165 51.7289C10.4043 51.424 10.7351 51.2605 11.0307 51.376Z" fill="#9AA4B2"/>
<path id="Vector_39" opacity="0.3" d="M78.2239 71.7603L72.1361 69.1047C71.8808 68.9933 71.7534 68.7013 71.8421 68.4308C71.9294 68.1648 72.1979 68.0051 72.4664 68.0595L78.9916 69.3821C79.3074 69.4461 79.4943 69.7766 79.3917 70.0894L78.9543 71.4225C78.8532 71.7307 78.5148 71.8872 78.2239 71.7603Z" fill="#9AA4B2"/>
<path id="Vector_40" opacity="0.3" d="M77.0375 57.5048L70.4484 58.1751C70.1721 58.2032 69.9399 58.0947 69.9128 57.9248C69.8861 57.7577 70.0664 57.5847 70.332 57.5227L76.7872 56.015C77.0996 55.9421 77.4012 56.0505 77.4326 56.247L77.5664 57.0844C77.5974 57.2781 77.3523 57.4728 77.0375 57.5048Z" fill="#9AA4B2"/>
</g>
<g id="Group_16">
<path id="Vector_41" d="M34.9857 48.7556C36.6993 48.7556 38.546 48.871 40.4746 49.0986C41.0414 49.1653 41.6174 49.2424 42.1865 49.3278L42.1968 49.3294C44.5635 49.7024 46.9608 50.2246 49.3223 50.8817C50.228 51.1417 51.1369 51.4277 52.0235 51.7318C53.8609 52.362 55.5826 53.06 57.1407 53.8066C58.8594 54.6301 60.4376 55.5404 61.8315 56.5124C63.1143 57.4067 64.195 58.3038 65.0213 59.1841C64.2599 58.4574 63.3343 57.723 62.293 56.9969C59.5634 55.0936 56.1792 53.4426 52.2345 52.0898C48.4143 50.7799 44.4552 49.8773 40.4673 49.4069C38.4973 49.1745 36.6084 49.0566 34.8532 49.0566C34.3612 49.0566 33.8702 49.0658 33.3935 49.084C33.0159 49.0985 32.644 49.1184 32.2878 49.1432C31.2078 49.2183 30.1508 49.3445 29.1461 49.5184C26.8119 49.9227 24.9126 50.5666 23.4902 51.4254C25.1089 50.1992 27.4641 49.5474 29.4607 49.2017C30.4305 49.0338 31.4513 48.912 32.4945 48.8397C32.8401 48.8156 33.201 48.7963 33.5672 48.7823C34.0301 48.7646 34.5074 48.7556 34.9857 48.7556Z" fill="#CDD5DF"/>
</g>
<g id="Group_17" opacity="0.3">
<path id="Vector_42" d="M30.3303 61.9659C30.5902 62.0319 30.8373 62.1129 31.0844 62.1925C31.2065 62.2344 31.329 62.2749 31.4512 62.3155C31.5126 62.3354 31.573 62.3565 31.6332 62.3778C31.6934 62.3992 31.7541 62.4197 31.8137 62.4417C32.0522 62.5297 32.2923 62.6124 32.5268 62.7021L33.2275 62.9688C33.3437 63.013 33.4575 63.0606 33.5731 63.1049C33.6891 63.1482 33.8029 63.1945 33.9176 63.2391C34.0324 63.2833 34.1451 63.3306 34.2585 63.3764L34.4295 63.4425L34.5989 63.5105C34.7116 63.556 34.8249 63.6001 34.9361 63.6473L35.2732 63.7803L35.6067 63.9169C35.7189 63.9597 35.8294 64.0049 35.9403 64.0492C36.8273 64.4034 37.6981 64.7502 38.5669 65.0755C39.4357 65.4009 40.3004 65.7093 41.1745 65.995C42.0484 66.281 42.9307 66.548 43.828 66.8053L44.1648 66.9021L44.5038 66.9968L44.6735 67.0441C44.7303 67.0594 44.7862 67.0778 44.8432 67.0929L45.1852 67.1858C45.2995 67.216 45.4126 67.2519 45.5276 67.2818C45.6424 67.3127 45.7576 67.3417 45.8723 67.3748C46.1015 67.4408 46.3335 67.4999 46.5652 67.5648L46.7392 67.6126C46.7683 67.6205 46.7972 67.629 46.8262 67.6374L46.9136 67.6612L47.264 67.7562C47.497 67.8243 47.7325 67.8858 47.9681 67.9532L48.1448 68.0031C48.2038 68.0203 48.2625 68.0386 48.3218 68.0547C48.4402 68.0877 48.5589 68.1203 48.6774 68.1557L49.3918 68.3666C49.5112 68.4036 49.6309 68.4383 49.7506 68.4772C49.8703 68.5154 49.9907 68.5498 50.1108 68.5891L50.2913 68.6465L50.4719 68.7061L50.8342 68.8263L51.0157 68.8885L51.1065 68.9198L51.1974 68.9528L51.5616 69.0846C51.8047 69.1765 52.0485 69.2674 52.2925 69.3778L52.2869 69.5886L51.544 69.5809C51.4202 69.5798 51.2964 69.5757 51.1726 69.5726L50.8011 69.5628C50.5535 69.5576 50.3059 69.5462 50.0582 69.5373C49.9344 69.5323 49.8105 69.5286 49.6867 69.5224L49.3154 69.5036C48.3253 69.4477 47.3357 69.3658 46.349 69.2491L45.979 69.2045C45.9173 69.1975 45.8558 69.1891 45.7942 69.1803L45.6096 69.1545C45.4865 69.1377 45.3636 69.119 45.2406 69.1013C45.1177 69.0834 44.9953 69.0611 44.8725 69.0413L44.5046 68.98C44.3822 68.9583 44.2601 68.9344 44.1378 68.9117L43.7711 68.8425L43.4058 68.7655C42.432 68.5593 41.4671 68.3056 40.5185 67.9993C40.4588 67.9814 40.4003 67.9598 40.3414 67.9397L40.1648 67.8784L39.8118 67.7555L39.4619 67.6241L39.287 67.5584C39.2286 67.5366 39.1702 67.5148 39.1127 67.4909L38.7663 67.3507C38.6508 67.3041 38.535 67.2581 38.4212 67.2073L38.0785 67.0587C38.0214 67.0337 37.964 67.0095 37.9072 66.984L37.7378 66.9055C37.512 66.8004 37.2848 66.6983 37.0626 66.586L36.7277 66.421C36.6716 66.394 36.6167 66.3647 36.5615 66.336L36.396 66.2497L36.0651 66.077C35.9556 66.0179 35.8468 65.9576 35.7381 65.8972L35.4125 65.715L35.091 65.526C34.2339 65.0216 33.3994 64.4815 32.5845 63.9152L32.2804 63.7007C32.2295 63.6652 32.1792 63.629 32.1293 63.5922L31.979 63.4825L31.6786 63.2632L31.5286 63.1533L31.3801 63.0414L31.0832 62.8176C30.9844 62.7428 30.8846 62.6693 30.7874 62.5925L30.2026 62.1337L30.3303 61.9659Z" fill="#EEF2F6"/>
</g>
</g>
<defs>
<clipPath id="clip0_1764_2962">
<rect width="93.75" height="93.75" fill="white" transform="translate(0.75 0.750031)"/>
</clipPath>
</defs>
</svg>
