<svg xmlns="http://www.w3.org/2000/svg" width="20" height="20" viewBox="0 0 20 20" fill="none">
  <path d="M17.721 11.5938L17.2634 12.1881L17.2634 12.1881L17.721 11.5938ZM18.8786 14.0576L18.2963 13.585L18.2963 13.585L18.8786 14.0576ZM17.3116 14.25C16.8974 14.25 16.5616 14.5858 16.5616 15C16.5616 15.4142 16.8974 15.75 17.3116 15.75V14.25ZM15.9008 10.0864C15.4883 10.0491 15.1236 10.3532 15.0863 10.7658C15.049 11.1783 15.3531 11.543 15.7657 11.5803L15.9008 10.0864ZM2.27879 11.5938L2.73638 12.1881L2.73638 12.1881L2.27879 11.5938ZM1.12121 14.0576L1.70354 13.585L1.70354 13.585L1.12121 14.0576ZM2.68822 15.75C3.10243 15.75 3.43822 15.4142 3.43822 15C3.43822 14.5858 3.10243 14.25 2.68822 14.25V15.75ZM4.23416 11.5803C4.64669 11.543 4.95086 11.1783 4.91353 10.7658C4.87621 10.3532 4.51154 10.0491 4.09901 10.0864L4.23416 11.5803ZM4.58325 9.91668C4.99747 9.91668 5.33325 9.58089 5.33325 9.16668C5.33325 8.75246 4.99747 8.41668 4.58325 8.41668V9.91668ZM4.58325 5.75001C4.99747 5.75001 5.33325 5.41422 5.33325 5.00001C5.33325 4.5858 4.99747 4.25001 4.58325 4.25001V5.75001ZM6.73639 12.5927L6.34195 11.9548L6.34195 11.9548L6.73639 12.5927ZM13.2634 12.5927L13.6578 11.9548L13.6578 11.9548L13.2634 12.5927ZM5.01214 15.5395L4.48466 16.0727L4.48466 16.0727L5.01214 15.5395ZM14.9876 15.5395L14.4602 15.0064L14.4602 15.0064L14.9876 15.5395ZM17.2634 12.1881C17.6258 12.4671 18.0121 12.71 18.268 13.0339C18.3828 13.1792 18.4117 13.2737 18.4159 13.3232C18.4181 13.3492 18.4228 13.4291 18.2963 13.585L19.4609 14.5303C19.7909 14.1238 19.9505 13.6696 19.9106 13.1969C19.8726 12.7478 19.6623 12.3792 19.445 12.1041C19.0369 11.5874 18.3879 11.1608 18.1786 10.9996L17.2634 12.1881ZM18.2963 13.585C17.8901 14.0855 17.5862 14.25 17.3116 14.25V15.75C18.2858 15.75 18.9753 15.1287 19.4609 14.5303L18.2963 13.585ZM15.7657 11.5803C16.2744 11.6263 16.7893 11.823 17.2634 12.1881L18.1786 10.9996C17.4906 10.4698 16.7078 10.1594 15.9008 10.0864L15.7657 11.5803ZM16.3332 7.08334C16.3332 7.81972 15.7363 8.41668 14.9999 8.41668V9.91668C16.5647 9.91668 17.8332 8.64815 17.8332 7.08334H16.3332ZM14.9999 5.75001C15.7363 5.75001 16.3332 6.34696 16.3332 7.08334H17.8332C17.8332 5.51854 16.5647 4.25001 14.9999 4.25001V5.75001ZM1.8212 10.9996C1.61192 11.1608 0.96297 11.5874 0.554783 12.1041C0.337505 12.3792 0.127193 12.7478 0.0892344 13.1969C0.0492821 13.6696 0.20896 14.1238 0.538873 14.5303L1.70354 13.585C1.57701 13.4291 1.58171 13.3492 1.58391 13.3232C1.58809 13.2737 1.61705 13.1792 1.73182 13.0339C1.98773 12.71 2.37401 12.4671 2.73638 12.1881L1.8212 10.9996ZM0.538873 14.5303C1.02454 15.1287 1.71401 15.75 2.68822 15.75V14.25C2.41359 14.25 2.10974 14.0855 1.70354 13.585L0.538873 14.5303ZM4.09901 10.0864C3.29205 10.1594 2.50927 10.4698 1.8212 10.9996L2.73638 12.1881C3.21053 11.823 3.72542 11.6263 4.23416 11.5803L4.09901 10.0864ZM1.74992 7.08334C1.74992 8.64815 3.01845 9.91668 4.58325 9.91668V8.41668C3.84687 8.41668 3.24992 7.81972 3.24992 7.08334H1.74992ZM4.58325 4.25001C3.01845 4.25001 1.74992 5.51854 1.74992 7.08334H3.24992C3.24992 6.34696 3.84687 5.75001 4.58325 5.75001V4.25001ZM7.13083 13.2306C8.88582 12.1454 11.114 12.1454 12.8689 13.2306L13.6578 11.9548C11.4194 10.5706 8.58038 10.5706 6.34195 11.9548L7.13083 13.2306ZM7.34625 17.4167H12.6535V15.9167H7.34625V17.4167ZM5.53962 15.0064C5.31332 14.7825 5.33279 14.676 5.33404 14.6641C5.33972 14.6102 5.38416 14.4838 5.57969 14.285C5.9903 13.8677 6.62398 13.544 7.13083 13.2306L6.34195 11.9548C5.99733 12.1679 5.08899 12.645 4.51041 13.2331C4.21134 13.5371 3.89938 13.9646 3.84229 14.5071C3.78076 15.0916 4.03108 15.6239 4.48466 16.0727L5.53962 15.0064ZM12.8689 13.2306C13.3758 13.544 14.0095 13.8677 14.4201 14.285C14.6156 14.4838 14.6601 14.6102 14.6657 14.6641C14.667 14.676 14.6865 14.7825 14.4602 15.0064L15.5151 16.0727C15.9687 15.6239 16.219 15.0916 16.1575 14.5071C16.1004 13.9646 15.7884 13.5371 15.4894 13.2331C14.9108 12.645 14.0025 12.1679 13.6578 11.9548L12.8689 13.2306ZM14.4602 15.0064C13.8605 15.5997 13.3003 15.9167 12.6535 15.9167V17.4167C13.867 17.4167 14.7863 16.7937 15.5151 16.0727L14.4602 15.0064ZM4.48466 16.0727C5.21343 16.7937 6.13281 17.4167 7.34625 17.4167V15.9167C6.69951 15.9167 6.13931 15.5997 5.53962 15.0064L4.48466 16.0727ZM12.1666 6.25001C12.1666 7.44663 11.1965 8.41668 9.99989 8.41668V9.91668C12.0249 9.91668 13.6666 8.27505 13.6666 6.25001H12.1666ZM9.99989 8.41668C8.80327 8.41668 7.83322 7.44663 7.83322 6.25001H6.33322C6.33322 8.27505 7.97485 9.91668 9.99989 9.91668V8.41668ZM7.83322 6.25001C7.83322 5.05339 8.80327 4.08334 9.99989 4.08334V2.58334C7.97485 2.58334 6.33322 4.22497 6.33322 6.25001H7.83322ZM9.99989 4.08334C11.1965 4.08334 12.1666 5.05339 12.1666 6.25001H13.6666C13.6666 4.22497 12.0249 2.58334 9.99989 2.58334V4.08334Z" fill="#4B5565"/>
</svg>