<svg xmlns="http://www.w3.org/2000/svg" width="20" height="20" viewBox="0 0 20 20" fill="none">
  <path d="M10.4167 19.0833C10.831 19.0833 11.1667 18.7475 11.1667 18.3333C11.1667 17.9191 10.831 17.5833 10.4167 17.5833V19.0833ZM2.26063 16.8305L1.7433 17.3735L1.7433 17.3735L2.26063 16.8305ZM4.64806 12.9013L4.26435 12.2569L4.26435 12.2569L4.64806 12.9013ZM10.4167 11.7543L10.312 12.497L10.312 12.497L10.4167 11.7543ZM12.2167 13.0118C12.6002 13.1683 13.0379 12.9843 13.1945 12.6008C13.351 12.2173 13.167 11.7796 12.7835 11.623L12.2167 13.0118ZM14.6667 18.3333C14.6667 18.7475 15.0025 19.0833 15.4167 19.0833C15.831 19.0833 16.1667 18.7475 16.1667 18.3333H14.6667ZM16.1667 12.5C16.1667 12.0858 15.831 11.75 15.4167 11.75C15.0025 11.75 14.6667 12.0858 14.6667 12.5H16.1667ZM12.5001 14.6667C12.0859 14.6667 11.7501 15.0024 11.7501 15.4167C11.7501 15.8309 12.0859 16.1667 12.5001 16.1667V14.6667ZM18.3334 16.1667C18.7476 16.1667 19.0834 15.8309 19.0834 15.4167C19.0834 15.0024 18.7476 14.6667 18.3334 14.6667V16.1667ZM5.49247 19.0833H10.4167V17.5833H5.49247V19.0833ZM2.77797 16.2874C2.42147 15.9478 2.40834 15.7389 2.41915 15.64C2.43502 15.4949 2.53918 15.2779 2.83082 14.9925C3.43083 14.4052 4.36091 13.9452 5.03177 13.5457L4.26435 12.2569C3.75624 12.5595 2.55123 13.1672 1.78158 13.9205C1.38839 14.3054 0.999085 14.827 0.928032 15.477C0.851917 16.1734 1.15842 16.8163 1.7433 17.3735L2.77797 16.2874ZM1.7433 17.3735C2.7308 18.3143 3.93173 19.0833 5.49247 19.0833V17.5833C4.47759 17.5833 3.62987 17.0991 2.77797 16.2874L1.7433 17.3735ZM5.03177 13.5457C6.63079 12.5936 8.50637 12.2423 10.312 12.497L10.5215 11.0117C8.38852 10.7108 6.16665 11.1242 4.26435 12.2569L5.03177 13.5457ZM10.312 12.497C10.9652 12.5891 11.6012 12.7606 12.2167 13.0118L12.7835 11.623C12.0534 11.325 11.2974 11.1211 10.5215 11.0117L10.312 12.497ZM13.0001 5.41666C13.0001 7.07351 11.6569 8.41666 10.0001 8.41666V9.91666C12.4854 9.91666 14.5001 7.90194 14.5001 5.41666H13.0001ZM10.0001 8.41666C8.34323 8.41666 7.00008 7.07351 7.00008 5.41666H5.50008C5.50008 7.90194 7.5148 9.91666 10.0001 9.91666V8.41666ZM7.00008 5.41666C7.00008 3.7598 8.34323 2.41666 10.0001 2.41666V0.916656C7.5148 0.916656 5.50008 2.93138 5.50008 5.41666H7.00008ZM10.0001 2.41666C11.6569 2.41666 13.0001 3.7598 13.0001 5.41666H14.5001C14.5001 2.93138 12.4854 0.916656 10.0001 0.916656V2.41666ZM16.1667 18.3333V15.4167H14.6667V18.3333H16.1667ZM16.1667 15.4167V12.5H14.6667V15.4167H16.1667ZM12.5001 16.1667H15.4167V14.6667H12.5001V16.1667ZM15.4167 16.1667H18.3334V14.6667H15.4167V16.1667Z" fill="#4B5565"/>
</svg>